{"glyphs":{"0":{"ha":889,"x_min":82,"x_max":807,"o":"m 443 1083 q 585 1040 519 1083 q 701 922 651 997 q 778 747 750 847 q 807 529 807 646 q 779 315 807 414 q 702 142 751 215 q 586 28 653 69 q 443 -14 519 -14 q 301 28 367 -14 q 186 142 235 69 q 110 315 138 215 q 82 529 82 414 q 110 747 82 646 q 186 923 138 849 q 301 1040 235 997 q 443 1083 367 1083 m 443 1026 q 354 999 390 1026 q 295 913 318 972 q 262 759 272 853 q 251 531 251 665 q 262 303 251 396 q 295 152 272 210 q 354 69 318 94 q 443 43 390 43 q 533 69 496 43 q 594 153 571 96 q 627 304 617 211 q 638 531 638 397 q 627 758 638 664 q 593 912 617 853 q 533 999 569 971 q 443 1026 496 1026 z "},"1":{"ha":583,"x_min":54,"x_max":563,"o":"m 383 1072 l 383 58 l 563 31 l 563 0 l 54 0 l 54 31 l 238 58 l 238 874 l 60 874 l 60 903 q 206 969 132 926 q 354 1083 279 1013 l 383 1072 z "},"2":{"ha":804,"x_min":32,"x_max":746,"o":"m 44 0 l 32 32 q 265 270 169 165 q 420 461 361 375 q 506 619 479 547 q 533 757 533 690 q 520 847 533 806 q 483 917 507 888 q 426 962 460 946 q 354 978 393 978 q 222 933 286 978 q 118 817 157 889 l 89 832 q 144 934 110 888 q 220 1014 178 981 q 313 1065 263 1047 q 415 1083 363 1083 q 526 1060 475 1083 q 614 998 576 1038 q 672 904 651 958 q 693 786 693 850 q 666 647 693 718 q 580 497 639 576 q 428 325 521 417 q 206 125 336 233 l 604 125 q 628 155 614 136 q 658 196 643 174 q 688 242 674 218 q 715 288 703 265 l 746 276 l 640 -28 l 610 -28 l 592 0 l 44 0 z "},"3":{"ha":769,"x_min":61,"x_max":690,"o":"m 235 553 q 408 676 347 603 q 469 836 469 750 q 433 945 469 904 q 344 986 397 986 q 217 941 275 986 q 128 821 160 896 l 94 829 q 134 932 106 885 q 203 1013 163 979 q 293 1065 243 1046 q 399 1083 343 1083 q 489 1069 447 1083 q 560 1028 531 1054 q 607 965 590 1001 q 624 885 624 928 q 578 750 624 814 q 449 639 532 686 l 449 633 q 624 549 558 624 q 690 354 690 474 q 662 210 690 278 q 584 93 633 143 q 468 15 535 43 q 325 -14 401 -14 q 222 1 271 -14 q 138 41 174 15 q 82 101 103 67 q 61 175 61 136 q 82 238 61 215 q 139 260 103 260 q 186 244 169 260 q 214 205 203 228 q 234 154 225 182 q 257 103 243 126 q 294 65 271 81 q 356 49 317 49 q 435 67 397 49 q 500 119 472 86 q 544 194 528 151 q 561 283 561 236 q 542 377 561 333 q 492 453 524 421 q 416 503 460 485 q 322 522 372 522 q 288 520 307 522 q 243 515 268 518 l 235 553 z "},"4":{"ha":808,"x_min":14,"x_max":739,"o":"m 469 296 l 25 296 l 14 319 l 574 1083 l 610 1069 l 610 401 l 739 401 l 739 296 l 610 296 l 610 58 l 733 32 l 733 0 l 303 0 l 303 32 l 469 58 l 469 296 m 469 842 l 464 842 l 149 407 l 150 401 l 469 401 l 469 842 z "},"5":{"ha":760,"x_min":49,"x_max":686,"o":"m 218 686 q 278 703 250 697 q 339 708 306 708 q 479 683 415 708 q 589 614 543 658 q 660 508 635 569 q 686 371 686 446 q 656 219 686 289 q 574 97 626 149 q 452 16 522 46 q 301 -14 382 -14 q 201 -1 247 -14 q 121 36 154 13 q 68 92 88 60 q 49 161 49 124 q 68 221 49 200 q 122 242 88 242 q 169 227 151 242 q 197 192 186 213 q 216 145 207 171 q 239 99 225 119 q 276 63 253 78 q 338 49 299 49 q 423 69 383 49 q 492 126 463 90 q 539 210 522 161 q 556 314 556 258 q 538 421 556 372 q 486 505 519 469 q 406 560 453 540 q 304 579 360 579 q 154 525 218 579 l 133 528 l 206 1051 l 596 1051 q 632 1107 613 1069 l 661 1097 l 610 926 l 253 926 l 218 686 z "},"6":{"ha":819,"x_min":76,"x_max":768,"o":"m 417 -14 q 274 13 338 -14 q 167 90 211 40 q 100 213 124 140 q 76 376 76 285 q 113 600 76 492 q 219 800 150 708 q 384 963 288 892 q 600 1079 481 1035 l 611 1044 q 489 956 549 1011 q 381 837 429 901 q 299 703 332 772 q 258 572 267 633 q 346 624 289 604 q 467 644 403 644 q 589 622 533 644 q 684 557 644 599 q 746 457 724 515 q 768 328 768 399 q 742 190 768 253 q 670 81 717 126 q 559 11 624 36 q 417 -14 494 -14 m 425 49 q 555 117 507 49 q 603 304 603 186 q 551 496 603 426 q 413 565 500 565 q 322 545 364 565 q 256 490 281 525 q 244 416 249 458 q 239 335 239 374 q 289 125 239 201 q 425 49 339 49 z "},"7":{"ha":685,"x_min":31,"x_max":671,"o":"m 660 1051 l 671 1035 q 597 860 628 936 q 539 719 565 785 q 490 591 513 654 q 441 453 467 528 q 385 286 415 379 q 314 67 354 193 q 225 -14 289 -14 q 176 5 193 -14 q 158 57 158 24 q 174 123 158 85 q 214 214 189 161 l 557 926 l 149 926 q 104 883 124 906 q 60 821 85 860 l 31 836 l 135 1100 l 167 1090 q 172 1051 167 1067 l 660 1051 z "},"8":{"ha":826,"x_min":81,"x_max":750,"o":"m 521 611 q 695 465 640 539 q 750 299 750 390 q 724 175 750 232 q 651 76 697 118 q 541 10 604 35 q 404 -14 478 -14 q 275 8 335 -14 q 172 67 215 29 q 105 158 129 106 q 81 271 81 210 q 133 427 81 358 q 296 553 186 496 q 158 678 201 615 q 114 818 114 742 q 137 925 114 876 q 200 1009 160 974 q 296 1064 240 1044 q 417 1083 351 1083 q 531 1066 479 1083 q 621 1017 583 1049 q 680 943 658 986 q 701 850 701 900 q 521 611 701 700 m 456 639 q 579 850 579 729 q 533 974 579 928 q 408 1021 486 1021 q 289 978 333 1021 q 244 865 244 936 q 294 742 244 796 q 456 639 344 689 m 354 522 q 253 417 288 482 q 219 272 219 353 q 274 108 219 168 q 425 49 329 49 q 570 99 517 49 q 624 238 624 150 q 560 392 624 325 q 354 522 497 458 z "},"9":{"ha":821,"x_min":51,"x_max":743,"o":"m 403 1079 q 545 1052 482 1079 q 652 975 608 1025 q 719 853 696 925 q 743 689 743 781 q 706 465 743 574 q 601 265 669 357 q 435 101 532 174 q 219 -14 339 29 l 208 21 q 331 109 271 54 q 439 228 390 164 q 520 363 488 293 q 561 493 553 432 q 474 441 531 461 q 353 421 417 421 q 231 444 286 421 q 135 508 175 467 q 74 608 96 550 q 51 738 51 667 q 77 876 51 813 q 149 984 103 939 q 260 1054 196 1029 q 403 1079 325 1079 m 394 1017 q 265 948 313 1017 q 217 761 217 879 q 268 569 217 639 q 407 500 319 500 q 497 520 456 500 q 564 575 539 540 q 576 649 571 607 q 581 731 581 692 q 531 940 581 864 q 394 1017 481 1017 z "}," ":{"ha":378,"x_min":0,"x_max":0,"o":""},"Á":{"ha":1033,"x_min":-33,"x_max":1046,"o":"m 640 393 l 304 393 l 229 183 q 214 118 214 140 q 250 62 214 81 q 357 32 286 43 l 357 0 l -33 0 l -33 32 q 56 51 22 40 q 110 81 89 63 q 143 124 131 99 q 168 186 156 150 l 438 940 l 401 1022 l 538 1097 l 904 117 q 922 78 913 93 q 947 53 932 63 q 986 39 963 43 q 1046 32 1010 35 l 1046 0 l 604 0 l 604 32 q 680 37 651 33 q 724 46 708 40 q 743 59 739 51 q 747 78 747 67 q 744 101 747 88 q 732 139 742 114 l 640 393 m 468 853 l 324 449 l 619 449 l 474 853 l 468 853 m 368 1163 l 568 1311 q 629 1333 599 1333 q 671 1317 653 1333 q 689 1274 689 1300 q 669 1230 689 1250 q 594 1194 649 1210 l 383 1133 l 368 1163 z "},"Ă":{"ha":1033,"x_min":-33,"x_max":1046,"o":"m 640 393 l 304 393 l 229 183 q 214 118 214 140 q 250 62 214 81 q 357 32 286 43 l 357 0 l -33 0 l -33 32 q 56 51 22 40 q 110 81 89 63 q 143 124 131 99 q 168 186 156 150 l 438 940 l 401 1022 l 538 1097 l 904 117 q 922 78 913 93 q 947 53 932 63 q 986 39 963 43 q 1046 32 1010 35 l 1046 0 l 604 0 l 604 32 q 680 37 651 33 q 724 46 708 40 q 743 59 739 51 q 747 78 747 67 q 744 101 747 88 q 732 139 742 114 l 640 393 m 468 853 l 324 449 l 619 449 l 474 853 l 468 853 m 331 1332 q 388 1274 347 1292 q 478 1256 429 1256 q 565 1274 524 1256 q 629 1332 606 1292 l 676 1332 q 634 1237 660 1272 q 580 1183 608 1201 q 523 1158 551 1164 q 472 1153 494 1153 q 410 1162 442 1153 q 353 1192 379 1171 q 307 1247 326 1213 q 282 1332 288 1282 l 331 1332 z "},"Â":{"ha":1033,"x_min":-33,"x_max":1046,"o":"m 640 393 l 304 393 l 229 183 q 214 118 214 140 q 250 62 214 81 q 357 32 286 43 l 357 0 l -33 0 l -33 32 q 56 51 22 40 q 110 81 89 63 q 143 124 131 99 q 168 186 156 150 l 438 940 l 401 1022 l 538 1097 l 904 117 q 922 78 913 93 q 947 53 932 63 q 986 39 963 43 q 1046 32 1010 35 l 1046 0 l 604 0 l 604 32 q 680 37 651 33 q 724 46 708 40 q 743 59 739 51 q 747 78 747 67 q 744 101 747 88 q 732 139 742 114 l 640 393 m 468 853 l 324 449 l 619 449 l 474 853 l 468 853 m 492 1333 q 532 1324 515 1333 q 568 1296 549 1315 l 697 1163 l 671 1139 l 492 1219 l 315 1139 l 288 1163 l 418 1296 q 451 1324 436 1314 q 492 1333 465 1333 z "},"Ä":{"ha":1033,"x_min":-33,"x_max":1046,"o":"m 640 393 l 304 393 l 229 183 q 214 118 214 140 q 250 62 214 81 q 357 32 286 43 l 357 0 l -33 0 l -33 32 q 56 51 22 40 q 110 81 89 63 q 143 124 131 99 q 168 186 156 150 l 438 940 l 401 1022 l 538 1097 l 904 117 q 922 78 913 93 q 947 53 932 63 q 986 39 963 43 q 1046 32 1010 35 l 1046 0 l 604 0 l 604 32 q 680 37 651 33 q 724 46 708 40 q 743 59 739 51 q 747 78 747 67 q 744 101 747 88 q 732 139 742 114 l 640 393 m 468 853 l 324 449 l 619 449 l 474 853 l 468 853 m 301 1229 q 322 1284 301 1263 q 378 1306 343 1306 q 434 1284 414 1306 q 454 1229 454 1263 q 434 1175 454 1197 q 378 1153 414 1153 q 322 1175 343 1153 q 301 1229 301 1197 m 561 1229 q 582 1284 561 1263 q 638 1306 603 1306 q 694 1284 674 1306 q 714 1229 714 1263 q 694 1175 714 1197 q 638 1153 674 1153 q 582 1175 603 1153 q 561 1229 561 1197 z "},"À":{"ha":1033,"x_min":-33,"x_max":1046,"o":"m 640 393 l 304 393 l 229 183 q 214 118 214 140 q 250 62 214 81 q 357 32 286 43 l 357 0 l -33 0 l -33 32 q 56 51 22 40 q 110 81 89 63 q 143 124 131 99 q 168 186 156 150 l 438 940 l 401 1022 l 538 1097 l 904 117 q 922 78 913 93 q 947 53 932 63 q 986 39 963 43 q 1046 32 1010 35 l 1046 0 l 604 0 l 604 32 q 680 37 651 33 q 724 46 708 40 q 743 59 739 51 q 747 78 747 67 q 744 101 747 88 q 732 139 742 114 l 640 393 m 468 853 l 324 449 l 619 449 l 474 853 l 468 853 m 593 1133 l 382 1194 q 308 1230 328 1210 q 288 1274 288 1250 q 306 1317 288 1300 q 347 1333 324 1333 q 408 1311 378 1333 l 608 1163 l 593 1133 z "},"Ā":{"ha":1033,"x_min":-33,"x_max":1046,"o":"m 640 393 l 304 393 l 229 183 q 214 118 214 140 q 250 62 214 81 q 357 32 286 43 l 357 0 l -33 0 l -33 32 q 56 51 22 40 q 110 81 89 63 q 143 124 131 99 q 168 186 156 150 l 438 940 l 401 1022 l 538 1097 l 904 117 q 922 78 913 93 q 947 53 932 63 q 986 39 963 43 q 1046 32 1010 35 l 1046 0 l 604 0 l 604 32 q 680 37 651 33 q 724 46 708 40 q 743 59 739 51 q 747 78 747 67 q 744 101 747 88 q 732 139 742 114 l 640 393 m 468 853 l 324 449 l 619 449 l 474 853 l 468 853 m 272 1218 l 272 1317 l 671 1317 l 671 1218 l 272 1218 z "},"Ą":{"ha":1033,"x_min":-33,"x_max":1046,"o":"m 953 -281 q 800 -356 888 -356 q 697 -323 735 -356 q 658 -233 658 -290 q 700 -118 658 -179 q 817 0 742 -57 l 604 0 l 604 32 q 680 37 651 33 q 724 46 708 40 q 743 59 739 51 q 747 78 747 67 q 744 101 747 88 q 732 139 742 114 l 640 393 l 304 393 l 229 183 q 214 118 214 140 q 250 62 214 81 q 357 32 286 43 l 357 0 l -33 0 l -33 32 q 56 51 22 40 q 110 81 89 63 q 143 124 131 99 q 168 186 156 150 l 438 940 l 401 1022 l 538 1097 l 904 117 q 922 78 913 93 q 947 53 932 63 q 986 39 963 43 q 1046 32 1010 35 l 1046 0 l 876 0 q 781 -200 781 -115 q 854 -279 781 -279 q 891 -272 874 -279 q 932 -250 908 -265 l 953 -281 m 468 853 l 324 449 l 619 449 l 474 853 l 468 853 z "},"Å":{"ha":1033,"x_min":-33,"x_max":1046,"o":"m 640 393 l 304 393 l 229 183 q 214 118 214 140 q 250 62 214 81 q 357 32 286 43 l 357 0 l -33 0 l -33 32 q 56 51 22 40 q 110 81 89 63 q 143 124 131 99 q 168 186 156 150 l 438 940 l 401 1022 l 538 1097 l 904 117 q 922 78 913 93 q 947 53 932 63 q 986 39 963 43 q 1046 32 1010 35 l 1046 0 l 604 0 l 604 32 q 680 37 651 33 q 724 46 708 40 q 743 59 739 51 q 747 78 747 67 q 744 101 747 88 q 732 139 742 114 l 640 393 m 468 853 l 324 449 l 619 449 l 474 853 l 468 853 m 479 1153 q 408 1181 435 1153 q 382 1250 382 1208 q 410 1319 382 1292 q 479 1347 438 1347 q 549 1319 521 1347 q 576 1250 576 1292 q 549 1181 576 1208 q 479 1153 521 1153 m 431 1250 q 444 1215 431 1228 q 479 1201 457 1201 q 515 1215 501 1201 q 528 1250 528 1228 q 515 1285 528 1272 q 479 1299 501 1299 q 444 1285 457 1299 q 431 1250 431 1272 z "},"Ǻ":{"ha":1033,"x_min":-33,"x_max":1046,"o":"m 325 1175 l 385 1219 q 381 1250 381 1233 q 408 1319 381 1292 q 478 1347 436 1347 q 535 1331 510 1347 q 559 1342 547 1338 q 586 1346 571 1346 q 627 1334 607 1346 q 647 1297 647 1322 q 633 1258 647 1276 q 572 1225 619 1239 q 539 1173 564 1193 q 478 1153 514 1153 q 419 1169 442 1153 l 340 1146 l 325 1175 m 478 1201 q 513 1215 500 1201 q 526 1250 526 1228 q 513 1285 526 1272 q 478 1299 500 1299 q 442 1285 456 1299 q 429 1250 429 1272 q 442 1215 429 1228 q 478 1201 456 1201 m 640 393 l 304 393 l 229 183 q 214 118 214 140 q 250 62 214 81 q 357 32 286 43 l 357 0 l -33 0 l -33 32 q 56 51 22 40 q 110 81 89 63 q 143 124 131 99 q 168 186 156 150 l 438 940 l 401 1022 l 538 1097 l 904 117 q 922 78 913 93 q 947 53 932 63 q 986 39 963 43 q 1046 32 1010 35 l 1046 0 l 604 0 l 604 32 q 680 37 651 33 q 724 46 708 40 q 743 59 739 51 q 747 78 747 67 q 744 101 747 88 q 732 139 742 114 l 640 393 m 468 853 l 324 449 l 619 449 l 474 853 l 468 853 z "},"Ã":{"ha":1033,"x_min":-33,"x_max":1046,"o":"m 640 393 l 304 393 l 229 183 q 214 118 214 140 q 250 62 214 81 q 357 32 286 43 l 357 0 l -33 0 l -33 32 q 56 51 22 40 q 110 81 89 63 q 143 124 131 99 q 168 186 156 150 l 438 940 l 401 1022 l 538 1097 l 904 117 q 922 78 913 93 q 947 53 932 63 q 986 39 963 43 q 1046 32 1010 35 l 1046 0 l 604 0 l 604 32 q 680 37 651 33 q 724 46 708 40 q 743 59 739 51 q 747 78 747 67 q 744 101 747 88 q 732 139 742 114 l 640 393 m 468 853 l 324 449 l 619 449 l 474 853 l 468 853 m 278 1171 q 310 1285 278 1242 q 394 1329 343 1329 q 444 1322 418 1329 q 498 1305 471 1314 q 551 1288 525 1296 q 601 1281 578 1281 q 671 1333 660 1281 l 704 1333 q 672 1215 704 1261 q 588 1169 639 1169 q 537 1178 563 1169 q 485 1197 511 1186 q 433 1215 458 1207 q 382 1224 407 1224 q 311 1171 318 1224 l 278 1171 z "},"B":{"ha":971,"x_min":68,"x_max":896,"o":"m 479 1069 q 638 1056 575 1069 q 744 1013 701 1042 q 821 925 793 978 q 849 810 849 872 q 790 657 849 718 q 619 572 731 596 l 619 567 q 733 536 682 560 q 820 475 783 513 q 876 389 857 438 q 896 283 896 340 q 872 164 896 219 q 803 72 847 108 q 685 17 754 33 q 503 0 617 0 l 68 0 l 68 32 l 186 58 l 186 1011 l 68 1038 l 68 1069 l 479 1069 m 332 596 l 418 596 q 485 597 458 596 q 535 600 511 597 q 652 663 611 608 q 693 814 693 718 q 681 897 693 863 q 642 958 669 931 q 569 1002 611 990 q 451 1014 528 1014 l 332 1014 l 332 596 m 332 540 l 332 136 q 358 70 332 88 q 454 53 383 53 q 667 111 599 53 q 735 296 735 169 q 666 481 735 422 q 450 540 597 540 l 332 540 z "},"C":{"ha":1075,"x_min":78,"x_max":983,"o":"m 78 528 q 115 752 78 650 q 220 928 153 854 q 381 1042 288 1001 q 586 1083 475 1083 q 745 1061 668 1083 q 885 999 822 1039 l 890 999 l 958 1069 l 983 1069 l 983 750 l 942 750 q 915 818 929 788 q 885 875 900 849 q 769 988 836 954 q 610 1022 703 1022 q 344 897 436 1022 q 253 538 253 771 q 346 176 253 304 q 611 49 439 49 q 761 81 694 49 q 872 179 828 114 q 946 364 925 253 l 983 364 l 983 0 l 950 0 l 886 92 q 739 11 811 36 q 581 -14 667 -14 q 376 26 468 -14 q 217 137 283 65 q 115 308 151 208 q 78 528 78 407 z "},"Æ":{"ha":1429,"x_min":-31,"x_max":1354,"o":"m -31 32 q 62 51 25 40 q 124 80 99 63 q 167 123 149 97 q 204 186 185 149 l 640 1014 l 522 1038 l 522 1069 l 1308 1069 l 1332 764 l 1299 764 q 1258 889 1282 824 q 1199 1014 1233 954 l 800 1014 l 800 565 l 1049 565 q 1081 649 1068 607 q 1100 732 1093 690 l 1133 732 l 1133 343 l 1100 343 q 1049 510 1088 429 l 800 510 l 800 56 l 1192 56 q 1259 190 1233 124 q 1308 325 1285 257 l 1354 325 l 1303 0 l 536 0 l 536 32 l 654 58 l 654 406 l 379 406 l 264 183 q 235 100 235 129 q 264 57 235 71 q 358 32 293 43 l 358 0 l -31 0 l -31 32 m 653 461 l 653 926 l 647 926 l 408 461 l 653 461 z "},"Ć":{"ha":1075,"x_min":78,"x_max":983,"o":"m 78 528 q 115 752 78 650 q 220 928 153 854 q 381 1042 288 1001 q 586 1083 475 1083 q 745 1061 668 1083 q 885 999 822 1039 l 890 999 l 958 1069 l 983 1069 l 983 750 l 942 750 q 915 818 929 788 q 885 875 900 849 q 769 988 836 954 q 610 1022 703 1022 q 344 897 436 1022 q 253 538 253 771 q 346 176 253 304 q 611 49 439 49 q 761 81 694 49 q 872 179 828 114 q 946 364 925 253 l 983 364 l 983 0 l 950 0 l 886 92 q 739 11 811 36 q 581 -14 667 -14 q 376 26 468 -14 q 217 137 283 65 q 115 308 151 208 q 78 528 78 407 m 444 1163 l 644 1311 q 706 1333 675 1333 q 747 1317 729 1333 q 765 1274 765 1300 q 745 1230 765 1250 q 671 1194 725 1210 l 460 1133 l 444 1163 z "},"Č":{"ha":1075,"x_min":78,"x_max":983,"o":"m 78 528 q 115 752 78 650 q 220 928 153 854 q 381 1042 288 1001 q 586 1083 475 1083 q 745 1061 668 1083 q 885 999 822 1039 l 890 999 l 958 1069 l 983 1069 l 983 750 l 942 750 q 915 818 929 788 q 885 875 900 849 q 769 988 836 954 q 610 1022 703 1022 q 344 897 436 1022 q 253 538 253 771 q 346 176 253 304 q 611 49 439 49 q 761 81 694 49 q 872 179 828 114 q 946 364 925 253 l 983 364 l 983 0 l 950 0 l 886 92 q 739 11 811 36 q 581 -14 667 -14 q 376 26 468 -14 q 217 137 283 65 q 115 308 151 208 q 78 528 78 407 m 613 1153 q 572 1163 586 1153 q 539 1190 557 1172 l 408 1324 l 436 1347 l 613 1267 l 792 1347 l 818 1324 l 689 1190 q 653 1162 669 1171 q 613 1153 636 1153 z "},"Ç":{"ha":1075,"x_min":78,"x_max":983,"o":"m 468 -282 q 508 -301 492 -296 q 546 -306 525 -306 q 612 -285 588 -306 q 636 -233 636 -265 q 569 -174 636 -174 q 499 -185 535 -174 l 486 -172 l 554 -12 q 360 33 447 -8 q 210 146 272 75 q 113 314 147 217 q 78 528 78 411 q 115 752 78 650 q 220 928 153 854 q 381 1042 288 1001 q 586 1083 475 1083 q 745 1061 668 1083 q 885 999 822 1039 l 890 999 l 958 1069 l 983 1069 l 983 750 l 942 750 q 915 818 929 788 q 885 875 900 849 q 769 988 836 954 q 610 1022 703 1022 q 344 897 436 1022 q 253 538 253 771 q 346 176 253 304 q 611 49 439 49 q 761 81 694 49 q 872 179 828 114 q 946 364 925 253 l 983 364 l 983 0 l 950 0 l 886 92 q 750 15 817 40 q 606 -12 683 -10 l 581 -81 q 698 -119 656 -81 q 740 -217 740 -158 q 691 -317 740 -278 q 557 -357 642 -357 q 496 -348 525 -357 q 449 -324 467 -339 l 468 -282 z "},"Ĉ":{"ha":1075,"x_min":78,"x_max":983,"o":"m 78 528 q 115 752 78 650 q 220 928 153 854 q 381 1042 288 1001 q 586 1083 475 1083 q 745 1061 668 1083 q 885 999 822 1039 l 890 999 l 958 1069 l 983 1069 l 983 750 l 942 750 q 915 818 929 788 q 885 875 900 849 q 769 988 836 954 q 610 1022 703 1022 q 344 897 436 1022 q 253 538 253 771 q 346 176 253 304 q 611 49 439 49 q 761 81 694 49 q 872 179 828 114 q 946 364 925 253 l 983 364 l 983 0 l 950 0 l 886 92 q 739 11 811 36 q 581 -14 667 -14 q 376 26 468 -14 q 217 137 283 65 q 115 308 151 208 q 78 528 78 407 m 601 1333 q 642 1324 625 1333 q 678 1296 658 1315 l 807 1163 l 781 1139 l 601 1219 l 425 1139 l 397 1163 l 528 1296 q 560 1324 546 1314 q 601 1333 575 1333 z "},"Ċ":{"ha":1075,"x_min":78,"x_max":983,"o":"m 78 528 q 115 752 78 650 q 220 928 153 854 q 381 1042 288 1001 q 586 1083 475 1083 q 745 1061 668 1083 q 885 999 822 1039 l 890 999 l 958 1069 l 983 1069 l 983 750 l 942 750 q 915 818 929 788 q 885 875 900 849 q 769 988 836 954 q 610 1022 703 1022 q 344 897 436 1022 q 253 538 253 771 q 346 176 253 304 q 611 49 439 49 q 761 81 694 49 q 872 179 828 114 q 946 364 925 253 l 983 364 l 983 0 l 950 0 l 886 92 q 739 11 811 36 q 581 -14 667 -14 q 376 26 468 -14 q 217 137 283 65 q 115 308 151 208 q 78 528 78 407 m 524 1242 q 548 1306 524 1281 q 613 1332 572 1332 q 678 1306 654 1332 q 703 1242 703 1281 q 678 1179 703 1206 q 613 1153 654 1153 q 548 1179 572 1153 q 524 1242 524 1206 z "},"D":{"ha":1125,"x_min":68,"x_max":1046,"o":"m 68 0 l 68 32 l 186 58 l 186 1011 l 68 1038 l 68 1069 l 414 1069 q 562 1064 497 1069 q 678 1047 626 1058 q 772 1015 731 1035 q 850 968 814 996 q 995 783 944 896 q 1046 532 1046 669 q 992 272 1046 390 q 840 82 938 153 q 778 44 810 60 q 709 19 746 29 q 628 5 672 10 q 533 0 585 0 l 68 0 m 476 53 q 644 78 579 53 q 758 165 708 104 q 843 333 814 235 q 872 549 872 431 q 754 913 872 788 q 630 991 701 968 q 442 1014 558 1014 l 332 1014 l 332 136 q 363 70 332 88 q 476 53 394 53 z "},"Ď":{"ha":1125,"x_min":68,"x_max":1046,"o":"m 68 0 l 68 32 l 186 58 l 186 1011 l 68 1038 l 68 1069 l 414 1069 q 562 1064 497 1069 q 678 1047 626 1058 q 772 1015 731 1035 q 850 968 814 996 q 995 783 944 896 q 1046 532 1046 669 q 992 272 1046 390 q 840 82 938 153 q 778 44 810 60 q 709 19 746 29 q 628 5 672 10 q 533 0 585 0 l 68 0 m 476 53 q 644 78 579 53 q 758 165 708 104 q 843 333 814 235 q 872 549 872 431 q 754 913 872 788 q 630 991 701 968 q 442 1014 558 1014 l 332 1014 l 332 136 q 363 70 332 88 q 476 53 394 53 m 533 1139 q 492 1149 507 1139 q 460 1176 478 1158 l 329 1310 l 357 1333 l 533 1253 l 713 1333 l 739 1310 l 610 1176 q 574 1148 590 1157 q 533 1139 557 1139 z "},"Đ":{"ha":1126,"x_min":69,"x_max":1047,"o":"m 69 0 l 69 32 l 188 58 l 188 506 l 78 506 l 78 596 l 188 596 l 188 1011 l 69 1038 l 69 1069 l 415 1069 q 563 1064 499 1069 q 680 1047 628 1058 q 774 1015 732 1035 q 851 968 815 996 q 997 783 946 896 q 1047 532 1047 669 q 993 272 1047 390 q 842 82 939 153 q 779 44 811 60 q 710 19 747 29 q 630 5 674 10 q 535 0 586 0 l 69 0 m 478 53 q 645 78 581 53 q 760 165 710 104 q 844 333 815 235 q 874 549 874 431 q 756 913 874 788 q 631 991 703 968 q 443 1014 560 1014 l 333 1014 l 333 596 l 504 596 l 504 506 l 333 506 l 333 136 q 365 70 333 88 q 478 53 396 53 z "},"Ḍ":{"ha":1125,"x_min":68,"x_max":1046,"o":"m 68 0 l 68 32 l 186 58 l 186 1011 l 68 1038 l 68 1069 l 414 1069 q 562 1064 497 1069 q 678 1047 626 1058 q 772 1015 731 1035 q 850 968 814 996 q 995 783 944 896 q 1046 532 1046 669 q 992 272 1046 390 q 840 82 938 153 q 778 44 810 60 q 709 19 746 29 q 628 5 672 10 q 533 0 585 0 l 68 0 m 476 53 q 644 78 579 53 q 758 165 708 104 q 843 333 814 235 q 872 549 872 431 q 754 913 872 788 q 630 991 701 968 q 442 1014 558 1014 l 332 1014 l 332 136 q 363 70 332 88 q 476 53 394 53 m 465 -267 q 490 -202 465 -228 q 554 -176 514 -176 q 620 -202 596 -176 q 644 -267 644 -228 q 620 -329 644 -303 q 554 -356 596 -356 q 490 -329 514 -356 q 465 -267 465 -303 z "},"E":{"ha":961,"x_min":68,"x_max":886,"o":"m 332 1014 l 332 592 l 581 592 q 613 675 600 633 q 632 758 625 717 l 665 758 l 665 369 l 632 369 q 581 536 619 456 l 332 536 l 332 56 l 724 56 q 791 190 765 124 q 840 325 817 257 l 886 325 l 835 0 l 68 0 l 68 32 l 186 58 l 186 1011 l 68 1038 l 68 1069 l 840 1069 l 864 764 l 831 764 q 790 889 814 824 q 731 1014 765 954 l 332 1014 z "},"É":{"ha":961,"x_min":68,"x_max":886,"o":"m 332 1014 l 332 592 l 581 592 q 613 675 600 633 q 632 758 625 717 l 665 758 l 665 369 l 632 369 q 581 536 619 456 l 332 536 l 332 56 l 724 56 q 791 190 765 124 q 840 325 817 257 l 886 325 l 835 0 l 68 0 l 68 32 l 186 58 l 186 1011 l 68 1038 l 68 1069 l 840 1069 l 864 764 l 831 764 q 790 889 814 824 q 731 1014 765 954 l 332 1014 m 353 1163 l 553 1311 q 614 1333 583 1333 q 656 1317 638 1333 q 674 1274 674 1300 q 653 1230 674 1250 q 579 1194 633 1210 l 368 1133 l 353 1163 z "},"Ĕ":{"ha":961,"x_min":68,"x_max":886,"o":"m 332 1014 l 332 592 l 581 592 q 613 675 600 633 q 632 758 625 717 l 665 758 l 665 369 l 632 369 q 581 536 619 456 l 332 536 l 332 56 l 724 56 q 791 190 765 124 q 840 325 817 257 l 886 325 l 835 0 l 68 0 l 68 32 l 186 58 l 186 1011 l 68 1038 l 68 1069 l 840 1069 l 864 764 l 831 764 q 790 889 814 824 q 731 1014 765 954 l 332 1014 m 353 1332 q 410 1274 369 1292 q 500 1256 451 1256 q 587 1274 546 1256 q 651 1332 628 1292 l 699 1332 q 656 1237 682 1272 q 602 1183 631 1201 q 545 1158 574 1164 q 494 1153 517 1153 q 433 1162 464 1153 q 375 1192 401 1171 q 329 1247 349 1213 q 304 1332 310 1282 l 353 1332 z "},"Ě":{"ha":961,"x_min":68,"x_max":886,"o":"m 332 1014 l 332 592 l 581 592 q 613 675 600 633 q 632 758 625 717 l 665 758 l 665 369 l 632 369 q 581 536 619 456 l 332 536 l 332 56 l 724 56 q 791 190 765 124 q 840 325 817 257 l 886 325 l 835 0 l 68 0 l 68 32 l 186 58 l 186 1011 l 68 1038 l 68 1069 l 840 1069 l 864 764 l 831 764 q 790 889 814 824 q 731 1014 765 954 l 332 1014 m 489 1139 q 448 1149 463 1139 q 415 1176 433 1158 l 285 1310 l 313 1333 l 489 1253 l 668 1333 l 694 1310 l 565 1176 q 529 1148 546 1157 q 489 1139 513 1139 z "},"Ê":{"ha":961,"x_min":68,"x_max":886,"o":"m 332 1014 l 332 592 l 581 592 q 613 675 600 633 q 632 758 625 717 l 665 758 l 665 369 l 632 369 q 581 536 619 456 l 332 536 l 332 56 l 724 56 q 791 190 765 124 q 840 325 817 257 l 886 325 l 835 0 l 68 0 l 68 32 l 186 58 l 186 1011 l 68 1038 l 68 1069 l 840 1069 l 864 764 l 831 764 q 790 889 814 824 q 731 1014 765 954 l 332 1014 m 506 1333 q 546 1324 529 1333 q 582 1296 563 1315 l 711 1163 l 685 1139 l 506 1219 l 329 1139 l 301 1163 l 432 1296 q 465 1324 450 1314 q 506 1333 479 1333 z "},"Ë":{"ha":961,"x_min":68,"x_max":886,"o":"m 332 1014 l 332 592 l 581 592 q 613 675 600 633 q 632 758 625 717 l 665 758 l 665 369 l 632 369 q 581 536 619 456 l 332 536 l 332 56 l 724 56 q 791 190 765 124 q 840 325 817 257 l 886 325 l 835 0 l 68 0 l 68 32 l 186 58 l 186 1011 l 68 1038 l 68 1069 l 840 1069 l 864 764 l 831 764 q 790 889 814 824 q 731 1014 765 954 l 332 1014 m 289 1229 q 310 1284 289 1263 q 365 1306 331 1306 q 422 1284 401 1306 q 442 1229 442 1263 q 422 1175 442 1197 q 365 1153 401 1153 q 310 1175 331 1153 q 289 1229 289 1197 m 549 1229 q 569 1284 549 1263 q 625 1306 590 1306 q 681 1284 661 1306 q 701 1229 701 1263 q 681 1175 701 1197 q 625 1153 661 1153 q 569 1175 590 1153 q 549 1229 549 1197 z "},"Ė":{"ha":961,"x_min":68,"x_max":886,"o":"m 332 1014 l 332 592 l 581 592 q 613 675 600 633 q 632 758 625 717 l 665 758 l 665 369 l 632 369 q 581 536 619 456 l 332 536 l 332 56 l 724 56 q 791 190 765 124 q 840 325 817 257 l 886 325 l 835 0 l 68 0 l 68 32 l 186 58 l 186 1011 l 68 1038 l 68 1069 l 840 1069 l 864 764 l 831 764 q 790 889 814 824 q 731 1014 765 954 l 332 1014 m 421 1242 q 445 1306 421 1281 q 510 1332 469 1332 q 576 1306 551 1332 q 600 1242 600 1281 q 576 1179 600 1206 q 510 1153 551 1153 q 445 1179 469 1153 q 421 1242 421 1206 z "},"Ẹ":{"ha":961,"x_min":68,"x_max":886,"o":"m 332 1014 l 332 592 l 581 592 q 613 675 600 633 q 632 758 625 717 l 665 758 l 665 369 l 632 369 q 581 536 619 456 l 332 536 l 332 56 l 724 56 q 791 190 765 124 q 840 325 817 257 l 886 325 l 835 0 l 68 0 l 68 32 l 186 58 l 186 1011 l 68 1038 l 68 1069 l 840 1069 l 864 764 l 831 764 q 790 889 814 824 q 731 1014 765 954 l 332 1014 m 408 -267 q 433 -202 408 -228 q 497 -176 457 -176 q 563 -202 539 -176 q 588 -267 588 -228 q 563 -329 588 -303 q 497 -356 539 -356 q 433 -329 457 -356 q 408 -267 408 -303 z "},"È":{"ha":961,"x_min":68,"x_max":886,"o":"m 332 1014 l 332 592 l 581 592 q 613 675 600 633 q 632 758 625 717 l 665 758 l 665 369 l 632 369 q 581 536 619 456 l 332 536 l 332 56 l 724 56 q 791 190 765 124 q 840 325 817 257 l 886 325 l 835 0 l 68 0 l 68 32 l 186 58 l 186 1011 l 68 1038 l 68 1069 l 840 1069 l 864 764 l 831 764 q 790 889 814 824 q 731 1014 765 954 l 332 1014 m 613 1133 l 401 1194 q 327 1230 347 1210 q 307 1274 307 1250 q 325 1317 307 1300 q 367 1333 343 1333 q 428 1311 397 1333 l 628 1163 l 613 1133 z "},"Ē":{"ha":961,"x_min":68,"x_max":886,"o":"m 332 1014 l 332 592 l 581 592 q 613 675 600 633 q 632 758 625 717 l 665 758 l 665 369 l 632 369 q 581 536 619 456 l 332 536 l 332 56 l 724 56 q 791 190 765 124 q 840 325 817 257 l 886 325 l 835 0 l 68 0 l 68 32 l 186 58 l 186 1011 l 68 1038 l 68 1069 l 840 1069 l 864 764 l 831 764 q 790 889 814 824 q 731 1014 765 954 l 332 1014 m 297 1218 l 297 1317 l 696 1317 l 696 1218 l 297 1218 z "},"Ŋ":{"ha":1149,"x_min":63,"x_max":1096,"o":"m 971 167 q 969 26 971 81 q 961 -67 967 -29 q 947 -130 956 -104 q 924 -182 938 -156 q 798 -315 875 -269 q 635 -361 721 -361 q 513 -329 557 -361 q 468 -240 468 -297 q 490 -174 468 -199 q 550 -150 513 -150 q 597 -166 579 -150 q 626 -214 615 -182 q 663 -272 642 -254 q 711 -289 683 -289 q 792 -234 760 -289 q 825 -67 825 -179 l 825 115 l 243 926 l 243 58 l 367 32 l 367 0 l 63 0 l 63 32 l 188 58 l 188 1011 l 63 1038 l 63 1069 l 343 1069 l 915 283 l 915 1011 l 792 1038 l 792 1069 l 1096 1069 l 1096 1038 l 971 1011 l 971 167 z "},"Ę":{"ha":961,"x_min":68,"x_max":886,"o":"m 829 -281 q 676 -356 764 -356 q 573 -323 611 -356 q 535 -233 535 -290 q 576 -118 535 -179 q 693 0 618 -57 l 68 0 l 68 32 l 186 58 l 186 1011 l 68 1038 l 68 1069 l 840 1069 l 864 764 l 831 764 q 790 889 814 824 q 731 1014 765 954 l 332 1014 l 332 592 l 581 592 q 613 675 600 633 q 632 758 625 717 l 665 758 l 665 369 l 632 369 q 581 536 619 456 l 332 536 l 332 56 l 724 56 q 791 190 765 124 q 840 325 817 257 l 886 325 l 835 0 l 753 0 q 657 -200 657 -115 q 731 -279 657 -279 q 767 -272 750 -279 q 808 -250 785 -265 l 829 -281 z "},"Ð":{"ha":1126,"x_min":69,"x_max":1047,"o":"m 69 0 l 69 32 l 188 58 l 188 506 l 78 506 l 78 596 l 188 596 l 188 1011 l 69 1038 l 69 1069 l 415 1069 q 563 1064 499 1069 q 680 1047 628 1058 q 774 1015 732 1035 q 851 968 815 996 q 997 783 946 896 q 1047 532 1047 669 q 993 272 1047 390 q 842 82 939 153 q 779 44 811 60 q 710 19 747 29 q 630 5 674 10 q 535 0 586 0 l 69 0 m 478 53 q 645 78 581 53 q 760 165 710 104 q 844 333 815 235 q 874 549 874 431 q 756 913 874 788 q 631 991 703 968 q 443 1014 560 1014 l 333 1014 l 333 596 l 504 596 l 504 506 l 333 506 l 333 136 q 365 70 333 88 q 478 53 396 53 z "},"Ẽ":{"ha":961,"x_min":68,"x_max":886,"o":"m 332 1014 l 332 592 l 581 592 q 613 675 600 633 q 632 758 625 717 l 665 758 l 665 369 l 632 369 q 581 536 619 456 l 332 536 l 332 56 l 724 56 q 791 190 765 124 q 840 325 817 257 l 886 325 l 835 0 l 68 0 l 68 32 l 186 58 l 186 1011 l 68 1038 l 68 1069 l 840 1069 l 864 764 l 831 764 q 790 889 814 824 q 731 1014 765 954 l 332 1014 m 293 1171 q 326 1285 293 1242 q 410 1329 358 1329 q 460 1322 433 1329 q 513 1305 486 1314 q 567 1288 540 1296 q 617 1281 593 1281 q 686 1333 675 1281 l 719 1333 q 687 1215 719 1261 q 603 1169 654 1169 q 552 1178 578 1169 q 500 1197 526 1186 q 448 1215 474 1207 q 397 1224 422 1224 q 326 1171 333 1224 l 293 1171 z "},"€":{"ha":888,"x_min":49,"x_max":804,"o":"m 344 417 q 528 43 363 43 q 599 75 572 43 q 638 168 625 107 q 728 263 658 263 q 804 176 804 263 q 785 101 804 136 q 731 41 765 67 q 651 1 697 15 q 553 -14 606 -14 q 417 17 479 -14 q 306 105 354 49 q 224 241 257 161 q 179 417 192 321 l 49 417 l 63 478 l 174 478 q 172 503 172 490 q 172 531 172 517 q 172 558 172 544 q 174 585 172 571 l 76 585 l 90 646 l 179 646 q 225 824 192 743 q 308 962 258 904 q 422 1051 358 1019 q 560 1083 486 1083 q 656 1069 611 1083 q 733 1031 700 1056 q 785 974 767 1007 q 804 904 804 942 q 784 843 804 865 q 729 821 764 821 q 644 915 661 821 q 607 1001 633 975 q 535 1026 581 1026 q 344 646 365 1026 l 689 646 l 675 585 l 342 585 l 342 478 l 661 478 l 647 417 l 344 417 z "},"F":{"ha":903,"x_min":68,"x_max":864,"o":"m 332 1014 l 332 592 l 581 592 q 613 675 600 633 q 632 758 625 717 l 665 758 l 665 369 l 632 369 q 581 536 619 456 l 332 536 l 332 58 l 490 32 l 490 0 l 68 0 l 68 32 l 186 58 l 186 1011 l 68 1038 l 68 1069 l 840 1069 l 864 764 l 831 764 q 790 889 814 824 q 731 1014 765 954 l 332 1014 z "},"G":{"ha":1122,"x_min":76,"x_max":1083,"o":"m 960 113 q 888 62 931 85 q 795 22 846 39 q 690 -4 744 6 q 581 -14 635 -14 q 377 26 469 -14 q 218 136 285 65 q 114 306 151 207 q 76 522 76 404 q 115 746 76 643 q 224 924 154 849 q 390 1041 294 999 q 597 1083 485 1083 q 749 1061 679 1083 q 864 999 818 1039 l 869 999 l 944 1069 l 975 1069 l 975 750 l 943 750 q 876 877 910 825 q 804 961 843 929 q 720 1007 765 993 q 617 1021 675 1021 q 345 895 436 1021 q 254 522 254 769 q 604 50 254 50 q 724 71 672 50 q 803 135 776 92 q 812 158 810 146 q 814 207 814 171 l 814 478 l 689 504 l 689 536 l 1083 536 l 1083 504 l 960 478 l 960 113 z "},"Ğ":{"ha":1122,"x_min":76,"x_max":1083,"o":"m 960 113 q 888 62 931 85 q 795 22 846 39 q 690 -4 744 6 q 581 -14 635 -14 q 377 26 469 -14 q 218 136 285 65 q 114 306 151 207 q 76 522 76 404 q 115 746 76 643 q 224 924 154 849 q 390 1041 294 999 q 597 1083 485 1083 q 749 1061 679 1083 q 864 999 818 1039 l 869 999 l 944 1069 l 975 1069 l 975 750 l 943 750 q 876 877 910 825 q 804 961 843 929 q 720 1007 765 993 q 617 1021 675 1021 q 345 895 436 1021 q 254 522 254 769 q 604 50 254 50 q 724 71 672 50 q 803 135 776 92 q 812 158 810 146 q 814 207 814 171 l 814 478 l 689 504 l 689 536 l 1083 536 l 1083 504 l 960 478 l 960 113 m 465 1332 q 523 1274 482 1292 q 613 1256 564 1256 q 699 1274 658 1256 q 764 1332 740 1292 l 811 1332 q 769 1237 794 1272 q 715 1183 743 1201 q 658 1158 686 1164 q 607 1153 629 1153 q 545 1162 576 1153 q 488 1192 514 1171 q 442 1247 461 1213 q 417 1332 422 1282 l 465 1332 z "},"Ĝ":{"ha":1122,"x_min":76,"x_max":1083,"o":"m 960 113 q 888 62 931 85 q 795 22 846 39 q 690 -4 744 6 q 581 -14 635 -14 q 377 26 469 -14 q 218 136 285 65 q 114 306 151 207 q 76 522 76 404 q 115 746 76 643 q 224 924 154 849 q 390 1041 294 999 q 597 1083 485 1083 q 749 1061 679 1083 q 864 999 818 1039 l 869 999 l 944 1069 l 975 1069 l 975 750 l 943 750 q 876 877 910 825 q 804 961 843 929 q 720 1007 765 993 q 617 1021 675 1021 q 345 895 436 1021 q 254 522 254 769 q 604 50 254 50 q 724 71 672 50 q 803 135 776 92 q 812 158 810 146 q 814 207 814 171 l 814 478 l 689 504 l 689 536 l 1083 536 l 1083 504 l 960 478 l 960 113 m 607 1333 q 647 1324 631 1333 q 683 1296 664 1315 l 813 1163 l 786 1139 l 607 1219 l 431 1139 l 403 1163 l 533 1296 q 566 1324 551 1314 q 607 1333 581 1333 z "},"Ģ":{"ha":1122,"x_min":76,"x_max":1083,"o":"m 960 113 q 888 62 931 85 q 795 22 846 39 q 690 -4 744 6 q 581 -14 635 -14 q 377 26 469 -14 q 218 136 285 65 q 114 306 151 207 q 76 522 76 404 q 115 746 76 643 q 224 924 154 849 q 390 1041 294 999 q 597 1083 485 1083 q 749 1061 679 1083 q 864 999 818 1039 l 869 999 l 944 1069 l 975 1069 l 975 750 l 943 750 q 876 877 910 825 q 804 961 843 929 q 720 1007 765 993 q 617 1021 675 1021 q 345 895 436 1021 q 254 522 254 769 q 604 50 254 50 q 724 71 672 50 q 803 135 776 92 q 812 158 810 146 q 814 207 814 171 l 814 478 l 689 504 l 689 536 l 1083 536 l 1083 504 l 960 478 l 960 113 m 524 -308 q 567 -270 550 -290 q 583 -236 583 -250 q 573 -208 583 -218 q 549 -190 563 -199 q 526 -169 536 -181 q 515 -132 515 -157 q 538 -81 515 -101 q 593 -61 560 -61 q 647 -88 626 -61 q 668 -153 668 -115 q 546 -342 668 -269 l 524 -308 z "},"Ġ":{"ha":1122,"x_min":76,"x_max":1083,"o":"m 960 113 q 888 62 931 85 q 795 22 846 39 q 690 -4 744 6 q 581 -14 635 -14 q 377 26 469 -14 q 218 136 285 65 q 114 306 151 207 q 76 522 76 404 q 115 746 76 643 q 224 924 154 849 q 390 1041 294 999 q 597 1083 485 1083 q 749 1061 679 1083 q 864 999 818 1039 l 869 999 l 944 1069 l 975 1069 l 975 750 l 943 750 q 876 877 910 825 q 804 961 843 929 q 720 1007 765 993 q 617 1021 675 1021 q 345 895 436 1021 q 254 522 254 769 q 604 50 254 50 q 724 71 672 50 q 803 135 776 92 q 812 158 810 146 q 814 207 814 171 l 814 478 l 689 504 l 689 536 l 1083 536 l 1083 504 l 960 478 l 960 113 m 528 1242 q 552 1306 528 1281 q 617 1332 576 1332 q 683 1306 658 1332 q 707 1242 707 1281 q 683 1179 707 1206 q 617 1153 658 1153 q 552 1179 576 1153 q 528 1242 528 1206 z "},"H":{"ha":1190,"x_min":63,"x_max":1128,"o":"m 858 535 l 333 535 l 333 58 l 457 32 l 457 0 l 63 0 l 63 32 l 188 58 l 188 1011 l 63 1038 l 63 1069 l 457 1069 l 457 1038 l 333 1011 l 333 590 l 858 590 l 858 1011 l 733 1038 l 733 1069 l 1128 1069 l 1128 1035 l 1004 1011 l 1004 58 l 1128 29 l 1128 0 l 733 0 l 733 32 l 858 58 l 858 535 z "},"Ħ":{"ha":1192,"x_min":63,"x_max":1129,"o":"m 188 760 l 76 760 l 76 850 l 188 850 l 188 1011 l 63 1038 l 63 1069 l 457 1069 l 457 1038 l 333 1011 l 333 850 l 858 850 l 858 1011 l 733 1038 l 733 1069 l 1128 1069 l 1128 1035 l 1004 1011 l 1004 850 l 1129 850 l 1129 760 l 1004 760 l 1004 58 l 1128 29 l 1128 0 l 733 0 l 733 32 l 858 58 l 858 535 l 333 535 l 333 58 l 457 32 l 457 0 l 63 0 l 63 32 l 188 58 l 188 760 m 333 590 l 858 590 l 858 760 l 333 760 l 333 590 z "},"Ĥ":{"ha":1190,"x_min":63,"x_max":1128,"o":"m 858 535 l 333 535 l 333 58 l 457 32 l 457 0 l 63 0 l 63 32 l 188 58 l 188 1011 l 63 1038 l 63 1069 l 457 1069 l 457 1038 l 333 1011 l 333 590 l 858 590 l 858 1011 l 733 1038 l 733 1069 l 1128 1069 l 1128 1035 l 1004 1011 l 1004 58 l 1128 29 l 1128 0 l 733 0 l 733 32 l 858 58 l 858 535 m 600 1333 q 640 1324 624 1333 q 676 1296 657 1315 l 806 1163 l 779 1139 l 600 1219 l 424 1139 l 396 1163 l 526 1296 q 559 1324 544 1314 q 600 1333 574 1333 z "},"Ḥ":{"ha":1190,"x_min":63,"x_max":1128,"o":"m 858 535 l 333 535 l 333 58 l 457 32 l 457 0 l 63 0 l 63 32 l 188 58 l 188 1011 l 63 1038 l 63 1069 l 457 1069 l 457 1038 l 333 1011 l 333 590 l 858 590 l 858 1011 l 733 1038 l 733 1069 l 1128 1069 l 1128 1035 l 1004 1011 l 1004 58 l 1128 29 l 1128 0 l 733 0 l 733 32 l 858 58 l 858 535 m 511 -267 q 535 -202 511 -228 q 600 -176 560 -176 q 666 -202 642 -176 q 690 -267 690 -228 q 666 -329 690 -303 q 600 -356 642 -356 q 535 -329 560 -356 q 511 -267 511 -303 z "},"I":{"ha":519,"x_min":63,"x_max":457,"o":"m 188 1011 l 63 1038 l 63 1069 l 457 1069 l 457 1038 l 333 1011 l 333 58 l 457 32 l 457 0 l 63 0 l 63 32 l 188 58 l 188 1011 z "},"Ĳ":{"ha":1022,"x_min":63,"x_max":967,"o":"m 188 1011 l 63 1038 l 63 1069 l 457 1069 l 457 1038 l 333 1011 l 333 58 l 457 32 l 457 0 l 63 0 l 63 32 l 188 58 l 188 1011 m 843 215 q 842 49 843 113 q 835 -58 840 -15 q 820 -127 829 -100 q 796 -182 811 -154 q 670 -315 747 -269 q 507 -361 593 -361 q 385 -329 429 -361 q 340 -240 340 -297 q 363 -174 340 -199 q 422 -150 385 -150 q 469 -166 451 -150 q 499 -214 488 -182 q 535 -272 514 -254 q 583 -289 556 -289 q 665 -234 632 -289 q 697 -67 697 -179 l 697 1011 l 572 1038 l 572 1069 l 967 1069 l 967 1038 l 843 1011 l 843 215 z "},"Í":{"ha":519,"x_min":63,"x_max":457,"o":"m 188 1011 l 63 1038 l 63 1069 l 457 1069 l 457 1038 l 333 1011 l 333 58 l 457 32 l 457 0 l 63 0 l 63 32 l 188 58 l 188 1011 m 103 1176 l 303 1325 q 364 1347 333 1347 q 406 1331 388 1347 q 424 1288 424 1314 q 403 1244 424 1264 q 329 1208 383 1224 l 118 1147 l 103 1176 z "},"Ĭ":{"ha":519,"x_min":63,"x_max":458,"o":"m 188 1011 l 63 1038 l 63 1069 l 457 1069 l 457 1038 l 333 1011 l 333 58 l 457 32 l 457 0 l 63 0 l 63 32 l 188 58 l 188 1011 m 113 1332 q 170 1274 129 1292 q 260 1256 211 1256 q 347 1274 306 1256 q 411 1332 388 1292 l 458 1332 q 416 1237 442 1272 q 362 1183 390 1201 q 305 1158 333 1164 q 254 1153 276 1153 q 192 1162 224 1153 q 135 1192 161 1171 q 89 1247 108 1213 q 64 1332 69 1282 l 113 1332 z "},"Î":{"ha":519,"x_min":57,"x_max":467,"o":"m 188 1011 l 63 1038 l 63 1069 l 457 1069 l 457 1038 l 333 1011 l 333 58 l 457 32 l 457 0 l 63 0 l 63 32 l 188 58 l 188 1011 m 261 1335 q 301 1326 285 1335 q 338 1297 318 1317 l 467 1164 l 440 1140 l 261 1221 l 85 1140 l 57 1164 l 188 1297 q 220 1325 206 1315 q 261 1335 235 1335 z "},"Ï":{"ha":519,"x_min":56,"x_max":468,"o":"m 188 1011 l 63 1038 l 63 1069 l 457 1069 l 457 1038 l 333 1011 l 333 58 l 457 32 l 457 0 l 63 0 l 63 32 l 188 58 l 188 1011 m 56 1267 q 76 1322 56 1300 q 132 1343 97 1343 q 188 1322 168 1343 q 208 1267 208 1300 q 188 1213 208 1235 q 132 1190 168 1190 q 76 1213 97 1190 q 56 1267 56 1235 m 315 1267 q 336 1322 315 1300 q 392 1343 357 1343 q 448 1322 428 1343 q 468 1267 468 1300 q 448 1213 468 1235 q 392 1190 428 1190 q 336 1213 357 1190 q 315 1267 315 1235 z "},"İ":{"ha":519,"x_min":63,"x_max":457,"o":"m 188 1011 l 63 1038 l 63 1069 l 457 1069 l 457 1038 l 333 1011 l 333 58 l 457 32 l 457 0 l 63 0 l 63 32 l 188 58 l 188 1011 m 172 1242 q 197 1306 172 1281 q 261 1332 221 1332 q 327 1306 303 1332 q 351 1242 351 1281 q 327 1179 351 1206 q 261 1153 303 1153 q 197 1179 221 1153 q 172 1242 172 1206 z "},"Ị":{"ha":519,"x_min":63,"x_max":457,"o":"m 188 1011 l 63 1038 l 63 1069 l 457 1069 l 457 1038 l 333 1011 l 333 58 l 457 32 l 457 0 l 63 0 l 63 32 l 188 58 l 188 1011 m 172 -267 q 197 -202 172 -228 q 261 -176 221 -176 q 327 -202 303 -176 q 351 -267 351 -228 q 327 -329 351 -303 q 261 -356 303 -356 q 197 -329 221 -356 q 172 -267 172 -303 z "},"Ì":{"ha":519,"x_min":63,"x_max":457,"o":"m 188 1011 l 63 1038 l 63 1069 l 457 1069 l 457 1038 l 333 1011 l 333 58 l 457 32 l 457 0 l 63 0 l 63 32 l 188 58 l 188 1011 m 407 1133 l 196 1194 q 122 1230 142 1210 q 101 1274 101 1250 q 119 1317 101 1300 q 161 1333 138 1333 q 222 1311 192 1333 l 422 1163 l 407 1133 z "},"Ī":{"ha":519,"x_min":63,"x_max":463,"o":"m 188 1011 l 63 1038 l 63 1069 l 457 1069 l 457 1038 l 333 1011 l 333 58 l 457 32 l 457 0 l 63 0 l 63 32 l 188 58 l 188 1011 m 64 1218 l 64 1317 l 463 1317 l 463 1218 l 64 1218 z "},"Į":{"ha":519,"x_min":63,"x_max":457,"o":"m 365 -281 q 213 -356 300 -356 q 109 -323 147 -356 q 71 -233 71 -290 q 113 -118 71 -179 q 229 0 154 -57 l 63 0 l 63 32 l 188 58 l 188 1011 l 63 1038 l 63 1069 l 457 1069 l 457 1038 l 333 1011 l 333 58 l 457 32 l 457 0 l 289 0 q 193 -200 193 -115 q 267 -279 193 -279 q 303 -272 286 -279 q 344 -250 321 -265 l 365 -281 z "},"Ĩ":{"ha":519,"x_min":49,"x_max":475,"o":"m 188 1011 l 63 1038 l 63 1069 l 457 1069 l 457 1038 l 333 1011 l 333 58 l 457 32 l 457 0 l 63 0 l 63 32 l 188 58 l 188 1011 m 49 1171 q 81 1285 49 1242 q 165 1329 114 1329 q 215 1322 189 1329 q 269 1305 242 1314 q 322 1288 296 1296 q 372 1281 349 1281 q 442 1333 431 1281 l 475 1333 q 442 1215 475 1261 q 358 1169 410 1169 q 308 1178 333 1169 q 256 1197 282 1186 q 203 1215 229 1207 q 153 1224 178 1224 q 82 1171 89 1224 l 49 1171 z "},"J":{"ha":503,"x_min":-179,"x_max":447,"o":"m 324 215 q 322 49 324 113 q 315 -58 321 -15 q 301 -127 310 -100 q 276 -182 292 -154 q 151 -315 228 -269 q -12 -361 74 -361 q -135 -329 -90 -361 q -179 -240 -179 -297 q -157 -174 -179 -199 q -97 -150 -135 -150 q -50 -166 -68 -150 q -21 -214 -32 -182 q 15 -272 -6 -254 q 64 -289 36 -289 q 145 -234 113 -289 q 178 -67 178 -179 l 178 1011 l 53 1038 l 53 1069 l 447 1069 l 447 1038 l 324 1011 l 324 215 z "},"Ĵ":{"ha":503,"x_min":-179,"x_max":457,"o":"m 324 215 q 322 49 324 113 q 315 -58 321 -15 q 301 -127 310 -100 q 276 -182 292 -154 q 151 -315 228 -269 q -12 -361 74 -361 q -135 -329 -90 -361 q -179 -240 -179 -297 q -157 -174 -179 -199 q -97 -150 -135 -150 q -50 -166 -68 -150 q -21 -214 -32 -182 q 15 -272 -6 -254 q 64 -289 36 -289 q 145 -234 113 -289 q 178 -67 178 -179 l 178 1011 l 53 1038 l 53 1069 l 447 1069 l 447 1038 l 324 1011 l 324 215 m 251 1333 q 292 1324 275 1333 q 328 1296 308 1315 l 457 1163 l 431 1139 l 251 1219 l 75 1139 l 47 1163 l 178 1296 q 210 1324 196 1314 q 251 1333 225 1333 z "},"K":{"ha":1088,"x_min":63,"x_max":1121,"o":"m 63 32 l 188 58 l 188 1011 l 63 1038 l 63 1069 l 457 1069 l 457 1038 l 333 1011 l 333 514 l 726 954 q 749 996 749 978 q 722 1024 749 1014 q 632 1038 694 1033 l 632 1069 l 999 1069 l 999 1038 q 919 1022 950 1029 q 866 1006 888 1015 q 828 983 844 996 q 796 951 813 971 l 521 638 l 967 58 l 1121 32 l 1121 0 l 819 0 l 424 526 l 333 424 l 333 58 l 457 32 l 457 0 l 63 0 l 63 32 z "},"Ķ":{"ha":1088,"x_min":63,"x_max":1121,"o":"m 63 32 l 188 58 l 188 1011 l 63 1038 l 63 1069 l 457 1069 l 457 1038 l 333 1011 l 333 514 l 726 954 q 749 996 749 978 q 722 1024 749 1014 q 632 1038 694 1033 l 632 1069 l 999 1069 l 999 1038 q 919 1022 950 1029 q 866 1006 888 1015 q 828 983 844 996 q 796 951 813 971 l 521 638 l 967 58 l 1121 32 l 1121 0 l 819 0 l 424 526 l 333 424 l 333 58 l 457 32 l 457 0 l 63 0 l 63 32 m 556 -308 q 599 -270 582 -290 q 615 -236 615 -250 q 605 -208 615 -218 q 581 -190 594 -199 q 558 -169 568 -181 q 547 -132 547 -157 q 569 -81 547 -101 q 625 -61 592 -61 q 679 -88 658 -61 q 700 -153 700 -115 q 578 -342 700 -269 l 556 -308 z "},"L":{"ha":911,"x_min":68,"x_max":886,"o":"m 332 1011 l 332 56 l 733 56 q 801 194 775 125 q 850 332 826 263 l 886 332 l 835 0 l 68 0 l 68 32 l 186 58 l 186 1011 l 68 1038 l 68 1069 l 464 1069 l 464 1038 l 332 1011 z "},"Ĺ":{"ha":911,"x_min":68,"x_max":886,"o":"m 332 1011 l 332 56 l 733 56 q 801 194 775 125 q 850 332 826 263 l 886 332 l 835 0 l 68 0 l 68 32 l 186 58 l 186 1011 l 68 1038 l 68 1069 l 464 1069 l 464 1038 l 332 1011 m 103 1163 l 303 1311 q 364 1333 333 1333 q 406 1317 388 1333 q 424 1274 424 1300 q 403 1230 424 1250 q 329 1194 383 1210 l 118 1133 l 103 1163 z "},"Ľ":{"ha":911,"x_min":56,"x_max":886,"o":"m 332 1011 l 332 56 l 733 56 q 801 194 775 125 q 850 332 826 263 l 886 332 l 835 0 l 68 0 l 68 32 l 186 58 l 186 1011 l 68 1038 l 68 1069 l 464 1069 l 464 1038 l 332 1011 m 260 1153 q 219 1163 233 1153 q 186 1190 204 1172 l 56 1324 l 83 1347 l 260 1267 l 439 1347 l 465 1324 l 336 1190 q 300 1162 317 1171 q 260 1153 283 1153 z "},"Ļ":{"ha":911,"x_min":68,"x_max":886,"o":"m 332 1011 l 332 56 l 733 56 q 801 194 775 125 q 850 332 826 263 l 886 332 l 835 0 l 68 0 l 68 32 l 186 58 l 186 1011 l 68 1038 l 68 1069 l 464 1069 l 464 1038 l 332 1011 m 410 -308 q 453 -270 436 -290 q 469 -236 469 -250 q 459 -208 469 -218 q 435 -190 449 -199 q 412 -169 422 -181 q 401 -132 401 -157 q 424 -81 401 -101 q 479 -61 446 -61 q 533 -88 513 -61 q 554 -153 554 -115 q 432 -342 554 -269 l 410 -308 z "},"Ŀ":{"ha":911,"x_min":68,"x_max":886,"o":"m 332 1011 l 332 56 l 733 56 q 801 194 775 125 q 850 332 826 263 l 886 332 l 835 0 l 68 0 l 68 32 l 186 58 l 186 1011 l 68 1038 l 68 1069 l 464 1069 l 464 1038 l 332 1011 m 496 399 q 522 468 496 440 q 590 496 547 496 q 661 468 635 496 q 688 399 688 440 q 661 332 688 360 q 590 304 635 304 q 522 332 547 304 q 496 399 496 360 z "},"Ł":{"ha":913,"x_min":69,"x_max":888,"o":"m 333 1011 l 333 650 l 465 721 l 465 631 l 333 560 l 333 56 l 735 56 q 802 194 776 125 q 851 332 828 263 l 888 332 l 836 0 l 69 0 l 69 32 l 188 58 l 188 482 l 82 425 l 82 515 l 188 572 l 188 1011 l 69 1038 l 69 1069 l 465 1069 l 465 1038 l 333 1011 z "},"M":{"ha":1406,"x_min":63,"x_max":1343,"o":"m 188 1011 l 63 1038 l 63 1069 l 354 1069 l 700 246 l 707 246 l 1053 1069 l 1343 1069 l 1343 1038 l 1219 1011 l 1219 58 l 1343 32 l 1343 0 l 949 0 l 949 32 l 1074 58 l 1074 911 l 1068 911 l 674 -14 l 636 -14 l 249 917 l 243 917 l 243 58 l 367 32 l 367 0 l 63 0 l 63 32 l 188 58 l 188 1011 z "},"N":{"ha":1150,"x_min":63,"x_max":1096,"o":"m 971 -28 l 928 -28 l 243 926 l 243 58 l 367 32 l 367 0 l 63 0 l 63 32 l 188 58 l 188 1011 l 63 1038 l 63 1069 l 343 1069 l 915 283 l 915 1011 l 792 1038 l 792 1069 l 1096 1069 l 1096 1038 l 971 1011 l 971 -28 z "},"A":{"ha":1033,"x_min":-33,"x_max":1046,"o":"m 640 393 l 304 393 l 229 183 q 214 118 214 140 q 250 62 214 81 q 357 32 286 43 l 357 0 l -33 0 l -33 32 q 56 51 22 40 q 110 81 89 63 q 143 124 131 99 q 168 186 156 150 l 438 940 l 401 1022 l 538 1097 l 904 117 q 922 78 913 93 q 947 53 932 63 q 986 39 963 43 q 1046 32 1010 35 l 1046 0 l 604 0 l 604 32 q 680 37 651 33 q 724 46 708 40 q 743 59 739 51 q 747 78 747 67 q 744 101 747 88 q 732 139 742 114 l 640 393 m 468 853 l 324 449 l 619 449 l 474 853 l 468 853 z "},"Ń":{"ha":1150,"x_min":63,"x_max":1096,"o":"m 971 -28 l 928 -28 l 243 926 l 243 58 l 367 32 l 367 0 l 63 0 l 63 32 l 188 58 l 188 1011 l 63 1038 l 63 1069 l 343 1069 l 915 283 l 915 1011 l 792 1038 l 792 1069 l 1096 1069 l 1096 1038 l 971 1011 l 971 -28 m 504 1163 l 704 1311 q 765 1333 735 1333 q 807 1317 789 1333 q 825 1274 825 1300 q 805 1230 825 1250 q 731 1194 785 1210 l 519 1133 l 504 1163 z "},"Ň":{"ha":1150,"x_min":63,"x_max":1096,"o":"m 971 -28 l 928 -28 l 243 926 l 243 58 l 367 32 l 367 0 l 63 0 l 63 32 l 188 58 l 188 1011 l 63 1038 l 63 1069 l 343 1069 l 915 283 l 915 1011 l 792 1038 l 792 1069 l 1096 1069 l 1096 1038 l 971 1011 l 971 -28 m 592 1153 q 551 1163 565 1153 q 518 1190 536 1172 l 388 1324 l 415 1347 l 592 1267 l 771 1347 l 797 1324 l 668 1190 q 632 1162 649 1171 q 592 1153 615 1153 z "},"Ņ":{"ha":1150,"x_min":63,"x_max":1096,"o":"m 971 -28 l 928 -28 l 243 926 l 243 58 l 367 32 l 367 0 l 63 0 l 63 32 l 188 58 l 188 1011 l 63 1038 l 63 1069 l 343 1069 l 915 283 l 915 1011 l 792 1038 l 792 1069 l 1096 1069 l 1096 1038 l 971 1011 l 971 -28 m 544 -308 q 588 -270 571 -290 q 604 -236 604 -250 q 594 -208 604 -218 q 570 -190 583 -199 q 547 -169 557 -181 q 536 -132 536 -157 q 558 -81 536 -101 q 614 -61 581 -61 q 668 -88 647 -61 q 689 -153 689 -115 q 567 -342 689 -269 l 544 -308 z "},"Ṅ":{"ha":1150,"x_min":63,"x_max":1096,"o":"m 971 -28 l 928 -28 l 243 926 l 243 58 l 367 32 l 367 0 l 63 0 l 63 32 l 188 58 l 188 1011 l 63 1038 l 63 1069 l 343 1069 l 915 283 l 915 1011 l 792 1038 l 792 1069 l 1096 1069 l 1096 1038 l 971 1011 l 971 -28 m 526 1242 q 551 1306 526 1281 q 615 1332 575 1332 q 681 1306 657 1332 q 706 1242 706 1281 q 681 1179 706 1206 q 615 1153 657 1153 q 551 1179 575 1153 q 526 1242 526 1206 z "},"Ñ":{"ha":1150,"x_min":63,"x_max":1096,"o":"m 971 -28 l 928 -28 l 243 926 l 243 58 l 367 32 l 367 0 l 63 0 l 63 32 l 188 58 l 188 1011 l 63 1038 l 63 1069 l 343 1069 l 915 283 l 915 1011 l 792 1038 l 792 1069 l 1096 1069 l 1096 1038 l 971 1011 l 971 -28 m 379 1171 q 412 1285 379 1242 q 496 1329 444 1329 q 546 1322 519 1329 q 599 1305 572 1314 q 653 1288 626 1296 q 703 1281 679 1281 q 772 1333 761 1281 l 806 1333 q 773 1215 806 1261 q 689 1169 740 1169 q 638 1178 664 1169 q 586 1197 613 1186 q 534 1215 560 1207 q 483 1224 508 1224 q 413 1171 419 1224 l 379 1171 z "},"O":{"ha":1161,"x_min":76,"x_max":1085,"o":"m 581 1083 q 781 1042 689 1083 q 940 926 872 1000 q 1047 752 1008 853 q 1085 535 1085 651 q 1047 317 1085 418 q 940 143 1008 217 q 781 28 872 69 q 581 -14 689 -14 q 381 28 472 -14 q 221 143 289 69 q 115 317 153 217 q 76 535 76 418 q 115 752 76 651 q 221 926 153 853 q 381 1042 289 1000 q 581 1083 472 1083 m 251 536 q 274 332 251 422 q 339 178 296 242 q 442 82 382 115 q 581 49 503 49 q 718 82 657 49 q 822 178 779 115 q 888 333 865 242 q 910 539 910 424 q 888 742 910 653 q 823 894 865 832 q 719 988 781 956 q 582 1021 658 1021 q 443 988 504 1021 q 339 893 382 956 q 274 740 296 831 q 251 536 251 650 z "},"Œ":{"ha":1592,"x_min":76,"x_max":1517,"o":"m 963 1014 l 963 592 l 1211 592 q 1243 675 1231 633 q 1263 758 1256 717 l 1296 758 l 1296 369 l 1263 369 q 1211 536 1250 456 l 963 536 l 963 56 l 1354 56 q 1422 190 1396 124 q 1471 325 1447 257 l 1517 325 l 1465 0 l 736 0 q 664 -10 700 -7 q 593 -14 628 -14 q 385 27 481 -14 q 222 141 290 68 q 115 315 153 214 q 76 535 76 415 q 115 755 76 654 q 222 928 153 856 q 385 1042 290 1001 q 593 1083 481 1083 q 660 1080 626 1083 q 729 1069 694 1076 l 1471 1069 l 1494 764 l 1461 764 q 1420 889 1444 824 q 1361 1014 1396 954 l 963 1014 m 588 49 q 715 71 654 49 q 817 133 775 93 l 817 931 q 717 997 775 974 q 589 1021 658 1021 q 339 895 426 1021 q 251 536 251 769 q 340 176 251 303 q 588 49 428 49 z "},"Ó":{"ha":1161,"x_min":76,"x_max":1085,"o":"m 581 1083 q 781 1042 689 1083 q 940 926 872 1000 q 1047 752 1008 853 q 1085 535 1085 651 q 1047 317 1085 418 q 940 143 1008 217 q 781 28 872 69 q 581 -14 689 -14 q 381 28 472 -14 q 221 143 289 69 q 115 317 153 217 q 76 535 76 418 q 115 752 76 651 q 221 926 153 853 q 381 1042 289 1000 q 581 1083 472 1083 m 251 536 q 274 332 251 422 q 339 178 296 242 q 442 82 382 115 q 581 49 503 49 q 718 82 657 49 q 822 178 779 115 q 888 333 865 242 q 910 539 910 424 q 888 742 910 653 q 823 894 865 832 q 719 988 781 956 q 582 1021 658 1021 q 443 988 504 1021 q 339 893 382 956 q 274 740 296 831 q 251 536 251 650 m 431 1163 l 631 1311 q 692 1333 661 1333 q 733 1317 715 1333 q 751 1274 751 1300 q 731 1230 751 1250 q 657 1194 711 1210 l 446 1133 l 431 1163 z "},"Ŏ":{"ha":1161,"x_min":76,"x_max":1085,"o":"m 581 1083 q 781 1042 689 1083 q 940 926 872 1000 q 1047 752 1008 853 q 1085 535 1085 651 q 1047 317 1085 418 q 940 143 1008 217 q 781 28 872 69 q 581 -14 689 -14 q 381 28 472 -14 q 221 143 289 69 q 115 317 153 217 q 76 535 76 418 q 115 752 76 651 q 221 926 153 853 q 381 1042 289 1000 q 581 1083 472 1083 m 251 536 q 274 332 251 422 q 339 178 296 242 q 442 82 382 115 q 581 49 503 49 q 718 82 657 49 q 822 178 779 115 q 888 333 865 242 q 910 539 910 424 q 888 742 910 653 q 823 894 865 832 q 719 988 781 956 q 582 1021 658 1021 q 443 988 504 1021 q 339 893 382 956 q 274 740 296 831 q 251 536 251 650 m 440 1332 q 498 1274 457 1292 q 588 1256 539 1256 q 674 1274 633 1256 q 739 1332 715 1292 l 786 1332 q 744 1237 769 1272 q 690 1183 718 1201 q 633 1158 661 1164 q 582 1153 604 1153 q 520 1162 551 1153 q 463 1192 489 1171 q 417 1247 436 1213 q 392 1332 397 1282 l 440 1332 z "},"Ô":{"ha":1161,"x_min":76,"x_max":1085,"o":"m 581 1083 q 781 1042 689 1083 q 940 926 872 1000 q 1047 752 1008 853 q 1085 535 1085 651 q 1047 317 1085 418 q 940 143 1008 217 q 781 28 872 69 q 581 -14 689 -14 q 381 28 472 -14 q 221 143 289 69 q 115 317 153 217 q 76 535 76 418 q 115 752 76 651 q 221 926 153 853 q 381 1042 289 1000 q 581 1083 472 1083 m 251 536 q 274 332 251 422 q 339 178 296 242 q 442 82 382 115 q 581 49 503 49 q 718 82 657 49 q 822 178 779 115 q 888 333 865 242 q 910 539 910 424 q 888 742 910 653 q 823 894 865 832 q 719 988 781 956 q 582 1021 658 1021 q 443 988 504 1021 q 339 893 382 956 q 274 740 296 831 q 251 536 251 650 m 589 1333 q 629 1324 613 1333 q 665 1296 646 1315 l 794 1163 l 768 1139 l 589 1219 l 413 1139 l 385 1163 l 515 1296 q 548 1324 533 1314 q 589 1333 563 1333 z "},"Ö":{"ha":1161,"x_min":76,"x_max":1085,"o":"m 581 1083 q 781 1042 689 1083 q 940 926 872 1000 q 1047 752 1008 853 q 1085 535 1085 651 q 1047 317 1085 418 q 940 143 1008 217 q 781 28 872 69 q 581 -14 689 -14 q 381 28 472 -14 q 221 143 289 69 q 115 317 153 217 q 76 535 76 418 q 115 752 76 651 q 221 926 153 853 q 381 1042 289 1000 q 581 1083 472 1083 m 251 536 q 274 332 251 422 q 339 178 296 242 q 442 82 382 115 q 581 49 503 49 q 718 82 657 49 q 822 178 779 115 q 888 333 865 242 q 910 539 910 424 q 888 742 910 653 q 823 894 865 832 q 719 988 781 956 q 582 1021 658 1021 q 443 988 504 1021 q 339 893 382 956 q 274 740 296 831 q 251 536 251 650 m 383 1229 q 404 1284 383 1263 q 460 1306 425 1306 q 516 1284 496 1306 q 536 1229 536 1263 q 516 1175 536 1197 q 460 1153 496 1153 q 404 1175 425 1153 q 383 1229 383 1197 m 643 1229 q 664 1284 643 1263 q 719 1306 685 1306 q 776 1284 756 1306 q 796 1229 796 1263 q 776 1175 796 1197 q 719 1153 756 1153 q 664 1175 685 1153 q 643 1229 643 1197 z "},"Ọ":{"ha":1161,"x_min":76,"x_max":1085,"o":"m 581 1083 q 781 1042 689 1083 q 940 926 872 1000 q 1047 752 1008 853 q 1085 535 1085 651 q 1047 317 1085 418 q 940 143 1008 217 q 781 28 872 69 q 581 -14 689 -14 q 381 28 472 -14 q 221 143 289 69 q 115 317 153 217 q 76 535 76 418 q 115 752 76 651 q 221 926 153 853 q 381 1042 289 1000 q 581 1083 472 1083 m 251 536 q 274 332 251 422 q 339 178 296 242 q 442 82 382 115 q 581 49 503 49 q 718 82 657 49 q 822 178 779 115 q 888 333 865 242 q 910 539 910 424 q 888 742 910 653 q 823 894 865 832 q 719 988 781 956 q 582 1021 658 1021 q 443 988 504 1021 q 339 893 382 956 q 274 740 296 831 q 251 536 251 650 m 493 -267 q 517 -202 493 -228 q 582 -176 542 -176 q 648 -202 624 -176 q 672 -267 672 -228 q 648 -329 672 -303 q 582 -356 624 -356 q 517 -329 542 -356 q 493 -267 493 -303 z "},"Ò":{"ha":1161,"x_min":76,"x_max":1085,"o":"m 581 1083 q 781 1042 689 1083 q 940 926 872 1000 q 1047 752 1008 853 q 1085 535 1085 651 q 1047 317 1085 418 q 940 143 1008 217 q 781 28 872 69 q 581 -14 689 -14 q 381 28 472 -14 q 221 143 289 69 q 115 317 153 217 q 76 535 76 418 q 115 752 76 651 q 221 926 153 853 q 381 1042 289 1000 q 581 1083 472 1083 m 251 536 q 274 332 251 422 q 339 178 296 242 q 442 82 382 115 q 581 49 503 49 q 718 82 657 49 q 822 178 779 115 q 888 333 865 242 q 910 539 910 424 q 888 742 910 653 q 823 894 865 832 q 719 988 781 956 q 582 1021 658 1021 q 443 988 504 1021 q 339 893 382 956 q 274 740 296 831 q 251 536 251 650 m 719 1133 l 508 1194 q 434 1230 454 1210 q 414 1274 414 1250 q 432 1317 414 1300 q 474 1333 450 1333 q 535 1311 504 1333 l 735 1163 l 719 1133 z "},"Ő":{"ha":1161,"x_min":76,"x_max":1085,"o":"m 581 1083 q 781 1042 689 1083 q 940 926 872 1000 q 1047 752 1008 853 q 1085 535 1085 651 q 1047 317 1085 418 q 940 143 1008 217 q 781 28 872 69 q 581 -14 689 -14 q 381 28 472 -14 q 221 143 289 69 q 115 317 153 217 q 76 535 76 418 q 115 752 76 651 q 221 926 153 853 q 381 1042 289 1000 q 581 1083 472 1083 m 251 536 q 274 332 251 422 q 339 178 296 242 q 442 82 382 115 q 581 49 503 49 q 718 82 657 49 q 822 178 779 115 q 888 333 865 242 q 910 539 910 424 q 888 742 910 653 q 823 894 865 832 q 719 988 781 956 q 582 1021 658 1021 q 443 988 504 1021 q 339 893 382 956 q 274 740 296 831 q 251 536 251 650 m 404 1163 l 514 1283 q 599 1333 560 1333 q 640 1317 624 1333 q 656 1275 656 1300 q 637 1235 656 1251 q 561 1194 618 1218 l 419 1133 l 404 1163 m 646 1163 l 756 1283 q 840 1333 801 1333 q 881 1317 865 1333 q 897 1275 897 1300 q 878 1235 897 1251 q 803 1194 860 1218 l 661 1133 l 646 1163 z "},"Ō":{"ha":1161,"x_min":76,"x_max":1085,"o":"m 581 1083 q 781 1042 689 1083 q 940 926 872 1000 q 1047 752 1008 853 q 1085 535 1085 651 q 1047 317 1085 418 q 940 143 1008 217 q 781 28 872 69 q 581 -14 689 -14 q 381 28 472 -14 q 221 143 289 69 q 115 317 153 217 q 76 535 76 418 q 115 752 76 651 q 221 926 153 853 q 381 1042 289 1000 q 581 1083 472 1083 m 251 536 q 274 332 251 422 q 339 178 296 242 q 442 82 382 115 q 581 49 503 49 q 718 82 657 49 q 822 178 779 115 q 888 333 865 242 q 910 539 910 424 q 888 742 910 653 q 823 894 865 832 q 719 988 781 956 q 582 1021 658 1021 q 443 988 504 1021 q 339 893 382 956 q 274 740 296 831 q 251 536 251 650 m 394 1218 l 394 1317 l 793 1317 l 793 1218 l 394 1218 z "},"Ǫ":{"ha":1161,"x_min":76,"x_max":1085,"o":"m 697 -281 q 544 -356 632 -356 q 441 -323 479 -356 q 403 -233 403 -290 q 440 -124 403 -182 q 544 -12 478 -65 q 358 38 443 -6 q 210 155 272 82 q 112 325 147 228 q 76 535 76 422 q 115 752 76 651 q 221 926 153 853 q 381 1042 289 1000 q 581 1083 472 1083 q 781 1042 689 1083 q 940 926 872 1000 q 1047 752 1008 853 q 1085 535 1085 651 q 1049 324 1085 422 q 950 153 1014 226 q 799 37 886 81 q 611 -12 713 -7 q 525 -200 525 -117 q 599 -279 525 -279 q 635 -272 618 -279 q 676 -250 653 -265 l 697 -281 m 251 536 q 274 332 251 422 q 339 178 296 242 q 442 82 382 115 q 581 49 503 49 q 718 82 657 49 q 822 178 779 115 q 888 333 865 242 q 910 539 910 424 q 888 742 910 653 q 823 894 865 832 q 719 988 781 956 q 582 1021 658 1021 q 443 988 504 1021 q 339 893 382 956 q 274 740 296 831 q 251 536 251 650 z "},"Ø":{"ha":1163,"x_min":78,"x_max":1086,"o":"m 582 -14 q 401 19 485 -14 q 253 113 318 53 l 156 0 l 79 0 l 211 154 q 113 325 149 228 q 78 535 78 422 q 116 752 78 651 q 222 926 154 853 q 382 1042 290 1000 q 582 1083 474 1083 q 758 1051 676 1083 q 904 961 839 1019 l 997 1069 l 1075 1069 l 946 919 q 1049 748 1013 846 q 1086 535 1086 650 q 1048 317 1086 418 q 942 143 1010 217 q 782 28 874 69 q 582 -14 690 -14 m 833 879 q 728 985 790 949 q 583 1021 665 1021 q 444 988 506 1021 q 340 893 383 956 q 275 740 297 831 q 253 536 253 650 q 299 257 253 369 l 833 879 m 582 49 q 719 82 658 49 q 824 178 781 115 q 889 333 867 242 q 911 539 911 424 q 863 822 911 706 l 326 200 q 434 88 369 126 q 582 49 499 49 z "},"Ǿ":{"ha":1163,"x_min":78,"x_max":1086,"o":"m 582 -14 q 401 19 485 -14 q 253 113 318 53 l 156 0 l 79 0 l 211 154 q 113 325 149 228 q 78 535 78 422 q 116 752 78 651 q 222 926 154 853 q 382 1042 290 1000 q 582 1083 474 1083 q 758 1051 676 1083 q 904 961 839 1019 l 997 1069 l 1075 1069 l 946 919 q 1049 748 1013 846 q 1086 535 1086 650 q 1048 317 1086 418 q 942 143 1010 217 q 782 28 874 69 q 582 -14 690 -14 m 833 879 q 728 985 790 949 q 583 1021 665 1021 q 444 988 506 1021 q 340 893 383 956 q 275 740 297 831 q 253 536 253 650 q 299 257 253 369 l 833 879 m 582 49 q 719 82 658 49 q 824 178 781 115 q 889 333 867 242 q 911 539 911 424 q 863 822 911 706 l 326 200 q 434 88 369 126 q 582 49 499 49 m 440 1163 l 640 1311 q 701 1333 671 1333 q 743 1317 725 1333 q 761 1274 761 1300 q 741 1230 761 1250 q 667 1194 721 1210 l 456 1133 l 440 1163 z "},"Õ":{"ha":1161,"x_min":76,"x_max":1085,"o":"m 581 1083 q 781 1042 689 1083 q 940 926 872 1000 q 1047 752 1008 853 q 1085 535 1085 651 q 1047 317 1085 418 q 940 143 1008 217 q 781 28 872 69 q 581 -14 689 -14 q 381 28 472 -14 q 221 143 289 69 q 115 317 153 217 q 76 535 76 418 q 115 752 76 651 q 221 926 153 853 q 381 1042 289 1000 q 581 1083 472 1083 m 251 536 q 274 332 251 422 q 339 178 296 242 q 442 82 382 115 q 581 49 503 49 q 718 82 657 49 q 822 178 779 115 q 888 333 865 242 q 910 539 910 424 q 888 742 910 653 q 823 894 865 832 q 719 988 781 956 q 582 1021 658 1021 q 443 988 504 1021 q 339 893 382 956 q 274 740 296 831 q 251 536 251 650 m 379 1171 q 412 1285 379 1242 q 496 1329 444 1329 q 546 1322 519 1329 q 599 1305 572 1314 q 653 1288 626 1296 q 703 1281 679 1281 q 772 1333 761 1281 l 806 1333 q 773 1215 806 1261 q 689 1169 740 1169 q 638 1178 664 1169 q 586 1197 613 1186 q 534 1215 560 1207 q 483 1224 508 1224 q 413 1171 419 1224 l 379 1171 z "},"P":{"ha":921,"x_min":68,"x_max":871,"o":"m 68 1069 l 500 1069 q 650 1049 582 1069 q 767 988 718 1028 q 844 888 817 947 q 871 751 871 828 q 844 626 871 681 q 766 533 817 571 q 642 477 715 496 q 479 458 569 458 l 332 458 l 332 58 l 490 32 l 490 0 l 68 0 l 68 32 l 186 58 l 186 1011 l 68 1038 l 68 1069 m 332 513 l 436 513 q 574 532 524 513 q 656 588 625 551 q 699 670 688 624 q 711 765 711 717 q 678 915 711 856 q 583 997 644 974 q 531 1010 560 1007 q 460 1014 503 1014 l 332 1014 l 332 513 z "},"Q":{"ha":1161,"x_min":76,"x_max":1122,"o":"m 581 1083 q 781 1042 689 1083 q 940 926 872 1000 q 1047 752 1008 853 q 1085 535 1085 651 q 1053 339 1085 431 q 965 176 1022 247 q 828 62 908 106 q 651 10 749 18 l 651 4 q 721 -20 686 -4 q 792 -53 756 -36 q 867 -81 828 -69 q 949 -93 906 -93 q 1026 -75 996 -93 q 1085 -19 1057 -57 l 1122 -33 q 1013 -180 1079 -132 q 875 -228 947 -228 q 798 -212 832 -228 q 735 -173 764 -196 q 678 -122 706 -150 q 623 -72 651 -94 q 562 -33 594 -49 q 489 -17 529 -17 q 424 -35 444 -17 q 403 -79 403 -53 q 406 -99 403 -92 q 415 -115 410 -107 q 423 -131 419 -122 q 426 -153 426 -140 q 406 -203 426 -183 q 356 -222 386 -222 q 305 -201 324 -222 q 286 -146 286 -181 q 327 -53 286 -96 q 439 18 368 -10 l 439 24 q 290 88 357 42 q 176 202 224 135 q 103 355 129 269 q 76 535 76 440 q 115 752 76 651 q 221 926 153 853 q 381 1042 289 1000 q 581 1083 472 1083 m 251 536 q 274 332 251 422 q 339 178 296 242 q 442 82 382 115 q 581 49 503 49 q 718 82 657 49 q 822 178 779 115 q 888 332 865 242 q 910 538 910 422 q 824 894 910 767 q 582 1021 738 1021 q 443 988 504 1021 q 339 893 382 956 q 274 740 296 831 q 251 536 251 650 z "},"R":{"ha":1018,"x_min":68,"x_max":1078,"o":"m 68 32 l 186 58 l 186 1011 l 68 1038 l 68 1069 l 486 1069 q 636 1049 568 1069 q 753 991 704 1029 q 830 896 803 953 q 857 765 857 839 q 796 595 857 661 q 624 503 735 529 l 919 58 l 1078 32 l 1078 0 l 776 0 l 465 486 l 332 486 l 332 58 l 490 32 l 490 0 l 68 0 l 68 32 m 422 540 q 560 560 510 540 q 642 615 610 581 q 685 692 672 650 q 697 779 697 735 q 664 919 697 864 q 569 997 631 974 q 517 1010 546 1007 q 446 1014 489 1014 l 332 1014 l 332 540 l 422 540 z "},"Ŕ":{"ha":1018,"x_min":68,"x_max":1078,"o":"m 68 32 l 186 58 l 186 1011 l 68 1038 l 68 1069 l 486 1069 q 636 1049 568 1069 q 753 991 704 1029 q 830 896 803 953 q 857 765 857 839 q 796 595 857 661 q 624 503 735 529 l 919 58 l 1078 32 l 1078 0 l 776 0 l 465 486 l 332 486 l 332 58 l 490 32 l 490 0 l 68 0 l 68 32 m 422 540 q 560 560 510 540 q 642 615 610 581 q 685 692 672 650 q 697 779 697 735 q 664 919 697 864 q 569 997 631 974 q 517 1010 546 1007 q 446 1014 489 1014 l 332 1014 l 332 540 l 422 540 m 313 1163 l 513 1311 q 574 1333 543 1333 q 615 1317 597 1333 q 633 1274 633 1300 q 613 1230 633 1250 q 539 1194 593 1210 l 328 1133 l 313 1163 z "},"Ř":{"ha":1018,"x_min":68,"x_max":1078,"o":"m 68 32 l 186 58 l 186 1011 l 68 1038 l 68 1069 l 486 1069 q 636 1049 568 1069 q 753 991 704 1029 q 830 896 803 953 q 857 765 857 839 q 796 595 857 661 q 624 503 735 529 l 919 58 l 1078 32 l 1078 0 l 776 0 l 465 486 l 332 486 l 332 58 l 490 32 l 490 0 l 68 0 l 68 32 m 422 540 q 560 560 510 540 q 642 615 610 581 q 685 692 672 650 q 697 779 697 735 q 664 919 697 864 q 569 997 631 974 q 517 1010 546 1007 q 446 1014 489 1014 l 332 1014 l 332 540 l 422 540 m 454 1153 q 413 1163 428 1153 q 381 1190 399 1172 l 250 1324 l 278 1347 l 454 1267 l 633 1347 l 660 1324 l 531 1190 q 494 1162 511 1171 q 454 1153 478 1153 z "},"Ŗ":{"ha":1018,"x_min":68,"x_max":1078,"o":"m 68 32 l 186 58 l 186 1011 l 68 1038 l 68 1069 l 486 1069 q 636 1049 568 1069 q 753 991 704 1029 q 830 896 803 953 q 857 765 857 839 q 796 595 857 661 q 624 503 735 529 l 919 58 l 1078 32 l 1078 0 l 776 0 l 465 486 l 332 486 l 332 58 l 490 32 l 490 0 l 68 0 l 68 32 m 422 540 q 560 560 510 540 q 642 615 610 581 q 685 692 672 650 q 697 779 697 735 q 664 919 697 864 q 569 997 631 974 q 517 1010 546 1007 q 446 1014 489 1014 l 332 1014 l 332 540 l 422 540 m 547 -308 q 590 -270 574 -290 q 607 -236 607 -250 q 597 -208 607 -218 q 573 -190 586 -199 q 549 -169 560 -181 q 539 -132 539 -157 q 561 -81 539 -101 q 617 -61 583 -61 q 671 -88 650 -61 q 692 -153 692 -115 q 569 -342 692 -269 l 547 -308 z "},"Ṛ":{"ha":1018,"x_min":68,"x_max":1078,"o":"m 68 32 l 186 58 l 186 1011 l 68 1038 l 68 1069 l 486 1069 q 636 1049 568 1069 q 753 991 704 1029 q 830 896 803 953 q 857 765 857 839 q 796 595 857 661 q 624 503 735 529 l 919 58 l 1078 32 l 1078 0 l 776 0 l 465 486 l 332 486 l 332 58 l 490 32 l 490 0 l 68 0 l 68 32 m 422 540 q 560 560 510 540 q 642 615 610 581 q 685 692 672 650 q 697 779 697 735 q 664 919 697 864 q 569 997 631 974 q 517 1010 546 1007 q 446 1014 489 1014 l 332 1014 l 332 540 l 422 540 m 514 -267 q 538 -202 514 -228 q 603 -176 563 -176 q 669 -202 644 -176 q 693 -267 693 -228 q 669 -329 693 -303 q 603 -356 644 -356 q 538 -329 563 -356 q 514 -267 514 -303 z "},"S":{"ha":832,"x_min":88,"x_max":749,"o":"m 419 1083 q 533 1063 482 1083 q 629 997 583 1042 l 674 1069 l 701 1069 l 714 764 l 678 764 q 583 960 644 897 q 426 1024 522 1024 q 301 982 347 1024 q 256 865 256 940 q 277 776 256 814 q 333 709 299 739 q 411 655 367 679 q 502 606 456 631 q 593 553 549 581 q 672 491 638 526 q 727 410 706 456 q 749 301 749 364 q 723 177 749 235 q 653 78 697 119 q 548 12 608 36 q 418 -12 488 -12 q 308 4 361 -12 q 196 57 256 21 l 140 0 l 113 0 l 88 356 l 122 364 q 232 122 164 196 q 414 47 300 47 q 565 93 510 47 q 621 219 621 139 q 599 309 621 271 q 541 378 576 347 q 459 434 506 408 q 365 485 413 460 q 271 538 317 510 q 190 601 225 565 q 132 683 154 638 q 110 790 110 729 q 133 907 110 853 q 199 1000 157 961 q 297 1061 240 1039 q 419 1083 353 1083 z "},"Ś":{"ha":832,"x_min":88,"x_max":749,"o":"m 419 1083 q 533 1063 482 1083 q 629 997 583 1042 l 674 1069 l 701 1069 l 714 764 l 678 764 q 583 960 644 897 q 426 1024 522 1024 q 301 982 347 1024 q 256 865 256 940 q 277 776 256 814 q 333 709 299 739 q 411 655 367 679 q 502 606 456 631 q 593 553 549 581 q 672 491 638 526 q 727 410 706 456 q 749 301 749 364 q 723 177 749 235 q 653 78 697 119 q 548 12 608 36 q 418 -12 488 -12 q 308 4 361 -12 q 196 57 256 21 l 140 0 l 113 0 l 88 356 l 122 364 q 232 122 164 196 q 414 47 300 47 q 565 93 510 47 q 621 219 621 139 q 599 309 621 271 q 541 378 576 347 q 459 434 506 408 q 365 485 413 460 q 271 538 317 510 q 190 601 225 565 q 132 683 154 638 q 110 790 110 729 q 133 907 110 853 q 199 1000 157 961 q 297 1061 240 1039 q 419 1083 353 1083 m 274 1163 l 474 1311 q 535 1333 504 1333 q 576 1317 558 1333 q 594 1274 594 1300 q 574 1230 594 1250 q 500 1194 554 1210 l 289 1133 l 274 1163 z "},"Š":{"ha":832,"x_min":88,"x_max":749,"o":"m 419 1083 q 533 1063 482 1083 q 629 997 583 1042 l 674 1069 l 701 1069 l 714 764 l 678 764 q 583 960 644 897 q 426 1024 522 1024 q 301 982 347 1024 q 256 865 256 940 q 277 776 256 814 q 333 709 299 739 q 411 655 367 679 q 502 606 456 631 q 593 553 549 581 q 672 491 638 526 q 727 410 706 456 q 749 301 749 364 q 723 177 749 235 q 653 78 697 119 q 548 12 608 36 q 418 -12 488 -12 q 308 4 361 -12 q 196 57 256 21 l 140 0 l 113 0 l 88 356 l 122 364 q 232 122 164 196 q 414 47 300 47 q 565 93 510 47 q 621 219 621 139 q 599 309 621 271 q 541 378 576 347 q 459 434 506 408 q 365 485 413 460 q 271 538 317 510 q 190 601 225 565 q 132 683 154 638 q 110 790 110 729 q 133 907 110 853 q 199 1000 157 961 q 297 1061 240 1039 q 419 1083 353 1083 m 439 1153 q 398 1163 413 1153 q 365 1190 383 1172 l 235 1324 l 263 1347 l 439 1267 l 618 1347 l 644 1324 l 515 1190 q 479 1162 496 1171 q 439 1153 463 1153 z "},"Ə":{"ha":1072,"x_min":65,"x_max":994,"o":"m 79 450 l 818 450 q 819 474 818 465 q 819 507 819 483 q 729 848 819 729 q 465 967 639 967 q 283 925 361 967 q 144 806 204 883 l 121 775 l 88 796 l 99 824 q 165 930 122 882 q 265 1013 208 978 q 388 1066 321 1047 q 529 1085 456 1085 q 719 1046 633 1085 q 866 937 804 1007 q 961 769 928 867 q 994 551 994 671 q 957 321 994 425 q 851 142 919 217 q 686 27 782 68 q 472 -14 590 -14 q 174 100 278 -14 q 65 438 69 214 l 79 450 m 486 49 q 710 135 628 49 q 814 394 793 221 l 253 375 q 249 340 250 360 q 247 303 247 319 q 308 110 247 172 q 486 49 368 49 z "},"Ŝ":{"ha":832,"x_min":88,"x_max":749,"o":"m 419 1083 q 533 1063 482 1083 q 629 997 583 1042 l 674 1069 l 701 1069 l 714 764 l 678 764 q 583 960 644 897 q 426 1024 522 1024 q 301 982 347 1024 q 256 865 256 940 q 277 776 256 814 q 333 709 299 739 q 411 655 367 679 q 502 606 456 631 q 593 553 549 581 q 672 491 638 526 q 727 410 706 456 q 749 301 749 364 q 723 177 749 235 q 653 78 697 119 q 548 12 608 36 q 418 -12 488 -12 q 308 4 361 -12 q 196 57 256 21 l 140 0 l 113 0 l 88 356 l 122 364 q 232 122 164 196 q 414 47 300 47 q 565 93 510 47 q 621 219 621 139 q 599 309 621 271 q 541 378 576 347 q 459 434 506 408 q 365 485 413 460 q 271 538 317 510 q 190 601 225 565 q 132 683 154 638 q 110 790 110 729 q 133 907 110 853 q 199 1000 157 961 q 297 1061 240 1039 q 419 1083 353 1083 m 428 1333 q 468 1324 451 1333 q 504 1296 485 1315 l 633 1163 l 607 1139 l 428 1219 l 251 1139 l 224 1163 l 354 1296 q 387 1324 372 1314 q 428 1333 401 1333 z "},"Ṣ":{"ha":832,"x_min":88,"x_max":749,"o":"m 419 1083 q 533 1063 482 1083 q 629 997 583 1042 l 674 1069 l 701 1069 l 714 764 l 678 764 q 583 960 644 897 q 426 1024 522 1024 q 301 982 347 1024 q 256 865 256 940 q 277 776 256 814 q 333 709 299 739 q 411 655 367 679 q 502 606 456 631 q 593 553 549 581 q 672 491 638 526 q 727 410 706 456 q 749 301 749 364 q 723 177 749 235 q 653 78 697 119 q 548 12 608 36 q 418 -12 488 -12 q 308 4 361 -12 q 196 57 256 21 l 140 0 l 113 0 l 88 356 l 122 364 q 232 122 164 196 q 414 47 300 47 q 565 93 510 47 q 621 219 621 139 q 599 309 621 271 q 541 378 576 347 q 459 434 506 408 q 365 485 413 460 q 271 538 317 510 q 190 601 225 565 q 132 683 154 638 q 110 790 110 729 q 133 907 110 853 q 199 1000 157 961 q 297 1061 240 1039 q 419 1083 353 1083 m 339 -267 q 363 -202 339 -228 q 428 -176 388 -176 q 494 -202 469 -176 q 518 -267 518 -228 q 494 -329 518 -303 q 428 -356 469 -356 q 363 -329 388 -356 q 339 -267 339 -303 z "},"T":{"ha":1047,"x_min":13,"x_max":1035,"o":"m 300 32 l 453 58 l 453 1014 l 174 1014 q 98 889 129 954 q 46 764 67 824 l 13 764 l 64 1069 l 983 1069 l 1035 764 l 1001 764 q 949 889 981 824 q 874 1014 918 954 l 599 1014 l 599 58 l 750 32 l 750 0 l 300 0 l 300 32 z "},"Ŧ":{"ha":1047,"x_min":13,"x_max":1035,"o":"m 300 32 l 453 58 l 453 524 l 231 524 l 231 614 l 453 614 l 453 1014 l 174 1014 q 98 889 129 954 q 46 764 67 824 l 13 764 l 64 1069 l 983 1069 l 1035 764 l 1001 764 q 949 889 981 824 q 874 1014 918 954 l 599 1014 l 599 614 l 821 614 l 821 524 l 599 524 l 599 58 l 750 32 l 750 0 l 300 0 l 300 32 z "},"Ť":{"ha":1047,"x_min":13,"x_max":1035,"o":"m 300 32 l 453 58 l 453 1014 l 174 1014 q 98 889 129 954 q 46 764 67 824 l 13 764 l 64 1069 l 983 1069 l 1035 764 l 1001 764 q 949 889 981 824 q 874 1014 918 954 l 599 1014 l 599 58 l 750 32 l 750 0 l 300 0 l 300 32 m 525 1139 q 484 1149 499 1139 q 451 1176 469 1158 l 321 1310 l 349 1333 l 525 1253 l 704 1333 l 731 1310 l 601 1176 q 565 1148 582 1157 q 525 1139 549 1139 z "},"Ṭ":{"ha":1047,"x_min":13,"x_max":1035,"o":"m 300 32 l 453 58 l 453 1014 l 174 1014 q 98 889 129 954 q 46 764 67 824 l 13 764 l 64 1069 l 983 1069 l 1035 764 l 1001 764 q 949 889 981 824 q 874 1014 918 954 l 599 1014 l 599 58 l 750 32 l 750 0 l 300 0 l 300 32 m 438 -269 q 462 -205 438 -231 q 526 -179 486 -179 q 592 -205 568 -179 q 617 -269 617 -231 q 592 -332 617 -306 q 526 -358 568 -358 q 462 -332 486 -358 q 438 -269 438 -306 z "},"Þ":{"ha":924,"x_min":68,"x_max":871,"o":"m 332 1011 l 332 843 l 500 843 q 650 822 582 843 q 767 761 718 801 q 844 661 817 721 q 871 525 871 601 q 844 399 871 454 q 766 307 817 344 q 642 251 715 269 q 479 232 569 232 l 332 232 l 332 58 l 490 32 l 490 0 l 68 0 l 68 32 l 186 58 l 186 1011 l 68 1038 l 68 1069 l 490 1069 l 490 1038 l 332 1011 m 332 286 l 436 286 q 574 306 524 286 q 656 361 625 325 q 699 444 688 397 q 711 539 711 490 q 678 688 711 629 q 583 771 644 747 q 531 784 560 781 q 460 788 503 788 l 332 788 l 332 286 z "},"U":{"ha":1075,"x_min":46,"x_max":1028,"o":"m 317 315 q 387 115 317 182 q 575 49 457 49 q 706 70 650 49 q 794 135 763 92 q 835 239 822 172 q 847 417 847 306 l 847 1011 l 724 1038 l 724 1069 l 1028 1069 l 1028 1038 l 903 1011 l 903 358 q 890 211 903 271 q 850 111 878 151 q 731 19 810 51 q 546 -14 651 -14 q 354 19 438 -14 q 225 114 271 53 q 184 200 197 150 q 171 336 171 250 l 171 1011 l 46 1038 l 46 1069 l 440 1069 l 440 1038 l 317 1011 l 317 315 z "},"Ú":{"ha":1075,"x_min":46,"x_max":1028,"o":"m 317 315 q 387 115 317 182 q 575 49 457 49 q 706 70 650 49 q 794 135 763 92 q 835 239 822 172 q 847 417 847 306 l 847 1011 l 724 1038 l 724 1069 l 1028 1069 l 1028 1038 l 903 1011 l 903 358 q 890 211 903 271 q 850 111 878 151 q 731 19 810 51 q 546 -14 651 -14 q 354 19 438 -14 q 225 114 271 53 q 184 200 197 150 q 171 336 171 250 l 171 1011 l 46 1038 l 46 1069 l 440 1069 l 440 1038 l 317 1011 l 317 315 m 438 1163 l 638 1311 q 699 1333 668 1333 q 740 1317 722 1333 q 758 1274 758 1300 q 738 1230 758 1250 q 664 1194 718 1210 l 453 1133 l 438 1163 z "},"Ŭ":{"ha":1075,"x_min":46,"x_max":1028,"o":"m 317 315 q 387 115 317 182 q 575 49 457 49 q 706 70 650 49 q 794 135 763 92 q 835 239 822 172 q 847 417 847 306 l 847 1011 l 724 1038 l 724 1069 l 1028 1069 l 1028 1038 l 903 1011 l 903 358 q 890 211 903 271 q 850 111 878 151 q 731 19 810 51 q 546 -14 651 -14 q 354 19 438 -14 q 225 114 271 53 q 184 200 197 150 q 171 336 171 250 l 171 1011 l 46 1038 l 46 1069 l 440 1069 l 440 1038 l 317 1011 l 317 315 m 450 1332 q 508 1274 467 1292 q 597 1256 549 1256 q 684 1274 643 1256 q 749 1332 725 1292 l 796 1332 q 753 1237 779 1272 q 699 1183 728 1201 q 642 1158 671 1164 q 592 1153 614 1153 q 530 1162 561 1153 q 472 1192 499 1171 q 426 1247 446 1213 q 401 1332 407 1282 l 450 1332 z "},"Û":{"ha":1075,"x_min":46,"x_max":1028,"o":"m 317 315 q 387 115 317 182 q 575 49 457 49 q 706 70 650 49 q 794 135 763 92 q 835 239 822 172 q 847 417 847 306 l 847 1011 l 724 1038 l 724 1069 l 1028 1069 l 1028 1038 l 903 1011 l 903 358 q 890 211 903 271 q 850 111 878 151 q 731 19 810 51 q 546 -14 651 -14 q 354 19 438 -14 q 225 114 271 53 q 184 200 197 150 q 171 336 171 250 l 171 1011 l 46 1038 l 46 1069 l 440 1069 l 440 1038 l 317 1011 l 317 315 m 592 1333 q 632 1324 615 1333 q 668 1296 649 1315 l 797 1163 l 771 1139 l 592 1219 l 415 1139 l 388 1163 l 518 1296 q 551 1324 536 1314 q 592 1333 565 1333 z "},"Ü":{"ha":1075,"x_min":46,"x_max":1028,"o":"m 317 315 q 387 115 317 182 q 575 49 457 49 q 706 70 650 49 q 794 135 763 92 q 835 239 822 172 q 847 417 847 306 l 847 1011 l 724 1038 l 724 1069 l 1028 1069 l 1028 1038 l 903 1011 l 903 358 q 890 211 903 271 q 850 111 878 151 q 731 19 810 51 q 546 -14 651 -14 q 354 19 438 -14 q 225 114 271 53 q 184 200 197 150 q 171 336 171 250 l 171 1011 l 46 1038 l 46 1069 l 440 1069 l 440 1038 l 317 1011 l 317 315 m 386 1229 q 407 1284 386 1263 q 463 1306 428 1306 q 519 1284 499 1306 q 539 1229 539 1263 q 519 1175 539 1197 q 463 1153 499 1153 q 407 1175 428 1153 q 386 1229 386 1197 m 646 1229 q 667 1284 646 1263 q 722 1306 688 1306 q 778 1284 758 1306 q 799 1229 799 1263 q 778 1175 799 1197 q 722 1153 758 1153 q 667 1175 688 1153 q 646 1229 646 1197 z "},"Ụ":{"ha":1075,"x_min":46,"x_max":1028,"o":"m 317 315 q 387 115 317 182 q 575 49 457 49 q 706 70 650 49 q 794 135 763 92 q 835 239 822 172 q 847 417 847 306 l 847 1011 l 724 1038 l 724 1069 l 1028 1069 l 1028 1038 l 903 1011 l 903 358 q 890 211 903 271 q 850 111 878 151 q 731 19 810 51 q 546 -14 651 -14 q 354 19 438 -14 q 225 114 271 53 q 184 200 197 150 q 171 336 171 250 l 171 1011 l 46 1038 l 46 1069 l 440 1069 l 440 1038 l 317 1011 l 317 315 m 468 -267 q 492 -202 468 -228 q 557 -176 517 -176 q 623 -202 599 -176 q 647 -267 647 -228 q 623 -329 647 -303 q 557 -356 599 -356 q 492 -329 517 -356 q 468 -267 468 -303 z "},"Ù":{"ha":1075,"x_min":46,"x_max":1028,"o":"m 317 315 q 387 115 317 182 q 575 49 457 49 q 706 70 650 49 q 794 135 763 92 q 835 239 822 172 q 847 417 847 306 l 847 1011 l 724 1038 l 724 1069 l 1028 1069 l 1028 1038 l 903 1011 l 903 358 q 890 211 903 271 q 850 111 878 151 q 731 19 810 51 q 546 -14 651 -14 q 354 19 438 -14 q 225 114 271 53 q 184 200 197 150 q 171 336 171 250 l 171 1011 l 46 1038 l 46 1069 l 440 1069 l 440 1038 l 317 1011 l 317 315 m 732 1133 l 521 1194 q 447 1230 467 1210 q 426 1274 426 1250 q 444 1317 426 1300 q 486 1333 463 1333 q 547 1311 517 1333 l 747 1163 l 732 1133 z "},"Ű":{"ha":1075,"x_min":46,"x_max":1028,"o":"m 317 315 q 387 115 317 182 q 575 49 457 49 q 706 70 650 49 q 794 135 763 92 q 835 239 822 172 q 847 417 847 306 l 847 1011 l 724 1038 l 724 1069 l 1028 1069 l 1028 1038 l 903 1011 l 903 358 q 890 211 903 271 q 850 111 878 151 q 731 19 810 51 q 546 -14 651 -14 q 354 19 438 -14 q 225 114 271 53 q 184 200 197 150 q 171 336 171 250 l 171 1011 l 46 1038 l 46 1069 l 440 1069 l 440 1038 l 317 1011 l 317 315 m 417 1163 l 526 1283 q 611 1333 572 1333 q 652 1317 636 1333 q 668 1275 668 1300 q 649 1235 668 1251 q 574 1194 631 1218 l 432 1133 l 417 1163 m 658 1163 l 768 1283 q 853 1333 814 1333 q 894 1317 878 1333 q 910 1275 910 1300 q 891 1235 910 1251 q 815 1194 872 1218 l 674 1133 l 658 1163 z "},"Ū":{"ha":1075,"x_min":46,"x_max":1028,"o":"m 317 315 q 387 115 317 182 q 575 49 457 49 q 706 70 650 49 q 794 135 763 92 q 835 239 822 172 q 847 417 847 306 l 847 1011 l 724 1038 l 724 1069 l 1028 1069 l 1028 1038 l 903 1011 l 903 358 q 890 211 903 271 q 850 111 878 151 q 731 19 810 51 q 546 -14 651 -14 q 354 19 438 -14 q 225 114 271 53 q 184 200 197 150 q 171 336 171 250 l 171 1011 l 46 1038 l 46 1069 l 440 1069 l 440 1038 l 317 1011 l 317 315 m 394 1218 l 394 1317 l 793 1317 l 793 1218 l 394 1218 z "},"Ų":{"ha":1075,"x_min":46,"x_max":1028,"o":"m 689 -281 q 536 -356 624 -356 q 433 -323 471 -356 q 394 -233 394 -290 q 431 -124 394 -182 q 535 -14 468 -67 q 350 22 431 -11 q 225 114 269 54 q 184 200 197 150 q 171 336 171 250 l 171 1011 l 46 1038 l 46 1069 l 440 1069 l 440 1038 l 317 1011 l 317 315 q 387 115 317 182 q 575 49 457 49 q 706 70 650 49 q 794 135 763 92 q 835 239 822 172 q 847 417 847 306 l 847 1011 l 724 1038 l 724 1069 l 1028 1069 l 1028 1038 l 903 1011 l 903 358 q 890 211 903 271 q 850 111 878 151 q 751 28 814 60 q 603 -11 688 -3 q 517 -200 517 -115 q 590 -279 517 -279 q 627 -272 610 -279 q 668 -250 644 -265 l 689 -281 z "},"Ů":{"ha":1075,"x_min":46,"x_max":1028,"o":"m 317 315 q 387 115 317 182 q 575 49 457 49 q 706 70 650 49 q 794 135 763 92 q 835 239 822 172 q 847 417 847 306 l 847 1011 l 724 1038 l 724 1069 l 1028 1069 l 1028 1038 l 903 1011 l 903 358 q 890 211 903 271 q 850 111 878 151 q 731 19 810 51 q 546 -14 651 -14 q 354 19 438 -14 q 225 114 271 53 q 184 200 197 150 q 171 336 171 250 l 171 1011 l 46 1038 l 46 1069 l 440 1069 l 440 1038 l 317 1011 l 317 315 m 593 1153 q 522 1181 549 1153 q 496 1250 496 1208 q 524 1319 496 1292 q 593 1347 551 1347 q 663 1319 635 1347 q 690 1250 690 1292 q 663 1181 690 1208 q 593 1153 635 1153 m 544 1250 q 558 1215 544 1228 q 593 1201 571 1201 q 628 1215 615 1201 q 642 1250 642 1228 q 628 1285 642 1272 q 593 1299 615 1299 q 558 1285 571 1299 q 544 1250 544 1272 z "},"Ũ":{"ha":1075,"x_min":46,"x_max":1028,"o":"m 317 315 q 387 115 317 182 q 575 49 457 49 q 706 70 650 49 q 794 135 763 92 q 835 239 822 172 q 847 417 847 306 l 847 1011 l 724 1038 l 724 1069 l 1028 1069 l 1028 1038 l 903 1011 l 903 358 q 890 211 903 271 q 850 111 878 151 q 731 19 810 51 q 546 -14 651 -14 q 354 19 438 -14 q 225 114 271 53 q 184 200 197 150 q 171 336 171 250 l 171 1011 l 46 1038 l 46 1069 l 440 1069 l 440 1038 l 317 1011 l 317 315 m 399 1171 q 431 1285 399 1242 q 515 1329 464 1329 q 565 1322 539 1329 q 619 1305 592 1314 q 672 1288 646 1296 q 722 1281 699 1281 q 792 1333 781 1281 l 825 1333 q 792 1215 825 1261 q 708 1169 760 1169 q 658 1178 683 1169 q 606 1197 632 1186 q 553 1215 579 1207 q 503 1224 528 1224 q 432 1171 439 1224 l 399 1171 z "},"V":{"ha":1001,"x_min":-11,"x_max":1036,"o":"m 493 -14 l 131 953 q 113 992 122 976 q 88 1017 103 1007 q 49 1031 72 1026 q -11 1038 25 1035 l -11 1069 l 440 1069 l 440 1038 q 365 1032 393 1035 q 320 1025 336 1029 q 299 1013 304 1021 q 294 994 294 1006 q 300 967 294 983 q 313 931 306 950 l 547 254 l 554 254 l 774 886 q 784 922 781 906 q 788 951 788 938 q 756 1007 788 988 q 646 1038 725 1026 l 646 1069 l 1036 1069 l 1036 1038 q 947 1018 981 1029 q 893 989 914 1007 q 860 946 872 971 q 835 883 847 921 l 517 -14 l 493 -14 z "},"W":{"ha":1514,"x_min":-18,"x_max":1542,"o":"m 486 -14 l 124 953 q 106 992 115 976 q 81 1017 96 1007 q 42 1031 65 1026 q -18 1038 18 1035 l -18 1069 l 433 1069 l 433 1038 q 356 1030 385 1033 q 311 1022 326 1026 q 292 1012 296 1018 q 288 996 288 1006 q 291 972 288 985 q 306 931 294 960 l 540 254 l 547 254 l 717 800 l 660 953 q 642 992 651 976 q 617 1017 632 1007 q 578 1031 601 1026 q 518 1038 554 1035 l 518 1069 l 969 1069 l 969 1038 q 891 1031 919 1035 q 848 1022 863 1026 q 830 1009 833 1017 q 826 992 826 1001 q 842 931 826 972 l 1076 254 l 1083 254 l 1279 886 q 1292 953 1292 925 q 1262 1008 1292 989 q 1151 1038 1232 1026 l 1151 1069 l 1542 1069 l 1542 1038 q 1452 1018 1486 1029 q 1397 990 1418 1007 q 1365 947 1376 972 q 1340 883 1353 921 l 1054 -14 l 1022 -14 l 750 713 l 518 -14 l 486 -14 z "},"Ẃ":{"ha":1514,"x_min":-18,"x_max":1542,"o":"m 486 -14 l 124 953 q 106 992 115 976 q 81 1017 96 1007 q 42 1031 65 1026 q -18 1038 18 1035 l -18 1069 l 433 1069 l 433 1038 q 356 1030 385 1033 q 311 1022 326 1026 q 292 1012 296 1018 q 288 996 288 1006 q 291 972 288 985 q 306 931 294 960 l 540 254 l 547 254 l 717 800 l 660 953 q 642 992 651 976 q 617 1017 632 1007 q 578 1031 601 1026 q 518 1038 554 1035 l 518 1069 l 969 1069 l 969 1038 q 891 1031 919 1035 q 848 1022 863 1026 q 830 1009 833 1017 q 826 992 826 1001 q 842 931 826 972 l 1076 254 l 1083 254 l 1279 886 q 1292 953 1292 925 q 1262 1008 1292 989 q 1151 1038 1232 1026 l 1151 1069 l 1542 1069 l 1542 1038 q 1452 1018 1486 1029 q 1397 990 1418 1007 q 1365 947 1376 972 q 1340 883 1353 921 l 1054 -14 l 1022 -14 l 750 713 l 518 -14 l 486 -14 m 592 1163 l 792 1311 q 853 1333 822 1333 q 894 1317 876 1333 q 913 1274 913 1300 q 892 1230 913 1250 q 818 1194 872 1210 l 607 1133 l 592 1163 z "},"Ŵ":{"ha":1514,"x_min":-18,"x_max":1542,"o":"m 486 -14 l 124 953 q 106 992 115 976 q 81 1017 96 1007 q 42 1031 65 1026 q -18 1038 18 1035 l -18 1069 l 433 1069 l 433 1038 q 356 1030 385 1033 q 311 1022 326 1026 q 292 1012 296 1018 q 288 996 288 1006 q 291 972 288 985 q 306 931 294 960 l 540 254 l 547 254 l 717 800 l 660 953 q 642 992 651 976 q 617 1017 632 1007 q 578 1031 601 1026 q 518 1038 554 1035 l 518 1069 l 969 1069 l 969 1038 q 891 1031 919 1035 q 848 1022 863 1026 q 830 1009 833 1017 q 826 992 826 1001 q 842 931 826 972 l 1076 254 l 1083 254 l 1279 886 q 1292 953 1292 925 q 1262 1008 1292 989 q 1151 1038 1232 1026 l 1151 1069 l 1542 1069 l 1542 1038 q 1452 1018 1486 1029 q 1397 990 1418 1007 q 1365 947 1376 972 q 1340 883 1353 921 l 1054 -14 l 1022 -14 l 750 713 l 518 -14 l 486 -14 m 740 1333 q 781 1324 764 1333 q 817 1296 797 1315 l 946 1163 l 919 1139 l 740 1219 l 564 1139 l 536 1163 l 667 1296 q 699 1324 685 1314 q 740 1333 714 1333 z "},"Ẅ":{"ha":1514,"x_min":-18,"x_max":1542,"o":"m 486 -14 l 124 953 q 106 992 115 976 q 81 1017 96 1007 q 42 1031 65 1026 q -18 1038 18 1035 l -18 1069 l 433 1069 l 433 1038 q 356 1030 385 1033 q 311 1022 326 1026 q 292 1012 296 1018 q 288 996 288 1006 q 291 972 288 985 q 306 931 294 960 l 540 254 l 547 254 l 717 800 l 660 953 q 642 992 651 976 q 617 1017 632 1007 q 578 1031 601 1026 q 518 1038 554 1035 l 518 1069 l 969 1069 l 969 1038 q 891 1031 919 1035 q 848 1022 863 1026 q 830 1009 833 1017 q 826 992 826 1001 q 842 931 826 972 l 1076 254 l 1083 254 l 1279 886 q 1292 953 1292 925 q 1262 1008 1292 989 q 1151 1038 1232 1026 l 1151 1069 l 1542 1069 l 1542 1038 q 1452 1018 1486 1029 q 1397 990 1418 1007 q 1365 947 1376 972 q 1340 883 1353 921 l 1054 -14 l 1022 -14 l 750 713 l 518 -14 l 486 -14 m 533 1229 q 554 1284 533 1263 q 610 1306 575 1306 q 666 1284 646 1306 q 686 1229 686 1263 q 666 1175 686 1197 q 610 1153 646 1153 q 554 1175 575 1153 q 533 1229 533 1197 m 793 1229 q 814 1284 793 1263 q 869 1306 835 1306 q 926 1284 906 1306 q 946 1229 946 1263 q 926 1175 946 1197 q 869 1153 906 1153 q 814 1175 835 1153 q 793 1229 793 1197 z "},"Ẁ":{"ha":1514,"x_min":-18,"x_max":1542,"o":"m 486 -14 l 124 953 q 106 992 115 976 q 81 1017 96 1007 q 42 1031 65 1026 q -18 1038 18 1035 l -18 1069 l 433 1069 l 433 1038 q 356 1030 385 1033 q 311 1022 326 1026 q 292 1012 296 1018 q 288 996 288 1006 q 291 972 288 985 q 306 931 294 960 l 540 254 l 547 254 l 717 800 l 660 953 q 642 992 651 976 q 617 1017 632 1007 q 578 1031 601 1026 q 518 1038 554 1035 l 518 1069 l 969 1069 l 969 1038 q 891 1031 919 1035 q 848 1022 863 1026 q 830 1009 833 1017 q 826 992 826 1001 q 842 931 826 972 l 1076 254 l 1083 254 l 1279 886 q 1292 953 1292 925 q 1262 1008 1292 989 q 1151 1038 1232 1026 l 1151 1069 l 1542 1069 l 1542 1038 q 1452 1018 1486 1029 q 1397 990 1418 1007 q 1365 947 1376 972 q 1340 883 1353 921 l 1054 -14 l 1022 -14 l 750 713 l 518 -14 l 486 -14 m 897 1133 l 686 1194 q 612 1230 632 1210 q 592 1274 592 1250 q 610 1317 592 1300 q 651 1333 628 1333 q 713 1311 682 1333 l 913 1163 l 897 1133 z "},"X":{"ha":1093,"x_min":-14,"x_max":1096,"o":"m -14 28 q 58 40 26 33 q 114 58 89 47 q 158 86 139 69 q 196 126 178 103 l 490 524 l 193 978 q 174 1001 185 992 q 145 1017 163 1010 q 101 1028 128 1024 q 33 1038 75 1033 l 33 1069 l 453 1069 l 453 1038 q 374 1028 392 1035 q 357 1010 357 1021 q 360 990 357 1000 q 375 963 364 979 l 590 633 l 814 938 q 836 988 836 968 q 812 1019 836 1007 q 733 1038 788 1031 l 733 1069 l 1078 1069 l 1078 1038 q 1013 1024 1040 1031 q 965 1006 986 1017 q 925 981 943 996 q 888 942 907 965 l 622 585 l 946 90 q 969 65 956 75 q 999 47 982 54 q 1040 37 1017 40 q 1096 31 1064 33 l 1096 0 l 679 0 l 679 31 q 766 42 744 36 q 788 58 788 47 q 783 76 788 65 q 765 106 778 86 l 525 471 l 269 128 q 246 74 246 96 q 274 45 246 56 q 363 28 301 35 l 363 0 l -14 0 l -14 28 z "},"Y":{"ha":985,"x_min":-11,"x_max":1008,"o":"m 292 32 l 417 58 l 417 454 l 135 953 q 112 990 122 975 q 86 1014 101 1004 q 48 1029 71 1024 q -11 1038 25 1035 l -11 1069 l 444 1069 l 444 1038 q 370 1031 399 1035 q 326 1020 342 1026 q 304 1005 310 1014 q 299 986 299 996 q 317 931 299 964 l 546 521 l 551 521 l 744 886 q 761 946 761 919 q 617 1038 761 1026 l 617 1069 l 1008 1069 l 1008 1038 q 922 1017 953 1029 q 871 986 890 1004 q 838 943 851 968 q 807 883 825 918 l 563 429 l 563 58 l 686 32 l 686 0 l 292 0 l 292 32 z "},"Ý":{"ha":985,"x_min":-11,"x_max":1008,"o":"m 292 32 l 417 58 l 417 454 l 135 953 q 112 990 122 975 q 86 1014 101 1004 q 48 1029 71 1024 q -11 1038 25 1035 l -11 1069 l 444 1069 l 444 1038 q 370 1031 399 1035 q 326 1020 342 1026 q 304 1005 310 1014 q 299 986 299 996 q 317 931 299 964 l 546 521 l 551 521 l 744 886 q 761 946 761 919 q 617 1038 761 1026 l 617 1069 l 1008 1069 l 1008 1038 q 922 1017 953 1029 q 871 986 890 1004 q 838 943 851 968 q 807 883 825 918 l 563 429 l 563 58 l 686 32 l 686 0 l 292 0 l 292 32 m 400 1163 l 600 1311 q 661 1333 631 1333 q 703 1317 685 1333 q 721 1274 721 1300 q 701 1230 721 1250 q 626 1194 681 1210 l 415 1133 l 400 1163 z "},"Ŷ":{"ha":985,"x_min":-11,"x_max":1008,"o":"m 292 32 l 417 58 l 417 454 l 135 953 q 112 990 122 975 q 86 1014 101 1004 q 48 1029 71 1024 q -11 1038 25 1035 l -11 1069 l 444 1069 l 444 1038 q 370 1031 399 1035 q 326 1020 342 1026 q 304 1005 310 1014 q 299 986 299 996 q 317 931 299 964 l 546 521 l 551 521 l 744 886 q 761 946 761 919 q 617 1038 761 1026 l 617 1069 l 1008 1069 l 1008 1038 q 922 1017 953 1029 q 871 986 890 1004 q 838 943 851 968 q 807 883 825 918 l 563 429 l 563 58 l 686 32 l 686 0 l 292 0 l 292 32 m 543 1333 q 583 1324 567 1333 q 619 1296 600 1315 l 749 1163 l 722 1139 l 543 1219 l 367 1139 l 339 1163 l 469 1296 q 502 1324 488 1314 q 543 1333 517 1333 z "},"Ÿ":{"ha":985,"x_min":-11,"x_max":1008,"o":"m 292 32 l 417 58 l 417 454 l 135 953 q 112 990 122 975 q 86 1014 101 1004 q 48 1029 71 1024 q -11 1038 25 1035 l -11 1069 l 444 1069 l 444 1038 q 370 1031 399 1035 q 326 1020 342 1026 q 304 1005 310 1014 q 299 986 299 996 q 317 931 299 964 l 546 521 l 551 521 l 744 886 q 761 946 761 919 q 617 1038 761 1026 l 617 1069 l 1008 1069 l 1008 1038 q 922 1017 953 1029 q 871 986 890 1004 q 838 943 851 968 q 807 883 825 918 l 563 429 l 563 58 l 686 32 l 686 0 l 292 0 l 292 32 m 339 1229 q 360 1284 339 1263 q 415 1306 381 1306 q 472 1284 451 1306 q 492 1229 492 1263 q 472 1175 492 1197 q 415 1153 451 1153 q 360 1175 381 1153 q 339 1229 339 1197 m 599 1229 q 619 1284 599 1263 q 675 1306 640 1306 q 731 1284 711 1306 q 751 1229 751 1263 q 731 1175 751 1197 q 675 1153 711 1153 q 619 1175 640 1153 q 599 1229 599 1197 z "},"Ỳ":{"ha":985,"x_min":-11,"x_max":1008,"o":"m 292 32 l 417 58 l 417 454 l 135 953 q 112 990 122 975 q 86 1014 101 1004 q 48 1029 71 1024 q -11 1038 25 1035 l -11 1069 l 444 1069 l 444 1038 q 370 1031 399 1035 q 326 1020 342 1026 q 304 1005 310 1014 q 299 986 299 996 q 317 931 299 964 l 546 521 l 551 521 l 744 886 q 761 946 761 919 q 617 1038 761 1026 l 617 1069 l 1008 1069 l 1008 1038 q 922 1017 953 1029 q 871 986 890 1004 q 838 943 851 968 q 807 883 825 918 l 563 429 l 563 58 l 686 32 l 686 0 l 292 0 l 292 32 m 683 1133 l 472 1194 q 398 1230 418 1210 q 378 1274 378 1250 q 396 1317 378 1300 q 438 1333 414 1333 q 499 1311 468 1333 l 699 1163 l 683 1133 z "},"Ỹ":{"ha":985,"x_min":-11,"x_max":1008,"o":"m 292 32 l 417 58 l 417 454 l 135 953 q 112 990 122 975 q 86 1014 101 1004 q 48 1029 71 1024 q -11 1038 25 1035 l -11 1069 l 444 1069 l 444 1038 q 370 1031 399 1035 q 326 1020 342 1026 q 304 1005 310 1014 q 299 986 299 996 q 317 931 299 964 l 546 521 l 551 521 l 744 886 q 761 946 761 919 q 617 1038 761 1026 l 617 1069 l 1008 1069 l 1008 1038 q 922 1017 953 1029 q 871 986 890 1004 q 838 943 851 968 q 807 883 825 918 l 563 429 l 563 58 l 686 32 l 686 0 l 292 0 l 292 32 m 331 1171 q 363 1285 331 1242 q 447 1329 396 1329 q 497 1322 471 1329 q 551 1305 524 1314 q 604 1288 578 1296 q 654 1281 631 1281 q 724 1333 713 1281 l 757 1333 q 724 1215 757 1261 q 640 1169 692 1169 q 590 1178 615 1169 q 538 1197 564 1186 q 485 1215 511 1207 q 435 1224 460 1224 q 364 1171 371 1224 l 331 1171 z "},"Z":{"ha":939,"x_min":43,"x_max":878,"o":"m 865 1069 l 865 1032 l 226 56 l 690 56 l 707 81 q 789 226 756 156 q 842 343 822 296 l 878 339 l 806 0 l 43 0 l 43 39 l 679 1014 l 238 1014 l 221 983 q 156 853 181 908 q 121 765 132 797 l 85 767 l 143 1069 l 865 1069 z "},"Ź":{"ha":939,"x_min":43,"x_max":878,"o":"m 865 1069 l 865 1032 l 226 56 l 690 56 l 707 81 q 789 226 756 156 q 842 343 822 296 l 878 339 l 806 0 l 43 0 l 43 39 l 679 1014 l 238 1014 l 221 983 q 156 853 181 908 q 121 765 132 797 l 85 767 l 143 1069 l 865 1069 m 342 1163 l 542 1311 q 603 1333 572 1333 q 644 1317 626 1333 q 663 1274 663 1300 q 642 1230 663 1250 q 568 1194 622 1210 l 357 1133 l 342 1163 z "},"Ž":{"ha":939,"x_min":43,"x_max":878,"o":"m 865 1069 l 865 1032 l 226 56 l 690 56 l 707 81 q 789 226 756 156 q 842 343 822 296 l 878 339 l 806 0 l 43 0 l 43 39 l 679 1014 l 238 1014 l 221 983 q 156 853 181 908 q 121 765 132 797 l 85 767 l 143 1069 l 865 1069 m 501 1153 q 460 1163 475 1153 q 428 1190 446 1172 l 297 1324 l 325 1347 l 501 1267 l 681 1347 l 707 1324 l 578 1190 q 542 1162 558 1171 q 501 1153 525 1153 z "},"Ż":{"ha":939,"x_min":43,"x_max":878,"o":"m 865 1069 l 865 1032 l 226 56 l 690 56 l 707 81 q 789 226 756 156 q 842 343 822 296 l 878 339 l 806 0 l 43 0 l 43 39 l 679 1014 l 238 1014 l 221 983 q 156 853 181 908 q 121 765 132 797 l 85 767 l 143 1069 l 865 1069 m 422 1242 q 447 1306 422 1281 q 511 1332 471 1332 q 577 1306 553 1332 q 601 1242 601 1281 q 577 1179 601 1206 q 511 1153 553 1153 q 447 1179 471 1153 q 422 1242 422 1206 z "},"Ẓ":{"ha":939,"x_min":43,"x_max":878,"o":"m 865 1069 l 865 1032 l 226 56 l 690 56 l 707 81 q 789 226 756 156 q 842 343 822 296 l 878 339 l 806 0 l 43 0 l 43 39 l 679 1014 l 238 1014 l 221 983 q 156 853 181 908 q 121 765 132 797 l 85 767 l 143 1069 l 865 1069 m 353 -267 q 377 -202 353 -228 q 442 -176 401 -176 q 508 -202 483 -176 q 532 -267 532 -228 q 508 -329 532 -303 q 442 -356 483 -356 q 377 -329 401 -356 q 353 -267 353 -303 z "},"a":{"ha":729,"x_min":68,"x_max":724,"o":"m 235 -14 q 114 33 160 -14 q 68 156 68 81 q 88 237 68 201 q 153 301 108 272 q 272 355 199 331 q 449 401 344 379 l 449 538 q 424 661 449 625 q 338 697 399 697 q 243 669 278 697 q 208 592 208 640 q 210 567 208 581 q 211 543 211 554 q 191 485 211 507 q 139 463 171 463 q 93 481 111 463 q 75 529 75 499 q 116 624 75 575 q 225 707 157 672 q 401 750 308 750 q 503 731 461 750 q 563 676 544 713 q 572 651 568 664 q 577 617 575 638 q 580 567 579 597 q 581 494 581 538 l 581 176 q 591 83 581 107 q 632 60 601 60 q 667 69 651 60 q 700 100 682 78 l 724 79 q 658 8 692 29 q 579 -14 624 -14 q 456 111 469 -14 l 451 114 q 353 20 411 54 q 235 -14 296 -14 m 296 68 q 381 92 340 68 q 449 161 421 117 l 449 361 q 326 331 375 346 q 247 294 276 315 q 204 247 217 274 q 192 185 192 221 q 219 98 192 128 q 296 68 246 68 z "},"á":{"ha":729,"x_min":68,"x_max":724,"o":"m 235 -14 q 114 33 160 -14 q 68 156 68 81 q 88 237 68 201 q 153 301 108 272 q 272 355 199 331 q 449 401 344 379 l 449 538 q 424 661 449 625 q 338 697 399 697 q 243 669 278 697 q 208 592 208 640 q 210 567 208 581 q 211 543 211 554 q 191 485 211 507 q 139 463 171 463 q 93 481 111 463 q 75 529 75 499 q 116 624 75 575 q 225 707 157 672 q 401 750 308 750 q 503 731 461 750 q 563 676 544 713 q 572 651 568 664 q 577 617 575 638 q 580 567 579 597 q 581 494 581 538 l 581 176 q 591 83 581 107 q 632 60 601 60 q 667 69 651 60 q 700 100 682 78 l 724 79 q 658 8 692 29 q 579 -14 624 -14 q 456 111 469 -14 l 451 114 q 353 20 411 54 q 235 -14 296 -14 m 296 68 q 381 92 340 68 q 449 161 421 117 l 449 361 q 326 331 375 346 q 247 294 276 315 q 204 247 217 274 q 192 185 192 221 q 219 98 192 128 q 296 68 246 68 m 294 892 l 372 1128 q 401 1176 383 1158 q 449 1193 418 1193 q 487 1176 471 1193 q 503 1133 503 1160 q 494 1096 503 1115 q 461 1049 485 1076 l 324 876 l 294 892 z "},"ă":{"ha":729,"x_min":68,"x_max":724,"o":"m 235 -14 q 114 33 160 -14 q 68 156 68 81 q 88 237 68 201 q 153 301 108 272 q 272 355 199 331 q 449 401 344 379 l 449 538 q 424 661 449 625 q 338 697 399 697 q 243 669 278 697 q 208 592 208 640 q 210 567 208 581 q 211 543 211 554 q 191 485 211 507 q 139 463 171 463 q 93 481 111 463 q 75 529 75 499 q 116 624 75 575 q 225 707 157 672 q 401 750 308 750 q 503 731 461 750 q 563 676 544 713 q 572 651 568 664 q 577 617 575 638 q 580 567 579 597 q 581 494 581 538 l 581 176 q 591 83 581 107 q 632 60 601 60 q 667 69 651 60 q 700 100 682 78 l 724 79 q 658 8 692 29 q 579 -14 624 -14 q 456 111 469 -14 l 451 114 q 353 20 411 54 q 235 -14 296 -14 m 296 68 q 381 92 340 68 q 449 161 421 117 l 449 361 q 326 331 375 346 q 247 294 276 315 q 204 247 217 274 q 192 185 192 221 q 219 98 192 128 q 296 68 246 68 m 239 1097 q 297 1028 256 1049 q 386 1007 338 1007 q 473 1028 432 1007 q 538 1097 514 1049 l 585 1097 q 542 994 568 1032 q 488 936 517 956 q 431 910 460 917 q 381 904 403 904 q 319 914 350 904 q 261 947 288 924 q 215 1006 235 969 q 190 1097 196 1043 l 239 1097 z "},"â":{"ha":729,"x_min":68,"x_max":724,"o":"m 235 -14 q 114 33 160 -14 q 68 156 68 81 q 88 237 68 201 q 153 301 108 272 q 272 355 199 331 q 449 401 344 379 l 449 538 q 424 661 449 625 q 338 697 399 697 q 243 669 278 697 q 208 592 208 640 q 210 567 208 581 q 211 543 211 554 q 191 485 211 507 q 139 463 171 463 q 93 481 111 463 q 75 529 75 499 q 116 624 75 575 q 225 707 157 672 q 401 750 308 750 q 503 731 461 750 q 563 676 544 713 q 572 651 568 664 q 577 617 575 638 q 580 567 579 597 q 581 494 581 538 l 581 176 q 591 83 581 107 q 632 60 601 60 q 667 69 651 60 q 700 100 682 78 l 724 79 q 658 8 692 29 q 579 -14 624 -14 q 456 111 469 -14 l 451 114 q 353 20 411 54 q 235 -14 296 -14 m 296 68 q 381 92 340 68 q 449 161 421 117 l 449 361 q 326 331 375 346 q 247 294 276 315 q 204 247 217 274 q 192 185 192 221 q 219 98 192 128 q 296 68 246 68 m 390 1190 q 426 1180 414 1190 q 449 1150 439 1169 l 565 889 l 535 872 l 385 1068 l 238 872 l 210 889 l 326 1150 q 349 1180 335 1169 q 390 1190 364 1190 z "},"´":{"ha":236,"x_min":14,"x_max":222,"o":"m 14 892 l 92 1128 q 120 1176 103 1158 q 168 1193 138 1193 q 206 1176 190 1193 q 222 1133 222 1160 q 213 1096 222 1115 q 181 1049 204 1076 l 43 876 l 14 892 z "},"ä":{"ha":729,"x_min":68,"x_max":724,"o":"m 235 -14 q 114 33 160 -14 q 68 156 68 81 q 88 237 68 201 q 153 301 108 272 q 272 355 199 331 q 449 401 344 379 l 449 538 q 424 661 449 625 q 338 697 399 697 q 243 669 278 697 q 208 592 208 640 q 210 567 208 581 q 211 543 211 554 q 191 485 211 507 q 139 463 171 463 q 93 481 111 463 q 75 529 75 499 q 116 624 75 575 q 225 707 157 672 q 401 750 308 750 q 503 731 461 750 q 563 676 544 713 q 572 651 568 664 q 577 617 575 638 q 580 567 579 597 q 581 494 581 538 l 581 176 q 591 83 581 107 q 632 60 601 60 q 667 69 651 60 q 700 100 682 78 l 724 79 q 658 8 692 29 q 579 -14 624 -14 q 456 111 469 -14 l 451 114 q 353 20 411 54 q 235 -14 296 -14 m 296 68 q 381 92 340 68 q 449 161 421 117 l 449 361 q 326 331 375 346 q 247 294 276 315 q 204 247 217 274 q 192 185 192 221 q 219 98 192 128 q 296 68 246 68 m 161 1007 q 182 1062 161 1040 q 238 1083 203 1083 q 294 1062 274 1083 q 314 1007 314 1040 q 294 953 314 975 q 238 931 274 931 q 182 953 203 931 q 161 1007 161 975 m 421 1007 q 442 1062 421 1040 q 497 1083 463 1083 q 553 1062 533 1083 q 574 1007 574 1040 q 553 953 574 975 q 497 931 533 931 q 442 953 463 931 q 421 1007 421 975 z "},"æ":{"ha":1161,"x_min":68,"x_max":1104,"o":"m 236 -14 q 115 33 161 -14 q 68 154 68 79 q 88 236 68 200 q 153 301 108 272 q 271 355 199 331 q 449 401 343 379 l 449 538 q 424 661 449 625 q 338 697 399 697 q 243 669 278 697 q 208 592 208 640 q 210 567 208 581 q 211 543 211 554 q 191 485 211 507 q 139 463 171 463 q 93 481 111 463 q 75 529 75 499 q 116 624 75 575 q 225 707 157 672 q 401 750 308 750 q 506 728 461 750 q 569 658 551 707 q 681 726 618 703 q 819 750 743 750 q 1029 671 957 750 q 1104 436 1101 592 l 1094 428 l 588 428 q 645 169 588 251 q 826 88 703 88 q 953 112 894 88 q 1049 181 1013 136 l 1065 201 l 1089 188 l 1081 168 q 965 35 1044 83 q 782 -14 885 -14 q 613 29 686 -14 q 497 150 539 72 l 492 150 q 372 29 442 72 q 236 -14 301 -14 m 807 707 q 660 645 715 707 q 590 467 604 583 l 954 479 q 958 502 957 486 q 958 535 958 518 q 807 707 958 707 m 294 68 q 393 102 343 68 q 478 192 443 136 q 449 361 449 264 q 326 331 375 346 q 247 294 276 315 q 204 247 217 274 q 192 185 192 221 q 219 99 192 129 q 294 68 246 68 z "},"ǽ":{"ha":1161,"x_min":68,"x_max":1104,"o":"m 236 -14 q 115 33 161 -14 q 68 154 68 79 q 88 236 68 200 q 153 301 108 272 q 271 355 199 331 q 449 401 343 379 l 449 538 q 424 661 449 625 q 338 697 399 697 q 243 669 278 697 q 208 592 208 640 q 210 567 208 581 q 211 543 211 554 q 191 485 211 507 q 139 463 171 463 q 93 481 111 463 q 75 529 75 499 q 116 624 75 575 q 225 707 157 672 q 401 750 308 750 q 506 728 461 750 q 569 658 551 707 q 681 726 618 703 q 819 750 743 750 q 1029 671 957 750 q 1104 436 1101 592 l 1094 428 l 588 428 q 645 169 588 251 q 826 88 703 88 q 953 112 894 88 q 1049 181 1013 136 l 1065 201 l 1089 188 l 1081 168 q 965 35 1044 83 q 782 -14 885 -14 q 613 29 686 -14 q 497 150 539 72 l 492 150 q 372 29 442 72 q 236 -14 301 -14 m 807 707 q 660 645 715 707 q 590 467 604 583 l 954 479 q 958 502 957 486 q 958 535 958 518 q 807 707 958 707 m 294 68 q 393 102 343 68 q 478 192 443 136 q 449 361 449 264 q 326 331 375 346 q 247 294 276 315 q 204 247 217 274 q 192 185 192 221 q 219 99 192 129 q 294 68 246 68 m 517 892 l 594 1128 q 623 1176 606 1158 q 671 1193 640 1193 q 709 1176 693 1193 q 725 1133 725 1160 q 716 1096 725 1115 q 683 1049 707 1076 l 546 876 l 517 892 z "},"à":{"ha":729,"x_min":68,"x_max":724,"o":"m 235 -14 q 114 33 160 -14 q 68 156 68 81 q 88 237 68 201 q 153 301 108 272 q 272 355 199 331 q 449 401 344 379 l 449 538 q 424 661 449 625 q 338 697 399 697 q 243 669 278 697 q 208 592 208 640 q 210 567 208 581 q 211 543 211 554 q 191 485 211 507 q 139 463 171 463 q 93 481 111 463 q 75 529 75 499 q 116 624 75 575 q 225 707 157 672 q 401 750 308 750 q 503 731 461 750 q 563 676 544 713 q 572 651 568 664 q 577 617 575 638 q 580 567 579 597 q 581 494 581 538 l 581 176 q 591 83 581 107 q 632 60 601 60 q 667 69 651 60 q 700 100 682 78 l 724 79 q 658 8 692 29 q 579 -14 624 -14 q 456 111 469 -14 l 451 114 q 353 20 411 54 q 235 -14 296 -14 m 296 68 q 381 92 340 68 q 449 161 421 117 l 449 361 q 326 331 375 346 q 247 294 276 315 q 204 247 217 274 q 192 185 192 221 q 219 98 192 128 q 296 68 246 68 m 443 876 l 306 1049 q 273 1096 282 1076 q 264 1133 264 1115 q 280 1176 264 1160 q 318 1193 296 1193 q 366 1176 349 1193 q 394 1128 383 1158 l 472 892 l 443 876 z "},"ā":{"ha":729,"x_min":68,"x_max":724,"o":"m 235 -14 q 114 33 160 -14 q 68 156 68 81 q 88 237 68 201 q 153 301 108 272 q 272 355 199 331 q 449 401 344 379 l 449 538 q 424 661 449 625 q 338 697 399 697 q 243 669 278 697 q 208 592 208 640 q 210 567 208 581 q 211 543 211 554 q 191 485 211 507 q 139 463 171 463 q 93 481 111 463 q 75 529 75 499 q 116 624 75 575 q 225 707 157 672 q 401 750 308 750 q 503 731 461 750 q 563 676 544 713 q 572 651 568 664 q 577 617 575 638 q 580 567 579 597 q 581 494 581 538 l 581 176 q 591 83 581 107 q 632 60 601 60 q 667 69 651 60 q 700 100 682 78 l 724 79 q 658 8 692 29 q 579 -14 624 -14 q 456 111 469 -14 l 451 114 q 353 20 411 54 q 235 -14 296 -14 m 296 68 q 381 92 340 68 q 449 161 421 117 l 449 361 q 326 331 375 346 q 247 294 276 315 q 204 247 217 274 q 192 185 192 221 q 219 98 192 128 q 296 68 246 68 m 178 985 l 178 1083 l 576 1083 l 576 985 l 178 985 z "},"&":{"ha":1128,"x_min":125,"x_max":1107,"o":"m 385 599 q 331 678 351 642 q 299 744 310 714 q 284 799 288 775 q 281 843 281 824 q 301 942 281 897 q 357 1017 322 986 q 438 1066 392 1049 q 535 1083 485 1083 q 611 1072 575 1083 q 675 1040 647 1061 q 719 989 703 1019 q 735 919 735 958 q 688 790 735 858 q 528 639 642 721 l 811 289 q 867 417 847 351 q 888 544 888 482 q 884 573 888 563 q 867 591 881 583 q 826 603 853 599 q 753 613 800 607 l 753 646 l 1107 646 l 1107 613 q 1033 603 1061 608 q 990 588 1006 597 q 967 563 974 578 q 954 524 960 547 q 915 397 942 471 q 844 247 889 322 l 988 71 l 1107 32 l 1107 0 l 865 0 l 760 131 q 674 57 718 85 q 588 13 631 29 q 504 -8 544 -3 q 426 -14 464 -14 q 199 60 272 -14 q 125 250 125 133 q 139 342 125 300 q 183 426 153 385 q 264 508 214 467 q 385 599 314 550 m 269 311 q 281 219 269 264 q 319 141 293 175 q 388 86 346 107 q 488 65 429 65 q 540 70 511 65 q 599 87 568 75 q 661 119 629 99 q 725 174 693 140 l 414 561 q 341 495 369 528 q 297 432 313 463 q 275 371 281 401 q 269 311 269 340 m 640 885 q 603 996 640 958 q 506 1033 565 1033 q 415 1003 453 1033 q 378 906 378 972 q 383 865 378 886 q 401 816 388 843 q 438 754 414 789 q 499 674 461 719 q 610 778 579 729 q 640 885 640 826 z "},"ą":{"ha":731,"x_min":68,"x_max":732,"o":"m 732 -281 q 579 -356 667 -356 q 475 -322 513 -356 q 438 -235 438 -289 q 474 -125 438 -182 q 578 -14 510 -68 q 456 111 469 -12 l 451 114 q 353 20 411 54 q 235 -14 296 -14 q 114 33 160 -14 q 68 156 68 81 q 88 237 68 201 q 153 301 108 272 q 272 355 199 331 q 449 401 344 379 l 449 538 q 424 661 449 625 q 338 697 399 697 q 243 669 278 697 q 208 592 208 640 q 210 567 208 581 q 211 543 211 554 q 191 485 211 507 q 139 463 171 463 q 93 481 111 463 q 75 529 75 499 q 116 624 75 575 q 225 707 157 672 q 401 750 308 750 q 503 731 461 750 q 563 676 544 713 q 572 651 568 664 q 577 617 575 638 q 580 567 579 597 q 581 494 581 538 l 581 176 q 591 83 581 107 q 632 60 601 60 q 667 69 651 60 q 700 100 682 78 l 724 79 l 639 -19 q 582 -102 604 -60 q 560 -196 560 -144 q 633 -279 560 -279 q 670 -272 653 -279 q 711 -250 688 -265 l 732 -281 m 296 68 q 381 92 340 68 q 449 161 421 117 l 449 361 q 326 331 375 346 q 247 294 276 315 q 204 247 217 274 q 192 185 192 221 q 219 98 192 128 q 296 68 246 68 z "},"ʼ":{"ha":188,"x_min":14,"x_max":174,"o":"m 29 922 q 77 964 58 942 q 96 1001 96 986 q 83 1032 96 1022 q 55 1051 71 1042 q 26 1074 39 1061 q 14 1113 14 1086 q 36 1168 14 1146 q 92 1190 58 1190 q 151 1161 128 1190 q 174 1092 174 1132 q 51 889 174 967 l 29 922 z "},"å":{"ha":729,"x_min":68,"x_max":724,"o":"m 235 -14 q 114 33 160 -14 q 68 156 68 81 q 88 237 68 201 q 153 301 108 272 q 272 355 199 331 q 449 401 344 379 l 449 538 q 424 661 449 625 q 338 697 399 697 q 243 669 278 697 q 208 592 208 640 q 210 567 208 581 q 211 543 211 554 q 191 485 211 507 q 139 463 171 463 q 93 481 111 463 q 75 529 75 499 q 116 624 75 575 q 225 707 157 672 q 401 750 308 750 q 503 731 461 750 q 563 676 544 713 q 572 651 568 664 q 577 617 575 638 q 580 567 579 597 q 581 494 581 538 l 581 176 q 591 83 581 107 q 632 60 601 60 q 667 69 651 60 q 700 100 682 78 l 724 79 q 658 8 692 29 q 579 -14 624 -14 q 456 111 469 -14 l 451 114 q 353 20 411 54 q 235 -14 296 -14 m 296 68 q 381 92 340 68 q 449 161 421 117 l 449 361 q 326 331 375 346 q 247 294 276 315 q 204 247 217 274 q 192 185 192 221 q 219 98 192 128 q 296 68 246 68 m 379 904 q 295 938 326 904 q 264 1019 264 971 q 297 1101 264 1068 q 379 1135 331 1135 q 461 1101 428 1135 q 494 1019 494 1068 q 461 938 494 971 q 379 904 428 904 m 313 1019 q 331 971 313 989 q 379 953 349 953 q 428 971 410 953 q 446 1019 446 989 q 428 1068 446 1050 q 379 1086 410 1086 q 331 1068 349 1086 q 313 1019 313 1050 z "},"ǻ":{"ha":729,"x_min":68,"x_max":724,"o":"m 235 -14 q 114 33 160 -14 q 68 156 68 81 q 88 237 68 201 q 153 301 108 272 q 272 355 199 331 q 449 401 344 379 l 449 538 q 424 661 449 625 q 338 697 399 697 q 243 669 278 697 q 208 592 208 640 q 210 567 208 581 q 211 543 211 554 q 191 485 211 507 q 139 463 171 463 q 93 481 111 463 q 75 529 75 499 q 116 624 75 575 q 225 707 157 672 q 401 750 308 750 q 503 731 461 750 q 563 676 544 713 q 572 651 568 664 q 577 617 575 638 q 580 567 579 597 q 581 494 581 538 l 581 176 q 591 83 581 107 q 632 60 601 60 q 667 69 651 60 q 700 100 682 78 l 724 79 q 658 8 692 29 q 579 -14 624 -14 q 456 111 469 -14 l 451 114 q 353 20 411 54 q 235 -14 296 -14 m 367 856 q 283 889 314 856 q 251 971 251 922 q 258 1013 251 992 l 335 1244 q 363 1292 346 1275 q 411 1310 381 1310 q 449 1293 433 1310 q 465 1250 465 1276 q 456 1213 465 1232 q 424 1165 447 1193 l 360 1086 q 448 1053 414 1086 q 482 971 482 1019 q 449 889 482 922 q 367 856 415 856 m 296 68 q 381 92 340 68 q 449 161 421 117 l 449 361 q 326 331 375 346 q 247 294 276 315 q 204 247 217 274 q 192 185 192 221 q 219 98 192 128 q 296 68 246 68 m 300 971 q 318 922 300 940 q 367 904 336 904 q 415 922 397 904 q 433 971 433 940 q 415 1019 433 1001 q 367 1038 397 1038 q 318 1019 336 1038 q 300 971 300 1001 z "},"^":{"ha":693,"x_min":65,"x_max":628,"o":"m 65 461 l 322 988 l 372 988 l 628 461 l 569 461 l 349 901 l 343 901 l 125 461 l 65 461 z "},"~":{"ha":817,"x_min":111,"x_max":708,"o":"m 111 310 q 119 369 111 336 q 145 431 126 403 q 195 479 164 460 q 275 499 226 499 q 349 488 313 499 q 423 463 386 476 q 497 438 460 449 q 572 426 533 426 q 638 447 619 426 q 667 499 657 467 l 708 499 q 701 438 708 471 q 674 377 693 406 q 624 329 656 349 q 544 310 592 310 q 470 322 507 310 q 397 347 433 333 q 322 372 360 360 q 247 383 285 383 q 181 363 200 383 q 153 310 163 342 l 111 310 z "},"*":{"ha":668,"x_min":88,"x_max":581,"o":"m 350 850 l 357 803 q 376 719 364 756 q 388 656 388 683 q 374 616 388 632 q 336 600 361 600 q 297 617 311 600 q 283 661 283 633 q 297 728 283 692 q 315 804 310 764 l 321 850 l 282 821 q 244 785 261 804 q 213 751 228 767 q 181 724 197 735 q 144 714 165 714 q 103 729 118 714 q 88 768 88 744 q 103 803 88 792 q 145 823 119 815 q 202 838 171 831 q 264 858 233 844 l 304 876 l 261 894 q 200 913 231 907 q 144 926 169 919 q 103 945 119 933 q 88 982 88 957 q 102 1022 88 1006 q 144 1038 117 1038 q 181 1027 165 1038 q 211 1001 196 1017 q 243 965 226 985 q 283 929 260 946 l 319 903 l 314 950 q 295 1026 308 996 q 282 1089 282 1056 q 297 1138 282 1122 q 335 1153 313 1153 q 371 1138 356 1153 q 386 1089 386 1122 q 381 1057 386 1072 q 372 1026 376 1042 q 361 991 367 1010 q 354 947 356 972 l 350 903 l 385 931 q 428 971 411 951 q 460 1006 446 990 q 490 1030 475 1021 q 524 1039 504 1039 q 567 1022 553 1039 q 581 983 581 1006 q 565 947 581 958 q 524 928 549 935 q 468 915 499 921 q 407 896 438 908 l 364 878 l 404 860 q 469 838 438 844 q 525 824 500 831 q 565 805 550 817 q 581 769 581 793 q 565 730 581 744 q 524 715 549 715 q 487 726 503 715 q 456 752 471 736 q 424 787 440 768 q 386 822 407 806 l 350 850 z "},"@":{"ha":1215,"x_min":79,"x_max":1126,"o":"m 581 -199 q 394 -172 485 -199 q 233 -87 303 -146 q 122 62 164 -29 q 79 282 79 153 q 126 530 79 418 q 255 722 174 642 q 442 845 336 801 q 668 889 549 889 q 859 855 774 889 q 1003 762 944 821 q 1094 624 1063 703 q 1126 456 1126 544 q 1101 299 1126 374 q 1033 168 1076 225 q 931 77 989 111 q 806 43 872 43 q 699 76 736 43 q 663 157 663 110 q 663 177 663 169 q 669 190 664 185 l 664 192 q 556 91 611 121 q 450 61 501 61 q 343 108 378 61 q 308 226 308 154 q 339 371 308 297 q 419 503 369 444 q 530 601 468 563 q 656 639 592 639 q 723 624 697 639 q 764 585 749 608 l 769 585 l 785 639 l 896 639 l 783 236 q 774 201 778 219 q 771 167 771 182 q 787 124 771 135 q 828 113 803 113 q 914 138 872 113 q 988 209 956 164 q 1038 316 1019 254 q 1057 451 1057 378 q 1023 619 1057 549 q 933 736 989 690 q 803 804 876 782 q 654 826 731 826 q 445 781 538 826 q 289 660 353 736 q 191 486 225 585 q 157 281 157 388 q 176 133 157 208 q 246 -4 194 57 q 386 -105 297 -65 q 615 -144 475 -144 q 761 -129 703 -144 q 861 -89 819 -114 l 876 -129 q 581 -199 738 -199 m 488 138 q 577 175 532 138 q 658 278 622 213 q 703 378 682 319 q 724 497 724 436 q 710 556 724 533 q 663 579 697 579 q 581 549 622 579 q 506 469 540 518 q 451 356 472 419 q 429 229 429 293 q 443 159 429 181 q 488 138 457 138 z "},"ã":{"ha":729,"x_min":68,"x_max":724,"o":"m 235 -14 q 114 33 160 -14 q 68 156 68 81 q 88 237 68 201 q 153 301 108 272 q 272 355 199 331 q 449 401 344 379 l 449 538 q 424 661 449 625 q 338 697 399 697 q 243 669 278 697 q 208 592 208 640 q 210 567 208 581 q 211 543 211 554 q 191 485 211 507 q 139 463 171 463 q 93 481 111 463 q 75 529 75 499 q 116 624 75 575 q 225 707 157 672 q 401 750 308 750 q 503 731 461 750 q 563 676 544 713 q 572 651 568 664 q 577 617 575 638 q 580 567 579 597 q 581 494 581 538 l 581 176 q 591 83 581 107 q 632 60 601 60 q 667 69 651 60 q 700 100 682 78 l 724 79 q 658 8 692 29 q 579 -14 624 -14 q 456 111 469 -14 l 451 114 q 353 20 411 54 q 235 -14 296 -14 m 296 68 q 381 92 340 68 q 449 161 421 117 l 449 361 q 326 331 375 346 q 247 294 276 315 q 204 247 217 274 q 192 185 192 221 q 219 98 192 128 q 296 68 246 68 m 154 949 q 187 1063 154 1019 q 271 1107 219 1107 q 321 1099 294 1107 q 374 1083 347 1092 q 428 1066 401 1074 q 478 1058 454 1058 q 547 1111 536 1058 l 581 1111 q 548 993 581 1039 q 464 947 515 947 q 413 956 439 947 q 361 974 388 964 q 309 993 335 985 q 258 1001 283 1001 q 188 949 194 1001 l 154 949 z "},"b":{"ha":836,"x_min":19,"x_max":772,"o":"m 406 -14 q 214 50 299 -14 l 207 50 l 143 3 l 121 3 l 121 1029 l 19 1067 l 19 1085 l 240 1153 l 254 1153 l 254 656 q 465 750 342 750 q 590 724 533 750 q 687 652 646 699 q 750 541 728 606 q 772 399 772 476 q 744 235 772 311 q 667 104 717 160 q 551 17 618 49 q 406 -14 483 -14 m 406 33 q 496 57 456 33 q 565 123 536 81 q 608 226 593 165 q 624 360 624 286 q 566 591 624 507 q 407 675 508 675 q 321 656 360 675 q 254 603 282 636 l 254 208 q 295 81 254 129 q 406 33 336 33 z "},"\\":{"ha":506,"x_min":65,"x_max":440,"o":"m 344 -235 l 65 1138 l 163 1138 l 440 -235 l 344 -235 z "},"|":{"ha":378,"x_min":140,"x_max":238,"o":"m 140 -236 l 140 1138 l 238 1138 l 238 -236 l 140 -236 z "},"{":{"ha":454,"x_min":40,"x_max":414,"o":"m 414 -250 q 366 -265 389 -260 q 315 -269 343 -269 q 180 -229 222 -269 q 138 -97 138 -189 q 143 -15 138 -60 q 156 77 149 29 q 168 174 163 125 q 174 269 174 224 q 144 405 174 365 q 40 444 115 444 l 40 476 q 143 516 113 476 q 174 643 174 556 q 168 727 174 682 q 156 817 163 772 q 143 901 149 861 q 138 974 138 942 q 186 1105 138 1060 q 325 1150 235 1150 q 372 1145 350 1150 q 414 1132 393 1140 l 406 1096 q 371 1101 382 1100 q 349 1103 360 1103 q 281 1067 304 1103 q 257 971 257 1032 q 263 902 257 942 q 274 818 268 863 q 286 728 281 774 q 292 644 292 683 q 192 461 292 500 l 192 456 q 268 395 244 435 q 292 281 292 356 q 286 189 292 240 q 274 86 281 138 q 263 -12 268 35 q 257 -90 257 -60 q 278 -188 257 -158 q 349 -218 300 -218 q 406 -210 378 -218 l 414 -250 z "},"}":{"ha":454,"x_min":40,"x_max":414,"o":"m 49 -210 q 106 -218 75 -218 q 176 -188 154 -218 q 197 -90 197 -158 q 192 -12 197 -60 q 180 86 186 35 q 168 189 174 138 q 163 281 163 240 q 186 395 163 356 q 263 456 210 435 l 263 461 q 163 644 163 500 q 168 728 163 683 q 180 818 174 774 q 192 902 186 863 q 197 971 197 942 q 174 1067 197 1032 q 106 1103 150 1103 q 83 1101 94 1103 q 49 1096 72 1100 l 40 1132 q 83 1145 61 1140 q 129 1150 104 1150 q 268 1105 219 1150 q 317 974 317 1060 q 311 901 317 942 q 299 817 306 861 q 286 727 292 772 q 281 643 281 682 q 311 516 281 556 q 414 476 342 476 l 414 444 q 310 405 339 444 q 281 269 281 365 q 286 174 281 224 q 299 77 292 125 q 311 -15 306 29 q 317 -97 317 -60 q 274 -229 317 -189 q 139 -269 232 -269 q 88 -265 111 -269 q 40 -250 65 -260 l 49 -210 z "},"[":{"ha":450,"x_min":140,"x_max":417,"o":"m 140 -260 l 140 1139 l 417 1139 l 417 1094 l 253 1094 l 253 -217 l 417 -217 l 417 -260 l 140 -260 z "},"]":{"ha":450,"x_min":33,"x_max":310,"o":"m 33 -260 l 33 -217 l 197 -217 l 197 1094 l 33 1094 l 33 1139 l 310 1139 l 310 -260 l 33 -260 z "},"˘":{"ha":422,"x_min":14,"x_max":408,"o":"m 63 1097 q 120 1028 79 1049 q 210 1007 161 1007 q 297 1028 256 1007 q 361 1097 338 1049 l 408 1097 q 366 994 392 1032 q 312 936 340 956 q 255 910 283 917 q 204 904 226 904 q 142 914 174 904 q 85 947 111 924 q 39 1006 58 969 q 14 1097 19 1043 l 63 1097 z "},"¦":{"ha":382,"x_min":144,"x_max":238,"o":"m 144 600 l 144 1138 l 238 1138 l 238 600 l 144 600 m 144 -237 l 144 300 l 238 300 l 238 -237 l 144 -237 z "},"•":{"ha":569,"x_min":118,"x_max":451,"o":"m 118 519 q 131 581 118 553 q 167 632 144 610 q 220 667 190 654 q 285 679 250 679 q 349 667 319 679 q 402 632 379 654 q 438 581 425 610 q 451 519 451 553 q 438 458 451 486 q 402 407 425 429 q 349 372 379 385 q 285 360 319 360 q 220 372 250 360 q 167 407 190 385 q 131 458 144 429 q 118 519 118 486 z "},"c":{"ha":743,"x_min":64,"x_max":696,"o":"m 403 -14 q 266 13 328 -14 q 159 90 204 40 q 89 208 114 139 q 64 358 64 276 q 91 516 64 444 q 167 640 118 588 q 284 721 217 692 q 433 750 351 750 q 532 737 486 750 q 611 701 578 724 q 664 649 644 679 q 683 586 683 619 q 667 528 683 550 q 619 507 650 507 q 538 594 547 507 q 526 651 533 629 q 506 685 518 672 q 478 701 494 697 q 438 706 461 706 q 266 619 326 706 q 206 386 206 532 q 268 165 206 243 q 444 88 331 88 q 562 113 507 88 q 654 189 617 138 l 669 210 l 696 196 l 689 178 q 578 36 653 86 q 403 -14 504 -14 z "},"ć":{"ha":743,"x_min":64,"x_max":696,"o":"m 403 -14 q 266 13 328 -14 q 159 90 204 40 q 89 208 114 139 q 64 358 64 276 q 91 516 64 444 q 167 640 118 588 q 284 721 217 692 q 433 750 351 750 q 532 737 486 750 q 611 701 578 724 q 664 649 644 679 q 683 586 683 619 q 667 528 683 550 q 619 507 650 507 q 538 594 547 507 q 526 651 533 629 q 506 685 518 672 q 478 701 494 697 q 438 706 461 706 q 266 619 326 706 q 206 386 206 532 q 268 165 206 243 q 444 88 331 88 q 562 113 507 88 q 654 189 617 138 l 669 210 l 696 196 l 689 178 q 578 36 653 86 q 403 -14 504 -14 m 400 892 l 478 1128 q 506 1176 489 1158 q 554 1193 524 1193 q 592 1176 576 1193 q 608 1133 608 1160 q 599 1096 608 1115 q 567 1049 590 1076 l 429 876 l 400 892 z "},"ˇ":{"ha":383,"x_min":14,"x_max":369,"o":"m 192 875 q 152 885 165 875 q 129 915 139 896 l 14 1176 l 43 1193 l 192 997 l 340 1193 l 369 1176 l 251 915 q 228 885 242 896 q 192 875 215 875 z "},"č":{"ha":743,"x_min":64,"x_max":696,"o":"m 403 -14 q 266 13 328 -14 q 159 90 204 40 q 89 208 114 139 q 64 358 64 276 q 91 516 64 444 q 167 640 118 588 q 284 721 217 692 q 433 750 351 750 q 532 737 486 750 q 611 701 578 724 q 664 649 644 679 q 683 586 683 619 q 667 528 683 550 q 619 507 650 507 q 538 594 547 507 q 526 651 533 629 q 506 685 518 672 q 478 701 494 697 q 438 706 461 706 q 266 619 326 706 q 206 386 206 532 q 268 165 206 243 q 444 88 331 88 q 562 113 507 88 q 654 189 617 138 l 669 210 l 696 196 l 689 178 q 578 36 653 86 q 403 -14 504 -14 m 446 875 q 406 885 419 875 q 383 915 393 896 l 268 1176 l 297 1193 l 446 997 l 594 1193 l 624 1176 l 506 915 q 483 885 496 896 q 446 875 469 875 z "},"ç":{"ha":743,"x_min":64,"x_max":696,"o":"m 290 -282 q 331 -301 314 -296 q 368 -306 347 -306 q 434 -285 410 -306 q 458 -233 458 -265 q 392 -174 458 -174 q 321 -185 357 -174 l 308 -172 l 376 -12 q 249 21 307 -8 q 151 99 192 50 q 87 213 110 147 q 64 358 64 279 q 91 516 64 444 q 167 640 118 588 q 284 721 217 692 q 433 750 351 750 q 532 737 486 750 q 611 701 578 724 q 664 649 644 679 q 683 586 683 619 q 667 528 683 550 q 619 507 650 507 q 538 594 547 507 q 526 651 533 629 q 506 685 518 672 q 478 701 494 697 q 438 706 461 706 q 266 619 326 706 q 206 386 206 532 q 268 165 206 243 q 444 88 331 88 q 562 113 507 88 q 654 189 617 138 l 669 210 l 696 196 l 689 178 q 588 43 656 92 q 429 -12 521 -6 l 403 -81 q 520 -119 478 -81 q 563 -217 563 -158 q 513 -317 563 -278 q 379 -357 464 -357 q 318 -348 347 -357 q 271 -324 289 -339 l 290 -282 z "},"ĉ":{"ha":743,"x_min":64,"x_max":696,"o":"m 403 -14 q 266 13 328 -14 q 159 90 204 40 q 89 208 114 139 q 64 358 64 276 q 91 516 64 444 q 167 640 118 588 q 284 721 217 692 q 433 750 351 750 q 532 737 486 750 q 611 701 578 724 q 664 649 644 679 q 683 586 683 619 q 667 528 683 550 q 619 507 650 507 q 538 594 547 507 q 526 651 533 629 q 506 685 518 672 q 478 701 494 697 q 438 706 461 706 q 266 619 326 706 q 206 386 206 532 q 268 165 206 243 q 444 88 331 88 q 562 113 507 88 q 654 189 617 138 l 669 210 l 696 196 l 689 178 q 578 36 653 86 q 403 -14 504 -14 m 451 1190 q 488 1180 475 1190 q 510 1150 500 1169 l 626 889 l 596 872 l 446 1068 l 299 872 l 271 889 l 388 1150 q 410 1180 396 1169 q 451 1190 425 1190 z "},"ċ":{"ha":743,"x_min":64,"x_max":696,"o":"m 403 -14 q 266 13 328 -14 q 159 90 204 40 q 89 208 114 139 q 64 358 64 276 q 91 516 64 444 q 167 640 118 588 q 284 721 217 692 q 433 750 351 750 q 532 737 486 750 q 611 701 578 724 q 664 649 644 679 q 683 586 683 619 q 667 528 683 550 q 619 507 650 507 q 538 594 547 507 q 526 651 533 629 q 506 685 518 672 q 478 701 494 697 q 438 706 461 706 q 266 619 326 706 q 206 386 206 532 q 268 165 206 243 q 444 88 331 88 q 562 113 507 88 q 654 189 617 138 l 669 210 l 696 196 l 689 178 q 578 36 653 86 q 403 -14 504 -14 m 358 993 q 383 1058 358 1032 q 447 1083 407 1083 q 513 1058 489 1083 q 538 993 538 1032 q 513 931 538 957 q 447 904 489 904 q 383 931 407 904 q 358 993 358 957 z "},"¸":{"ha":319,"x_min":14,"x_max":306,"o":"m 33 -282 q 74 -301 57 -296 q 111 -306 90 -306 q 177 -285 153 -306 q 201 -233 201 -265 q 135 -174 201 -174 q 64 -185 100 -174 l 51 -172 l 135 24 l 186 24 l 146 -81 q 263 -119 221 -81 q 306 -217 306 -158 q 256 -317 306 -278 q 122 -357 207 -357 q 61 -348 90 -357 q 14 -324 32 -339 l 33 -282 z "},"¢":{"ha":769,"x_min":72,"x_max":706,"o":"m 450 750 q 551 735 504 749 q 633 700 599 722 q 686 649 667 678 q 706 586 706 619 q 689 528 706 550 q 642 507 672 507 q 586 528 606 507 q 560 594 567 550 q 524 673 551 647 q 450 704 497 699 l 450 88 q 570 113 515 88 q 663 189 625 138 l 678 210 l 704 196 l 697 178 q 601 46 665 94 q 450 -11 538 -3 l 450 -181 l 392 -181 l 392 -12 q 262 20 321 -8 q 161 97 203 49 q 96 213 119 146 q 72 358 72 279 q 95 505 72 438 q 160 623 118 572 q 262 706 203 674 q 392 747 321 739 l 392 931 l 450 931 l 450 750 m 214 386 q 260 189 214 264 q 392 94 306 114 l 392 703 q 324 670 356 696 q 267 603 292 644 q 228 508 243 563 q 214 386 214 453 z "},"ˆ":{"ha":383,"x_min":14,"x_max":369,"o":"m 194 1190 q 231 1180 218 1190 q 253 1150 243 1169 l 369 889 l 339 872 l 189 1068 l 42 872 l 14 889 l 131 1150 q 153 1180 139 1169 q 194 1190 168 1190 z "},":":{"ha":394,"x_min":101,"x_max":293,"o":"m 101 557 q 127 626 101 599 q 196 654 153 654 q 267 626 240 654 q 293 557 293 599 q 267 490 293 518 q 196 463 240 463 q 127 490 153 463 q 101 557 101 518 m 101 81 q 127 150 101 122 q 196 178 153 178 q 267 150 240 178 q 293 81 293 122 q 267 14 293 42 q 196 -14 240 -14 q 127 14 153 -14 q 101 81 101 42 z "},",":{"ha":365,"x_min":86,"x_max":278,"o":"m 104 -169 q 167 -107 143 -140 q 190 -50 190 -74 q 174 -13 190 -25 q 138 10 158 -1 q 102 37 118 21 q 86 85 86 53 q 113 151 86 125 q 179 178 139 178 q 251 143 224 178 q 278 60 278 108 q 241 -91 278 -25 q 132 -210 204 -157 l 104 -169 z "},"":{"ha":181,"x_min":14,"x_max":167,"o":"m 22 -322 q 65 -284 49 -304 q 82 -250 82 -264 q 72 -222 82 -232 q 48 -203 61 -212 q 24 -183 35 -194 q 14 -146 14 -171 q 36 -95 14 -115 q 92 -75 58 -75 q 146 -102 125 -75 q 167 -167 167 -129 q 44 -356 167 -283 l 22 -322 z "},"©":{"ha":1253,"x_min":75,"x_max":1178,"o":"m 75 535 q 118 747 75 647 q 236 922 161 847 q 412 1040 311 997 q 626 1083 513 1083 q 841 1040 740 1083 q 1017 922 942 997 q 1135 747 1092 847 q 1178 535 1178 647 q 1135 322 1178 422 q 1017 147 1092 222 q 841 29 942 72 q 626 -14 740 -14 q 412 29 513 -14 q 236 147 311 72 q 118 322 161 222 q 75 535 75 422 m 147 535 q 185 347 147 435 q 287 192 222 258 q 439 88 351 126 q 626 49 526 49 q 814 88 726 49 q 966 192 901 126 q 1067 347 1031 258 q 1104 535 1104 435 q 1067 723 1104 635 q 966 877 1031 811 q 814 982 901 943 q 626 1021 726 1021 q 439 982 526 1021 q 287 877 351 943 q 185 723 222 811 q 147 535 147 635 m 319 535 q 342 665 319 606 q 406 766 365 724 q 501 833 446 808 q 622 857 557 857 q 793 801 718 857 l 799 801 l 832 854 l 851 854 l 851 656 l 821 656 q 807 694 814 679 q 790 725 800 710 q 728 789 764 769 q 644 808 693 808 q 500 740 549 808 q 451 543 451 671 q 501 342 451 413 q 642 271 550 271 q 782 344 731 271 q 806 390 796 364 q 824 449 817 417 l 851 449 l 851 225 l 832 225 l 796 289 q 715 240 756 256 q 621 224 674 224 q 499 247 554 224 q 404 310 444 269 q 342 408 364 351 q 319 535 319 465 z "},"¤":{"ha":881,"x_min":107,"x_max":774,"o":"m 174 176 l 107 243 l 200 335 q 142 511 142 406 q 200 686 142 611 l 107 776 l 174 843 l 265 750 q 440 808 339 808 q 617 751 536 808 l 707 843 l 774 776 l 681 685 q 739 511 739 611 q 682 335 739 413 l 774 243 l 707 176 l 615 269 q 440 211 542 211 q 265 269 340 211 l 174 176 m 440 300 q 518 317 482 300 q 582 362 554 333 q 626 428 610 390 q 642 510 642 467 q 626 591 642 553 q 582 658 610 629 q 518 703 554 686 q 440 719 482 719 q 363 703 399 719 q 299 658 326 686 q 255 592 271 629 q 239 511 239 554 q 255 430 239 468 q 299 363 271 392 q 363 317 326 333 q 440 300 399 300 z "},"d":{"ha":843,"x_min":65,"x_max":806,"o":"m 353 -14 q 239 14 292 -14 q 147 91 186 42 q 87 208 108 140 q 65 356 65 276 q 92 515 65 443 q 167 640 118 588 q 282 721 215 692 q 431 750 349 750 q 581 729 507 750 l 581 1028 l 479 1067 l 479 1085 l 697 1153 l 711 1153 l 711 108 l 806 88 l 806 72 l 600 -14 l 590 -14 l 590 106 l 585 108 q 481 16 540 46 q 353 -14 422 -14 m 411 76 q 511 99 465 76 q 581 158 557 121 l 581 556 q 428 708 581 708 q 340 685 379 708 q 272 618 300 661 q 227 514 243 575 q 211 378 211 453 q 264 157 211 238 q 411 76 317 76 z "},"†":{"ha":675,"x_min":42,"x_max":633,"o":"m 322 -189 q 311 20 317 -71 q 298 185 306 111 q 280 318 290 258 q 257 432 269 378 q 292 591 278 503 q 317 797 306 679 q 240 792 271 797 q 189 779 210 786 q 151 767 168 772 q 115 761 135 761 q 63 780 83 761 q 42 826 42 799 q 63 871 42 854 q 117 888 85 888 q 131 887 124 888 q 147 883 138 886 q 172 875 157 881 q 213 860 188 869 q 265 844 235 851 q 317 833 296 836 l 317 850 q 310 917 317 885 q 296 980 304 950 q 281 1035 288 1010 q 275 1082 275 1061 q 292 1133 275 1114 q 336 1151 308 1151 q 383 1133 367 1151 q 400 1082 400 1114 q 394 1035 400 1061 q 379 980 388 1010 q 365 917 371 950 q 358 850 358 885 l 358 833 q 397 842 369 835 q 457 860 425 849 q 503 875 486 869 q 531 883 521 881 q 546 887 540 886 q 558 888 551 888 q 613 870 592 888 q 633 825 633 853 q 613 779 633 797 q 561 761 593 761 q 525 767 542 761 q 487 779 508 772 q 435 792 465 786 q 358 797 404 797 q 381 597 367 685 q 418 432 394 508 q 394 317 404 376 q 376 183 383 257 q 363 19 368 110 q 353 -189 357 -72 l 322 -189 z "},"‡":{"ha":736,"x_min":72,"x_max":664,"o":"m 449 481 q 411 338 425 414 q 389 164 397 263 q 465 169 435 164 q 517 182 496 175 q 556 194 539 189 q 592 200 572 200 q 644 182 624 200 q 664 136 664 164 q 643 91 664 108 q 589 74 622 74 q 558 78 578 74 q 488 101 539 83 q 432 119 457 113 q 389 128 407 125 l 389 111 q 395 44 389 76 q 410 -19 401 11 q 424 -74 418 -49 q 431 -121 431 -100 q 414 -172 431 -153 q 367 -190 397 -190 q 322 -172 339 -190 q 306 -121 306 -153 q 312 -74 306 -100 q 326 -19 318 -49 q 341 44 335 11 q 347 111 347 76 l 347 128 q 296 117 326 125 q 243 101 265 110 q 203 86 218 92 q 178 78 188 81 q 161 74 168 75 q 147 74 154 74 q 94 90 115 74 q 72 135 72 107 q 93 181 72 163 q 146 200 114 200 q 182 194 165 200 q 219 182 199 189 q 271 169 240 175 q 347 164 301 164 q 322 344 336 268 q 288 481 308 419 q 322 617 308 542 q 347 797 336 693 q 271 792 301 797 q 219 779 240 786 q 182 767 199 772 q 146 761 165 761 q 93 780 114 761 q 72 826 72 799 q 94 871 72 854 q 147 888 115 888 q 159 887 153 888 q 175 883 165 886 q 201 875 185 881 q 243 860 217 869 q 296 844 265 851 q 347 833 326 836 l 347 850 q 341 917 347 885 q 326 980 335 950 q 312 1035 318 1010 q 306 1082 306 1061 q 322 1133 306 1114 q 367 1151 339 1151 q 414 1133 397 1151 q 431 1082 431 1114 q 424 1035 431 1061 q 410 980 418 1010 q 395 917 401 950 q 389 850 389 885 l 389 833 q 427 842 400 835 q 488 860 454 849 q 532 875 515 869 q 559 883 549 881 q 576 887 569 886 q 589 888 582 888 q 643 870 622 888 q 664 825 664 853 q 644 779 664 797 q 592 761 624 761 q 556 767 572 761 q 517 779 539 772 q 465 792 496 786 q 389 797 435 797 q 411 623 397 699 q 449 481 425 547 z "},"ď":{"ha":843,"x_min":65,"x_max":919,"o":"m 353 -14 q 239 14 292 -14 q 147 91 186 42 q 87 208 108 140 q 65 356 65 276 q 92 515 65 443 q 167 640 118 588 q 282 721 215 692 q 431 750 349 750 q 581 729 507 750 l 581 1028 l 479 1067 l 479 1085 l 697 1153 l 711 1153 l 711 108 l 806 88 l 806 72 l 600 -14 l 590 -14 l 590 106 l 585 108 q 481 16 540 46 q 353 -14 422 -14 m 411 76 q 511 99 465 76 q 581 158 557 121 l 581 556 q 428 708 581 708 q 340 685 379 708 q 272 618 300 661 q 227 514 243 575 q 211 378 211 453 q 264 157 211 238 q 411 76 317 76 m 799 892 l 808 1118 q 826 1172 811 1153 q 879 1190 842 1190 q 919 1142 919 1190 q 915 1113 919 1129 q 903 1076 910 1097 l 835 892 l 799 892 z "},"đ":{"ha":843,"x_min":65,"x_max":807,"o":"m 353 -14 q 239 14 292 -14 q 147 91 186 42 q 87 208 108 140 q 65 356 65 276 q 92 515 65 443 q 167 640 118 588 q 282 721 215 692 q 431 750 349 750 q 581 729 507 750 l 581 846 l 381 846 l 381 936 l 581 936 l 581 1028 l 479 1067 l 479 1085 l 697 1153 l 711 1153 l 711 936 l 807 936 l 807 846 l 711 846 l 711 108 l 806 88 l 806 72 l 600 -14 l 590 -14 l 590 106 l 585 108 q 481 16 540 46 q 353 -14 422 -14 m 411 76 q 511 99 465 76 q 581 158 557 121 l 581 556 q 428 708 581 708 q 340 685 379 708 q 272 618 300 661 q 227 514 243 575 q 211 378 211 453 q 264 157 211 238 q 411 76 317 76 z "},"ḍ":{"ha":843,"x_min":65,"x_max":806,"o":"m 353 -14 q 239 14 292 -14 q 147 91 186 42 q 87 208 108 140 q 65 356 65 276 q 92 515 65 443 q 167 640 118 588 q 282 721 215 692 q 431 750 349 750 q 581 729 507 750 l 581 1028 l 479 1067 l 479 1085 l 697 1153 l 711 1153 l 711 108 l 806 88 l 806 72 l 600 -14 l 590 -14 l 590 106 l 585 108 q 481 16 540 46 q 353 -14 422 -14 m 411 76 q 511 99 465 76 q 581 158 557 121 l 581 556 q 428 708 581 708 q 340 685 379 708 q 272 618 300 661 q 227 514 243 575 q 211 378 211 453 q 264 157 211 238 q 411 76 317 76 m 338 -267 q 362 -202 338 -228 q 426 -176 386 -176 q 492 -202 468 -176 q 517 -267 517 -228 q 492 -329 517 -303 q 426 -356 468 -356 q 362 -329 386 -356 q 338 -267 338 -303 z "},"°":{"ha":472,"x_min":68,"x_max":404,"o":"m 236 815 q 169 828 200 815 q 117 864 139 842 q 81 917 94 886 q 68 983 68 947 q 81 1049 68 1018 q 117 1103 94 1081 q 169 1140 139 1126 q 236 1153 200 1153 q 301 1140 271 1153 q 355 1103 332 1126 q 391 1049 378 1081 q 404 983 404 1018 q 391 917 404 947 q 356 864 378 886 q 302 828 333 842 q 236 815 271 815 m 125 983 q 156 903 125 935 q 236 872 188 872 q 317 903 286 872 q 347 983 347 935 q 317 1065 347 1033 q 236 1097 286 1097 q 156 1065 188 1097 q 125 983 125 1033 z "},"¨":{"ha":440,"x_min":14,"x_max":426,"o":"m 14 1007 q 35 1062 14 1040 q 90 1083 56 1083 q 147 1062 126 1083 q 167 1007 167 1040 q 147 953 167 975 q 90 931 126 931 q 35 953 56 931 q 14 1007 14 975 m 274 1007 q 294 1062 274 1040 q 350 1083 315 1083 q 406 1062 386 1083 q 426 1007 426 1040 q 406 953 426 975 q 350 931 386 931 q 294 953 315 931 q 274 1007 274 975 z "},"÷":{"ha":729,"x_min":79,"x_max":649,"o":"m 257 713 q 283 782 257 754 q 351 810 308 810 q 422 782 396 810 q 449 713 449 754 q 422 646 449 674 q 351 618 396 618 q 283 646 308 618 q 257 713 257 674 m 257 236 q 283 306 257 278 q 351 333 308 333 q 422 306 396 333 q 449 236 449 278 q 422 169 449 197 q 351 142 396 142 q 283 169 308 142 q 257 236 257 197 m 79 438 l 79 506 l 649 506 l 649 438 l 79 438 z "},"$":{"ha":746,"x_min":72,"x_max":675,"o":"m 415 1083 q 511 1066 467 1081 q 589 1027 556 1051 q 641 971 622 1003 q 660 903 660 939 q 640 843 660 865 q 583 821 619 821 q 526 849 542 821 q 500 915 510 878 q 469 985 488 960 q 415 1022 451 1011 l 415 626 q 509 572 463 600 q 592 506 556 543 q 652 421 629 469 q 675 306 675 372 q 656 192 675 244 q 601 100 636 140 q 519 33 567 60 q 415 -6 471 6 l 415 -142 l 357 -142 l 357 -12 q 244 1 296 -12 q 153 40 192 15 q 94 98 115 65 q 72 168 72 131 q 92 228 72 206 q 147 250 113 250 q 183 242 168 250 q 206 220 197 233 q 222 190 215 207 q 232 156 228 172 q 244 117 238 136 q 265 83 251 99 q 299 58 278 68 q 357 44 321 47 l 357 461 q 260 517 308 488 q 172 583 211 546 q 109 670 133 621 q 85 786 85 719 q 104 895 85 844 q 159 984 124 946 q 245 1047 194 1022 q 357 1081 296 1072 l 357 1233 l 415 1233 l 415 1083 m 547 221 q 509 339 547 292 q 415 424 471 386 l 415 49 q 512 108 476 63 q 547 221 547 153 m 231 864 q 267 747 231 794 q 357 664 303 700 l 357 1024 q 265 974 300 1015 q 231 864 231 932 z "},"˙":{"ha":207,"x_min":14,"x_max":193,"o":"m 14 993 q 38 1058 14 1032 q 103 1083 63 1083 q 169 1058 144 1083 q 193 993 193 1032 q 169 931 193 957 q 103 904 144 904 q 38 931 63 904 q 14 993 14 957 z "},"ı":{"ha":417,"x_min":43,"x_max":385,"o":"m 385 28 l 385 0 l 43 0 l 43 28 l 149 49 l 149 626 l 46 664 l 46 683 l 268 750 l 281 750 l 281 49 l 385 28 z "},"ȷ":{"ha":389,"x_min":-199,"x_max":269,"o":"m 138 626 l 35 664 l 35 683 l 257 750 l 269 750 l 269 215 q 268 49 269 113 q 262 -58 267 -15 q 248 -127 257 -100 q 224 -182 239 -154 q 106 -315 175 -269 q -46 -361 38 -361 q -158 -331 -117 -361 q -199 -247 -199 -300 q -178 -186 -199 -208 q -124 -164 -158 -164 q -76 -180 -94 -164 q -47 -228 -58 -196 q -18 -282 -32 -268 q 22 -296 -4 -296 q 138 -67 138 -296 l 138 626 z "},"e":{"ha":778,"x_min":65,"x_max":721,"o":"m 711 428 l 204 428 l 204 396 q 265 165 204 243 q 444 88 325 88 q 571 112 513 88 q 665 181 629 136 l 682 201 l 706 188 l 697 168 q 581 35 661 83 q 399 -14 501 -14 q 263 13 324 -14 q 158 89 201 40 q 90 206 114 138 q 65 357 65 274 q 92 517 65 444 q 168 641 119 589 q 285 722 217 693 q 436 750 353 750 q 646 671 574 750 q 721 436 718 592 l 711 428 m 424 707 q 276 645 332 707 q 207 467 221 583 l 571 479 q 574 503 574 488 q 575 536 575 519 q 424 707 575 707 z "},"é":{"ha":778,"x_min":65,"x_max":721,"o":"m 711 428 l 204 428 l 204 396 q 265 165 204 243 q 444 88 325 88 q 571 112 513 88 q 665 181 629 136 l 682 201 l 706 188 l 697 168 q 581 35 661 83 q 399 -14 501 -14 q 263 13 324 -14 q 158 89 201 40 q 90 206 114 138 q 65 357 65 274 q 92 517 65 444 q 168 641 119 589 q 285 722 217 693 q 436 750 353 750 q 646 671 574 750 q 721 436 718 592 l 711 428 m 424 707 q 276 645 332 707 q 207 467 221 583 l 571 479 q 574 503 574 488 q 575 536 575 519 q 424 707 575 707 m 340 892 l 418 1128 q 447 1176 429 1158 q 494 1193 464 1193 q 533 1176 517 1193 q 549 1133 549 1160 q 540 1096 549 1115 q 507 1049 531 1076 l 369 876 l 340 892 z "},"ĕ":{"ha":778,"x_min":65,"x_max":721,"o":"m 711 428 l 204 428 l 204 396 q 444 88 204 88 q 571 112 513 88 q 665 181 629 136 l 682 201 l 706 188 l 697 168 q 582 35 661 83 q 399 -14 503 -14 q 263 13 324 -14 q 158 89 201 40 q 90 206 114 138 q 65 357 65 274 q 92 517 65 444 q 168 641 119 589 q 285 722 217 693 q 436 750 353 750 q 721 436 714 750 l 711 428 m 424 707 q 276 646 332 707 q 207 467 221 585 l 571 479 q 574 503 574 488 q 575 536 575 519 q 424 707 575 707 m 304 1097 q 362 1028 321 1049 q 451 1007 403 1007 q 538 1028 497 1007 q 603 1097 579 1049 l 650 1097 q 608 994 633 1032 q 553 936 582 956 q 497 910 525 917 q 446 904 468 904 q 384 914 415 904 q 326 947 353 924 q 281 1006 300 969 q 256 1097 261 1043 l 304 1097 z "},"ě":{"ha":778,"x_min":65,"x_max":721,"o":"m 711 428 l 204 428 l 204 396 q 265 165 204 243 q 444 88 325 88 q 571 112 513 88 q 665 181 629 136 l 682 201 l 706 188 l 697 168 q 581 35 661 83 q 399 -14 501 -14 q 263 13 324 -14 q 158 89 201 40 q 90 206 114 138 q 65 357 65 274 q 92 517 65 444 q 168 641 119 589 q 285 722 217 693 q 436 750 353 750 q 646 671 574 750 q 721 436 718 592 l 711 428 m 424 707 q 276 645 332 707 q 207 467 221 583 l 571 479 q 574 503 574 488 q 575 536 575 519 q 424 707 575 707 m 440 875 q 401 885 414 875 q 378 915 388 896 l 263 1176 l 292 1193 l 440 997 l 589 1193 l 618 1176 l 500 915 q 477 885 490 896 q 440 875 464 875 z "},"ê":{"ha":778,"x_min":65,"x_max":721,"o":"m 711 428 l 204 428 l 204 396 q 265 165 204 243 q 444 88 325 88 q 571 112 513 88 q 665 181 629 136 l 682 201 l 706 188 l 697 168 q 581 35 661 83 q 399 -14 501 -14 q 263 13 324 -14 q 158 89 201 40 q 90 206 114 138 q 65 357 65 274 q 92 517 65 444 q 168 641 119 589 q 285 722 217 693 q 436 750 353 750 q 646 671 574 750 q 721 436 718 592 l 711 428 m 424 707 q 276 645 332 707 q 207 467 221 583 l 571 479 q 574 503 574 488 q 575 536 575 519 q 424 707 575 707 m 446 1190 q 482 1180 469 1190 q 504 1150 494 1169 l 621 889 l 590 872 l 440 1068 l 293 872 l 265 889 l 382 1150 q 405 1180 390 1169 q 446 1190 419 1190 z "},"ë":{"ha":778,"x_min":65,"x_max":721,"o":"m 711 428 l 204 428 l 204 396 q 265 165 204 243 q 444 88 325 88 q 571 112 513 88 q 665 181 629 136 l 682 201 l 706 188 l 697 168 q 581 35 661 83 q 399 -14 501 -14 q 263 13 324 -14 q 158 89 201 40 q 90 206 114 138 q 65 357 65 274 q 92 517 65 444 q 168 641 119 589 q 285 722 217 693 q 436 750 353 750 q 646 671 574 750 q 721 436 718 592 l 711 428 m 424 707 q 276 645 332 707 q 207 467 221 583 l 571 479 q 574 503 574 488 q 575 536 575 519 q 424 707 575 707 m 226 1007 q 247 1062 226 1040 q 303 1083 268 1083 q 359 1062 339 1083 q 379 1007 379 1040 q 359 953 379 975 q 303 931 339 931 q 247 953 268 931 q 226 1007 226 975 m 486 1007 q 507 1062 486 1040 q 563 1083 528 1083 q 619 1062 599 1083 q 639 1007 639 1040 q 619 953 639 975 q 563 931 599 931 q 507 953 528 931 q 486 1007 486 975 z "},"ė":{"ha":778,"x_min":65,"x_max":721,"o":"m 711 428 l 204 428 l 204 396 q 265 165 204 243 q 444 88 325 88 q 571 112 513 88 q 665 181 629 136 l 682 201 l 706 188 l 697 168 q 581 35 661 83 q 399 -14 501 -14 q 263 13 324 -14 q 158 89 201 40 q 90 206 114 138 q 65 357 65 274 q 92 517 65 444 q 168 641 119 589 q 285 722 217 693 q 436 750 353 750 q 646 671 574 750 q 721 436 718 592 l 711 428 m 424 707 q 276 645 332 707 q 207 467 221 583 l 571 479 q 574 503 574 488 q 575 536 575 519 q 424 707 575 707 m 354 993 q 378 1058 354 1032 q 443 1083 403 1083 q 509 1058 485 1083 q 533 993 533 1032 q 509 931 533 957 q 443 904 485 904 q 378 931 403 904 q 354 993 354 957 z "},"ẹ":{"ha":778,"x_min":65,"x_max":721,"o":"m 711 428 l 204 428 l 204 396 q 265 165 204 243 q 444 88 325 88 q 571 112 513 88 q 665 181 629 136 l 682 201 l 706 188 l 697 168 q 581 35 661 83 q 399 -14 501 -14 q 263 13 324 -14 q 158 89 201 40 q 90 206 114 138 q 65 357 65 274 q 92 517 65 444 q 168 641 119 589 q 285 722 217 693 q 436 750 353 750 q 646 671 574 750 q 721 436 718 592 l 711 428 m 424 707 q 276 645 332 707 q 207 467 221 583 l 571 479 q 574 503 574 488 q 575 536 575 519 q 424 707 575 707 m 329 -267 q 353 -202 329 -228 q 418 -176 378 -176 q 484 -202 460 -176 q 508 -267 508 -228 q 484 -329 508 -303 q 418 -356 460 -356 q 353 -329 378 -356 q 329 -267 329 -303 z "},"è":{"ha":778,"x_min":65,"x_max":721,"o":"m 711 428 l 204 428 l 204 396 q 265 165 204 243 q 444 88 325 88 q 571 112 513 88 q 665 181 629 136 l 682 201 l 706 188 l 697 168 q 581 35 661 83 q 399 -14 501 -14 q 263 13 324 -14 q 158 89 201 40 q 90 206 114 138 q 65 357 65 274 q 92 517 65 444 q 168 641 119 589 q 285 722 217 693 q 436 750 353 750 q 646 671 574 750 q 721 436 718 592 l 711 428 m 424 707 q 276 645 332 707 q 207 467 221 583 l 571 479 q 574 503 574 488 q 575 536 575 519 q 424 707 575 707 m 460 876 l 322 1049 q 290 1096 299 1076 q 281 1133 281 1115 q 297 1176 281 1160 q 335 1193 313 1193 q 383 1176 365 1193 q 411 1128 400 1158 l 489 892 l 460 876 z "},"₈":{"ha":586,"x_min":61,"x_max":525,"o":"m 375 188 q 490 97 454 143 q 525 -11 525 50 q 507 -97 525 -57 q 457 -164 489 -136 q 381 -208 425 -192 q 286 -224 338 -224 q 192 -210 233 -224 q 121 -171 150 -196 q 76 -111 92 -146 q 61 -36 61 -76 q 94 58 61 17 q 197 129 126 99 q 113 210 139 167 q 86 310 86 254 q 144 444 86 394 q 294 494 201 494 q 438 451 383 494 q 493 338 493 408 q 463 251 493 289 q 375 188 433 213 m 325 213 q 392 338 392 267 q 364 413 392 386 q 289 440 336 440 q 218 417 244 440 q 192 351 192 393 q 223 278 192 311 q 325 213 254 246 m 242 103 q 175 -26 175 67 q 208 -131 175 -94 q 299 -168 240 -168 q 383 -140 351 -168 q 415 -62 415 -111 q 374 26 415 -14 q 242 103 333 65 z "},"⁸":{"ha":588,"x_min":63,"x_max":526,"o":"m 376 979 q 491 888 456 935 q 526 781 526 842 q 508 695 526 735 q 458 628 490 656 q 383 584 426 600 q 288 568 339 568 q 193 582 235 568 q 122 621 151 596 q 78 681 93 646 q 63 756 63 715 q 95 849 63 808 q 199 921 128 890 q 114 1002 140 958 q 88 1101 88 1046 q 145 1236 88 1186 q 296 1286 203 1286 q 440 1243 385 1286 q 494 1129 494 1200 q 465 1042 494 1081 q 376 979 435 1004 m 326 1004 q 393 1129 393 1058 q 365 1205 393 1178 q 290 1232 338 1232 q 219 1208 246 1232 q 193 1143 193 1185 q 224 1070 193 1103 q 326 1004 256 1038 m 243 894 q 176 765 176 858 q 209 660 176 697 q 300 624 242 624 q 385 652 353 624 q 417 729 417 681 q 376 817 417 778 q 243 894 335 857 z "},"…":{"ha":1142,"x_min":86,"x_max":1056,"o":"m 86 81 q 112 150 86 122 q 181 178 138 178 q 251 150 225 178 q 278 81 278 122 q 251 14 278 42 q 181 -14 225 -14 q 112 14 138 -14 q 86 81 86 42 m 475 81 q 501 150 475 122 q 569 178 526 178 q 640 150 614 178 q 667 81 667 122 q 640 14 667 42 q 569 -14 614 -14 q 501 14 526 -14 q 475 81 475 42 m 864 81 q 890 150 864 122 q 958 178 915 178 q 1029 150 1003 178 q 1056 81 1056 122 q 1029 14 1056 42 q 958 -14 1003 -14 q 890 14 915 -14 q 864 81 864 42 z "},"ē":{"ha":778,"x_min":65,"x_max":721,"o":"m 711 428 l 204 428 l 204 396 q 265 165 204 243 q 444 88 325 88 q 571 112 513 88 q 665 181 629 136 l 682 201 l 706 188 l 697 168 q 581 35 661 83 q 399 -14 501 -14 q 263 13 324 -14 q 158 89 201 40 q 90 206 114 138 q 65 357 65 274 q 92 517 65 444 q 168 641 119 589 q 285 722 217 693 q 436 750 353 750 q 646 671 574 750 q 721 436 718 592 l 711 428 m 424 707 q 276 645 332 707 q 207 467 221 583 l 571 479 q 574 503 574 488 q 575 536 575 519 q 424 707 575 707 m 235 985 l 235 1083 l 633 1083 l 633 985 l 235 985 z "},"—":{"ha":1492,"x_min":107,"x_max":1385,"o":"m 107 308 l 107 392 l 1385 392 l 1385 308 l 107 308 z "},"–":{"ha":1046,"x_min":107,"x_max":939,"o":"m 107 307 l 107 392 l 939 392 l 939 307 l 107 307 z "},"ŋ":{"ha":828,"x_min":43,"x_max":715,"o":"m 385 28 l 385 0 l 43 0 l 43 28 l 149 49 l 149 625 l 46 664 l 46 682 l 261 750 l 275 750 l 275 632 q 402 719 335 689 q 536 750 469 750 q 635 728 592 750 q 697 667 678 706 q 706 642 703 656 q 712 607 710 629 q 715 552 714 585 q 715 469 715 519 l 715 215 q 714 49 715 113 q 708 -58 713 -15 q 694 -127 703 -100 q 669 -182 685 -154 q 552 -315 621 -269 q 400 -361 483 -361 q 288 -331 329 -361 q 247 -247 247 -300 q 267 -186 247 -208 q 322 -164 288 -164 q 369 -180 351 -164 q 399 -228 388 -196 q 428 -282 414 -268 q 468 -296 442 -296 q 583 -67 583 -296 l 583 456 q 580 551 583 515 q 567 610 576 586 q 458 674 540 674 q 363 651 408 674 q 281 588 317 629 l 281 49 l 385 28 z "},"ę":{"ha":778,"x_min":65,"x_max":721,"o":"m 600 -281 q 447 -356 535 -356 q 344 -322 382 -356 q 306 -235 306 -289 q 344 -123 306 -182 q 450 -10 382 -64 q 399 -14 425 -14 q 263 13 324 -14 q 158 89 201 40 q 90 206 114 138 q 65 357 65 274 q 92 517 65 444 q 168 641 119 589 q 285 722 217 693 q 436 750 353 750 q 646 671 574 750 q 721 436 718 592 l 711 428 l 204 428 l 204 396 q 265 166 204 244 q 443 88 325 88 q 570 112 511 88 q 665 181 629 136 l 682 201 l 706 188 l 697 168 q 630 78 675 117 q 536 4 585 39 q 451 -94 475 -40 q 428 -196 428 -149 q 501 -279 428 -279 q 538 -272 521 -279 q 579 -250 556 -265 l 600 -281 m 424 707 q 276 645 332 707 q 207 467 221 583 l 571 479 q 574 503 574 488 q 575 535 575 519 q 424 707 575 707 z "},"=":{"ha":786,"x_min":108,"x_max":678,"o":"m 108 557 l 108 618 l 678 618 l 678 557 l 108 557 m 108 333 l 108 394 l 678 394 l 678 333 l 108 333 z "},"ð":{"ha":819,"x_min":67,"x_max":751,"o":"m 490 925 q 682 679 613 819 q 751 388 751 539 q 725 225 751 299 q 652 98 699 151 q 540 15 606 44 q 394 -14 474 -14 q 263 11 324 -14 q 159 80 203 36 q 91 184 115 124 q 67 315 67 244 q 91 443 67 383 q 157 548 115 503 q 255 619 199 593 q 375 644 311 644 q 491 624 433 644 q 576 572 549 603 q 520 722 565 643 q 408 871 475 800 l 256 772 l 215 836 l 353 925 q 196 1035 278 993 l 221 1083 q 329 1035 278 1063 q 428 974 381 1007 l 572 1068 l 614 1004 l 490 925 m 396 49 q 476 70 439 49 q 539 131 513 92 q 581 222 565 169 q 596 338 596 275 q 591 416 596 374 q 579 490 586 458 q 513 545 554 525 q 426 565 471 565 q 347 546 383 565 q 285 490 311 526 q 246 404 260 454 q 232 293 232 354 q 276 115 232 181 q 396 49 321 49 z "},"ẽ":{"ha":778,"x_min":65,"x_max":721,"o":"m 711 428 l 204 428 l 204 396 q 265 165 204 243 q 444 88 325 88 q 571 112 513 88 q 665 181 629 136 l 682 201 l 706 188 l 697 168 q 581 35 661 83 q 399 -14 501 -14 q 263 13 324 -14 q 158 89 201 40 q 90 206 114 138 q 65 357 65 274 q 92 517 65 444 q 168 641 119 589 q 285 722 217 693 q 436 750 353 750 q 646 671 574 750 q 721 436 718 592 l 711 428 m 424 707 q 276 645 332 707 q 207 467 221 583 l 571 479 q 574 503 574 488 q 575 536 575 519 q 424 707 575 707 m 199 949 q 231 1063 199 1019 q 315 1107 264 1107 q 365 1099 339 1107 q 419 1083 392 1092 q 472 1066 446 1074 q 522 1058 499 1058 q 592 1111 581 1058 l 625 1111 q 592 993 625 1039 q 508 947 560 947 q 458 956 483 947 q 406 974 432 964 q 353 993 379 985 q 303 1001 328 1001 q 232 949 239 1001 l 199 949 z "},"!":{"ha":418,"x_min":119,"x_max":300,"o":"m 188 319 q 172 531 181 431 q 153 717 163 632 q 133 890 142 819 q 125 988 125 961 q 147 1056 125 1028 q 210 1083 169 1083 q 274 1056 254 1083 q 293 992 293 1029 q 285 893 293 964 q 265 722 276 822 q 247 534 256 636 q 231 319 238 432 l 188 319 m 119 75 q 144 141 119 115 q 208 167 168 167 q 276 141 251 167 q 300 75 300 115 q 276 13 300 39 q 208 -14 251 -14 q 144 13 168 -14 q 119 75 119 39 z "},"¡":{"ha":379,"x_min":99,"x_max":279,"o":"m 211 417 q 227 205 218 306 q 246 19 236 104 q 265 -154 257 -83 q 274 -251 274 -225 q 251 -319 274 -292 q 189 -347 229 -347 q 125 -320 144 -347 q 106 -256 106 -293 q 114 -157 106 -228 q 133 14 122 -86 q 152 202 143 100 q 168 417 161 304 l 211 417 m 279 661 q 255 595 279 621 q 190 569 231 569 q 123 595 147 569 q 99 661 99 621 q 123 724 99 697 q 190 750 147 750 q 255 724 231 750 q 279 661 279 697 z "},"f":{"ha":488,"x_min":32,"x_max":624,"o":"m 49 736 l 154 736 q 158 891 154 836 q 175 982 161 946 q 217 1052 189 1021 q 281 1106 244 1083 q 358 1140 317 1128 q 444 1153 400 1153 q 515 1144 482 1153 q 572 1119 547 1135 q 610 1082 596 1104 q 624 1035 624 1060 q 605 985 624 1004 q 556 967 586 967 q 507 989 521 967 q 488 1038 493 1011 q 466 1092 481 1075 q 418 1110 451 1110 q 359 1094 386 1110 q 315 1042 332 1078 q 293 956 300 1010 q 286 813 286 903 l 286 736 l 465 736 l 449 692 l 286 692 l 286 47 l 433 26 l 433 0 l 50 0 l 50 26 l 154 47 l 154 692 l 32 692 l 49 736 z "},"ﬀ":{"ha":942,"x_min":32,"x_max":1078,"o":"m 49 736 l 154 736 q 156 798 154 772 q 160 844 157 824 q 166 878 163 864 q 175 907 169 893 q 220 980 190 947 q 291 1035 250 1013 q 382 1071 332 1058 q 489 1083 432 1083 q 588 1072 543 1083 q 661 1040 632 1060 q 765 1123 701 1093 q 899 1153 828 1153 q 969 1144 936 1153 q 1026 1119 1001 1135 q 1064 1082 1050 1104 q 1078 1035 1078 1060 q 1059 985 1078 1004 q 1010 967 1040 967 q 961 989 975 967 q 942 1038 947 1011 q 920 1092 935 1075 q 872 1110 906 1110 q 813 1094 840 1110 q 769 1042 786 1078 q 747 956 754 1010 q 740 813 740 903 l 740 736 l 919 736 l 903 692 l 740 692 l 740 47 l 888 26 l 888 0 l 504 0 l 504 26 l 608 47 l 608 692 l 286 692 l 286 47 l 433 26 l 433 0 l 50 0 l 50 26 l 154 47 l 154 692 l 32 692 l 49 736 m 608 736 q 609 831 608 790 q 613 901 610 871 q 552 1001 599 965 q 451 1036 506 1036 q 374 1015 411 1036 q 311 946 336 993 q 298 915 303 931 q 290 878 293 900 q 287 822 288 856 q 286 736 286 789 l 608 736 z "},"ﬃ":{"ha":1317,"x_min":32,"x_max":1285,"o":"m 49 736 l 154 736 q 156 798 154 772 q 160 844 157 824 q 166 878 163 864 q 175 907 169 893 q 220 980 190 947 q 291 1035 250 1013 q 382 1071 332 1058 q 489 1083 432 1083 q 591 1071 546 1083 q 665 1038 636 1058 q 781 1122 710 1092 q 935 1153 853 1153 q 1117 1119 1053 1153 q 1182 1026 1182 1085 q 1161 968 1182 990 q 1106 946 1140 946 q 1018 1031 1046 946 q 985 1089 1004 1075 q 922 1103 967 1103 q 828 1081 864 1103 q 765 1013 792 1058 q 746 946 751 989 q 740 813 740 903 l 740 736 l 946 736 l 1168 750 l 1181 750 l 1181 49 l 1285 28 l 1285 0 l 943 0 l 943 28 l 1049 49 l 1049 647 l 946 692 l 740 692 l 740 47 l 888 26 l 888 0 l 504 0 l 504 26 l 608 47 l 608 692 l 286 692 l 286 47 l 433 26 l 433 0 l 50 0 l 50 26 l 154 47 l 154 692 l 32 692 l 49 736 m 608 736 q 613 900 608 842 q 559 1001 601 965 q 450 1036 517 1036 q 368 1015 401 1036 q 311 946 335 993 q 298 915 303 931 q 290 878 293 900 q 287 822 288 856 q 286 736 286 789 l 608 736 z "},"ﬄ":{"ha":1313,"x_min":32,"x_max":1272,"o":"m 50 26 l 154 47 l 154 692 l 32 692 l 49 736 l 154 736 q 156 798 154 772 q 160 844 157 824 q 166 878 163 864 q 175 907 169 893 q 220 980 190 947 q 291 1035 250 1013 q 382 1071 332 1058 q 489 1083 432 1083 q 591 1071 546 1083 q 665 1038 636 1058 q 781 1122 708 1090 q 943 1153 853 1153 q 1033 1147 990 1153 q 1107 1131 1075 1142 q 1158 1108 1139 1121 q 1176 1078 1176 1094 l 1176 47 l 1272 26 l 1272 0 l 951 0 l 951 26 l 1049 47 l 1049 692 l 740 692 l 740 47 l 888 26 l 888 0 l 504 0 l 504 26 l 608 47 l 608 692 l 286 692 l 286 47 l 433 26 l 433 0 l 50 0 l 50 26 m 740 736 l 1049 736 l 1049 979 q 1012 1069 1049 1033 q 918 1106 975 1106 q 824 1084 860 1106 q 765 1015 789 1063 q 752 985 757 1000 q 744 948 747 969 q 741 894 742 926 q 740 813 740 863 l 740 736 m 608 736 q 613 901 608 847 q 558 1001 600 967 q 450 1036 517 1036 q 368 1015 401 1036 q 311 946 335 993 q 298 915 303 931 q 290 878 293 900 q 287 822 288 856 q 286 736 286 789 l 608 736 z "},"ﬁ":{"ha":863,"x_min":32,"x_max":831,"o":"m 49 736 l 154 736 q 155 824 154 786 q 158 891 156 863 q 165 940 161 919 q 175 976 168 961 q 222 1049 192 1017 q 293 1105 253 1082 q 381 1140 333 1128 q 481 1153 429 1153 q 663 1119 599 1153 q 728 1026 728 1085 q 707 968 728 990 q 651 946 686 946 q 564 1031 592 946 q 531 1089 550 1075 q 468 1103 513 1103 q 374 1081 410 1103 q 311 1013 338 1058 q 292 946 297 989 q 286 813 286 903 l 286 736 l 492 736 l 714 750 l 726 750 l 726 49 l 831 28 l 831 0 l 489 0 l 489 28 l 594 49 l 594 647 l 492 692 l 286 692 l 286 47 l 433 26 l 433 0 l 50 0 l 50 26 l 154 47 l 154 692 l 32 692 l 49 736 z "},"ﬂ":{"ha":858,"x_min":32,"x_max":818,"o":"m 49 736 l 154 736 q 155 830 154 792 q 158 895 156 868 q 165 941 161 922 q 175 976 168 960 q 220 1049 190 1017 q 291 1105 250 1082 q 382 1140 332 1128 q 489 1153 432 1153 q 578 1147 536 1153 q 653 1131 621 1142 q 703 1108 685 1121 q 722 1078 722 1094 l 722 47 l 818 26 l 818 0 l 497 0 l 497 26 l 594 47 l 594 692 l 286 692 l 286 47 l 433 26 l 433 0 l 50 0 l 50 26 l 154 47 l 154 692 l 32 692 l 49 736 m 286 736 l 594 736 l 594 985 q 556 1072 594 1038 q 464 1106 518 1106 q 370 1084 406 1106 q 311 1015 335 1063 q 298 985 303 1000 q 290 948 293 969 q 287 894 288 926 q 286 813 286 863 l 286 736 z "},"⅝":{"ha":1193,"x_min":51,"x_max":1129,"o":"m 214 0 l 865 1069 l 963 1069 l 310 0 l 214 0 m 994 356 q 1097 274 1065 315 q 1129 178 1129 232 q 1113 101 1129 136 q 1069 40 1097 65 q 1001 0 1040 14 q 914 -14 961 -14 q 766 33 819 -14 q 713 154 713 81 q 835 303 713 250 q 758 377 782 338 q 735 465 735 417 q 787 587 735 542 q 922 632 839 632 q 1051 593 1001 632 q 1101 490 1101 554 q 994 356 1101 403 m 950 378 q 1010 490 1010 429 q 985 559 1010 535 q 917 583 960 583 q 853 562 876 583 q 829 503 829 540 q 857 438 829 467 q 950 378 885 408 m 875 279 q 814 164 814 246 q 844 69 814 101 q 926 36 874 36 q 1002 62 974 36 q 1031 131 1031 88 q 994 210 1031 175 q 875 279 958 246 m 165 846 q 233 857 197 857 q 383 804 326 857 q 440 665 440 751 q 422 575 440 617 q 373 503 404 533 q 299 455 342 472 q 207 438 257 438 q 95 467 139 438 q 51 543 51 497 q 65 588 51 571 q 103 604 79 604 q 141 586 131 604 q 160 547 151 568 q 182 508 168 526 q 231 490 196 490 q 311 525 279 490 q 343 614 343 560 q 306 703 343 668 q 211 738 269 738 q 126 715 167 738 l 101 715 l 147 1065 l 372 1065 l 396 1106 l 421 1092 l 388 953 l 182 953 l 165 846 z "},"₅":{"ha":531,"x_min":40,"x_max":474,"o":"m 168 231 q 206 239 188 238 q 243 240 224 240 q 410 183 347 240 q 474 31 474 126 q 453 -70 474 -24 q 399 -151 433 -117 q 317 -204 364 -185 q 214 -224 269 -224 q 90 -190 139 -224 q 40 -106 40 -157 q 56 -56 40 -75 q 99 -37 72 -37 q 141 -58 129 -37 q 162 -101 153 -78 q 187 -145 171 -125 q 240 -165 203 -165 q 329 -126 293 -165 q 365 -28 365 -87 q 324 72 365 33 q 218 110 283 110 q 125 85 167 110 l 96 86 l 147 474 l 397 474 q 401 476 399 475 q 405 481 403 476 q 411 494 407 485 q 424 519 415 503 l 451 504 l 414 349 l 186 349 l 168 231 z "},"⁵":{"ha":531,"x_min":40,"x_max":474,"o":"m 168 1022 q 206 1031 188 1029 q 243 1032 224 1032 q 410 975 347 1032 q 474 822 474 918 q 453 722 474 768 q 399 641 433 675 q 317 588 364 607 q 214 568 269 568 q 90 601 139 568 q 40 686 40 635 q 56 735 40 717 q 99 754 72 754 q 141 734 129 754 q 162 690 153 714 q 187 647 171 667 q 240 626 203 626 q 329 665 293 626 q 365 764 365 704 q 324 863 365 825 q 218 901 283 901 q 125 876 167 901 l 96 878 l 147 1265 l 397 1265 q 401 1267 399 1267 q 405 1272 403 1268 q 411 1285 407 1276 q 424 1311 415 1294 l 451 1296 l 414 1140 l 186 1140 l 168 1022 z "},"ƒ":{"ha":938,"x_min":-81,"x_max":904,"o":"m 281 667 l 386 667 q 401 761 394 722 q 415 827 408 800 q 429 872 422 854 q 444 907 436 890 q 572 1035 489 988 q 750 1083 654 1083 q 863 1056 822 1083 q 904 979 904 1028 q 882 920 904 943 q 824 897 860 897 q 783 913 796 897 q 767 968 771 929 q 750 1024 763 1007 q 711 1040 738 1040 q 598 969 640 1040 q 531 743 556 897 l 518 667 l 697 667 l 690 622 l 511 622 l 443 201 q 308 -146 407 -26 q 60 -265 208 -265 q -40 -239 1 -265 q -81 -160 -81 -212 q -54 -94 -81 -119 q 10 -68 -28 -68 q 51 -83 36 -68 q 75 -132 67 -97 q 98 -186 85 -172 q 131 -200 111 -200 q 226 -145 189 -200 q 283 29 264 -90 l 379 622 l 268 622 l 281 667 z "},"₄":{"ha":564,"x_min":19,"x_max":507,"o":"m 299 -39 l 33 -39 l 19 14 l 367 494 l 422 486 l 422 50 l 507 50 l 507 -39 l 422 -39 l 422 -160 l 503 -181 l 503 -214 l 190 -214 l 190 -181 l 299 -160 l 299 -39 m 299 299 l 293 299 l 110 56 l 113 50 l 299 50 l 299 299 z "},"⁴":{"ha":564,"x_min":19,"x_max":507,"o":"m 299 753 l 33 753 l 19 806 l 367 1286 l 422 1278 l 422 842 l 507 842 l 507 753 l 422 753 l 422 632 l 503 611 l 503 578 l 190 578 l 190 611 l 299 632 l 299 753 m 299 1090 l 293 1090 l 110 847 l 113 842 l 299 842 l 299 1090 z "},"⁄":{"ha":306,"x_min":-221,"x_max":528,"o":"m -221 0 l 431 1069 l 528 1069 l -125 0 l -221 0 z "},"g":{"ha":714,"x_min":10,"x_max":733,"o":"m 306 -361 q 196 -351 256 -361 q 90 -312 136 -340 q 32 -258 54 -290 q 10 -179 10 -225 q 48 -79 10 -124 q 182 6 86 -35 q 88 119 88 47 q 94 157 88 136 q 122 200 101 178 q 178 244 142 222 q 271 285 214 267 q 137 366 190 307 q 83 513 83 425 q 104 608 83 564 q 161 683 125 651 q 247 732 197 714 q 353 750 296 750 q 441 738 400 750 q 515 706 482 726 q 536 757 524 731 q 565 806 549 783 q 603 842 582 828 q 653 856 625 856 q 709 837 685 856 q 733 786 733 818 q 715 740 733 758 q 668 721 696 721 q 644 726 653 721 q 630 739 636 732 q 617 751 624 746 q 597 757 610 757 q 566 735 581 757 q 544 686 551 714 q 608 607 585 653 q 631 513 631 561 q 610 424 631 467 q 553 349 590 382 q 466 293 517 315 q 354 267 415 271 q 301 257 328 264 q 252 238 274 250 q 217 212 231 226 q 204 179 204 197 q 238 132 204 150 q 317 101 271 114 q 415 81 364 89 q 503 64 467 72 q 594 31 560 51 q 648 -15 629 10 q 673 -65 667 -39 q 679 -114 679 -90 q 658 -206 679 -167 q 603 -272 638 -244 q 538 -312 574 -296 q 462 -340 501 -329 q 383 -356 422 -351 q 306 -361 343 -361 m 363 -40 q 291 -25 326 -33 q 228 -8 256 -17 q 151 -72 179 -31 q 122 -162 122 -114 q 139 -230 122 -200 q 186 -279 156 -260 q 332 -317 242 -317 q 416 -308 374 -317 q 492 -283 458 -300 q 550 -236 528 -265 q 572 -167 572 -207 q 563 -124 572 -142 q 528 -91 553 -106 q 464 -65 504 -76 q 363 -40 424 -53 m 354 311 q 419 331 393 311 q 461 380 446 350 q 483 446 476 410 q 489 515 489 482 q 484 577 489 543 q 465 641 479 611 q 426 691 451 671 q 361 711 401 711 q 293 690 319 711 q 252 635 267 668 q 232 567 238 603 q 226 501 226 531 q 231 440 226 474 q 251 378 236 407 q 290 331 265 350 q 354 311 314 311 z "},"ğ":{"ha":714,"x_min":10,"x_max":733,"o":"m 306 -361 q 196 -351 256 -361 q 90 -312 136 -340 q 32 -258 54 -290 q 10 -179 10 -225 q 48 -79 10 -124 q 182 6 86 -35 q 88 119 88 47 q 94 157 88 136 q 122 200 101 178 q 178 244 142 222 q 271 285 214 267 q 137 366 190 307 q 83 513 83 425 q 104 608 83 564 q 161 683 125 651 q 247 732 197 714 q 353 750 296 750 q 441 738 400 750 q 515 706 482 726 q 536 757 524 731 q 565 806 549 783 q 603 842 582 828 q 653 856 625 856 q 709 837 685 856 q 733 786 733 818 q 715 740 733 758 q 668 721 696 721 q 644 726 653 721 q 630 739 636 732 q 617 751 624 746 q 597 757 610 757 q 566 735 581 757 q 544 686 551 714 q 608 607 585 653 q 631 513 631 561 q 610 424 631 467 q 553 349 590 382 q 466 293 517 315 q 354 267 415 271 q 301 257 328 264 q 252 238 274 250 q 217 212 231 226 q 204 179 204 197 q 238 132 204 150 q 317 101 271 114 q 415 81 364 89 q 503 64 467 72 q 594 31 560 51 q 648 -15 629 10 q 673 -65 667 -39 q 679 -114 679 -90 q 658 -206 679 -167 q 603 -272 638 -244 q 538 -312 574 -296 q 462 -340 501 -329 q 383 -356 422 -351 q 306 -361 343 -361 m 363 -40 q 291 -25 326 -33 q 228 -8 256 -17 q 151 -72 179 -31 q 122 -162 122 -114 q 139 -230 122 -200 q 186 -279 156 -260 q 332 -317 242 -317 q 416 -308 374 -317 q 492 -283 458 -300 q 550 -236 528 -265 q 572 -167 572 -207 q 563 -124 572 -142 q 528 -91 553 -106 q 464 -65 504 -76 q 363 -40 424 -53 m 354 311 q 419 331 393 311 q 461 380 446 350 q 483 446 476 410 q 489 515 489 482 q 484 577 489 543 q 465 641 479 611 q 426 691 451 671 q 361 711 401 711 q 293 690 319 711 q 252 635 267 668 q 232 567 238 603 q 226 501 226 531 q 231 440 226 474 q 251 378 236 407 q 290 331 265 350 q 354 311 314 311 m 244 1097 q 302 1028 261 1049 q 392 1007 343 1007 q 478 1028 438 1007 q 543 1097 519 1049 l 590 1097 q 548 994 574 1032 q 494 936 522 956 q 437 910 465 917 q 386 904 408 904 q 324 914 356 904 q 267 947 293 924 q 221 1006 240 969 q 196 1097 201 1043 l 244 1097 z "},"ĝ":{"ha":714,"x_min":10,"x_max":733,"o":"m 306 -361 q 196 -351 256 -361 q 90 -312 136 -340 q 32 -258 54 -290 q 10 -179 10 -225 q 48 -79 10 -124 q 182 6 86 -35 q 88 119 88 47 q 94 157 88 136 q 122 200 101 178 q 178 244 142 222 q 271 285 214 267 q 137 366 190 307 q 83 513 83 425 q 104 608 83 564 q 161 683 125 651 q 247 732 197 714 q 353 750 296 750 q 441 738 400 750 q 515 706 482 726 q 536 757 524 731 q 565 806 549 783 q 603 842 582 828 q 653 856 625 856 q 709 837 685 856 q 733 786 733 818 q 715 740 733 758 q 668 721 696 721 q 644 726 653 721 q 630 739 636 732 q 617 751 624 746 q 597 757 610 757 q 566 735 581 757 q 544 686 551 714 q 608 607 585 653 q 631 513 631 561 q 610 424 631 467 q 553 349 590 382 q 466 293 517 315 q 354 267 415 271 q 301 257 328 264 q 252 238 274 250 q 217 212 231 226 q 204 179 204 197 q 238 132 204 150 q 317 101 271 114 q 415 81 364 89 q 503 64 467 72 q 594 31 560 51 q 648 -15 629 10 q 673 -65 667 -39 q 679 -114 679 -90 q 658 -206 679 -167 q 603 -272 638 -244 q 538 -312 574 -296 q 462 -340 501 -329 q 383 -356 422 -351 q 306 -361 343 -361 m 363 -40 q 291 -25 326 -33 q 228 -8 256 -17 q 151 -72 179 -31 q 122 -162 122 -114 q 139 -230 122 -200 q 186 -279 156 -260 q 332 -317 242 -317 q 416 -308 374 -317 q 492 -283 458 -300 q 550 -236 528 -265 q 572 -167 572 -207 q 563 -124 572 -142 q 528 -91 553 -106 q 464 -65 504 -76 q 363 -40 424 -53 m 354 311 q 419 331 393 311 q 461 380 446 350 q 483 446 476 410 q 489 515 489 482 q 484 577 489 543 q 465 641 479 611 q 426 691 451 671 q 361 711 401 711 q 293 690 319 711 q 252 635 267 668 q 232 567 238 603 q 226 501 226 531 q 231 440 226 474 q 251 378 236 407 q 290 331 265 350 q 354 311 314 311 m 374 1190 q 410 1180 397 1190 q 432 1150 422 1169 l 549 889 l 518 872 l 368 1068 l 221 872 l 193 889 l 310 1150 q 333 1180 318 1169 q 374 1190 347 1190 z "},"ģ":{"ha":714,"x_min":10,"x_max":733,"o":"m 440 1151 q 397 1113 414 1133 q 381 1079 381 1093 q 391 1051 381 1060 q 415 1033 401 1042 q 438 1012 428 1024 q 449 975 449 1000 q 426 924 449 944 q 371 904 404 904 q 317 931 338 904 q 296 996 296 958 q 418 1185 296 1113 l 440 1151 m 306 -361 q 196 -351 256 -361 q 90 -312 136 -340 q 32 -258 54 -290 q 10 -179 10 -225 q 48 -79 10 -124 q 182 6 86 -35 q 88 119 88 47 q 94 157 88 136 q 122 200 101 178 q 178 244 142 222 q 271 285 214 267 q 137 366 190 307 q 83 513 83 425 q 104 608 83 564 q 161 683 125 651 q 247 732 197 714 q 353 750 296 750 q 441 738 400 750 q 515 706 482 726 q 536 757 524 731 q 565 806 549 783 q 603 842 582 828 q 653 856 625 856 q 709 837 685 856 q 733 786 733 818 q 715 740 733 758 q 668 721 696 721 q 644 726 653 721 q 630 739 636 732 q 617 751 624 746 q 597 757 610 757 q 566 735 581 757 q 544 686 551 714 q 608 607 585 653 q 631 513 631 561 q 610 424 631 467 q 553 349 590 382 q 466 293 517 315 q 354 267 415 271 q 301 257 328 264 q 252 238 274 250 q 217 212 231 226 q 204 179 204 197 q 238 132 204 150 q 317 101 271 114 q 415 81 364 89 q 503 64 467 72 q 594 31 560 51 q 648 -15 629 10 q 673 -65 667 -39 q 679 -114 679 -90 q 658 -206 679 -167 q 603 -272 638 -244 q 538 -312 574 -296 q 462 -340 501 -329 q 383 -356 422 -351 q 306 -361 343 -361 m 363 -40 q 291 -25 326 -33 q 228 -8 256 -17 q 151 -72 179 -31 q 122 -162 122 -114 q 139 -230 122 -200 q 186 -279 156 -260 q 332 -317 242 -317 q 416 -308 374 -317 q 492 -283 458 -300 q 550 -236 528 -265 q 572 -167 572 -207 q 563 -124 572 -142 q 528 -91 553 -106 q 464 -65 504 -76 q 363 -40 424 -53 m 354 311 q 419 331 393 311 q 461 380 446 350 q 483 446 476 410 q 489 515 489 482 q 484 577 489 543 q 465 641 479 611 q 426 691 451 671 q 361 711 401 711 q 293 690 319 711 q 252 635 267 668 q 232 567 238 603 q 226 501 226 531 q 231 440 226 474 q 251 378 236 407 q 290 331 265 350 q 354 311 314 311 z "},"ġ":{"ha":714,"x_min":10,"x_max":733,"o":"m 306 -361 q 196 -351 256 -361 q 90 -312 136 -340 q 32 -258 54 -290 q 10 -179 10 -225 q 48 -79 10 -124 q 182 6 86 -35 q 88 119 88 47 q 94 157 88 136 q 122 200 101 178 q 178 244 142 222 q 271 285 214 267 q 137 366 190 307 q 83 513 83 425 q 104 608 83 564 q 161 683 125 651 q 247 732 197 714 q 353 750 296 750 q 441 738 400 750 q 515 706 482 726 q 536 757 524 731 q 565 806 549 783 q 603 842 582 828 q 653 856 625 856 q 709 837 685 856 q 733 786 733 818 q 715 740 733 758 q 668 721 696 721 q 644 726 653 721 q 630 739 636 732 q 617 751 624 746 q 597 757 610 757 q 566 735 581 757 q 544 686 551 714 q 608 607 585 653 q 631 513 631 561 q 610 424 631 467 q 553 349 590 382 q 466 293 517 315 q 354 267 415 271 q 301 257 328 264 q 252 238 274 250 q 217 212 231 226 q 204 179 204 197 q 238 132 204 150 q 317 101 271 114 q 415 81 364 89 q 503 64 467 72 q 594 31 560 51 q 648 -15 629 10 q 673 -65 667 -39 q 679 -114 679 -90 q 658 -206 679 -167 q 603 -272 638 -244 q 538 -312 574 -296 q 462 -340 501 -329 q 383 -356 422 -351 q 306 -361 343 -361 m 363 -40 q 291 -25 326 -33 q 228 -8 256 -17 q 151 -72 179 -31 q 122 -162 122 -114 q 139 -230 122 -200 q 186 -279 156 -260 q 332 -317 242 -317 q 416 -308 374 -317 q 492 -283 458 -300 q 550 -236 528 -265 q 572 -167 572 -207 q 563 -124 572 -142 q 528 -91 553 -106 q 464 -65 504 -76 q 363 -40 424 -53 m 354 311 q 419 331 393 311 q 461 380 446 350 q 483 446 476 410 q 489 515 489 482 q 484 577 489 543 q 465 641 479 611 q 426 691 451 671 q 361 711 401 711 q 293 690 319 711 q 252 635 267 668 q 232 567 238 603 q 226 501 226 531 q 231 440 226 474 q 251 378 236 407 q 290 331 265 350 q 354 311 314 311 m 289 993 q 313 1058 289 1032 q 378 1083 338 1083 q 444 1058 419 1083 q 468 993 468 1032 q 444 931 468 957 q 378 904 419 904 q 313 931 338 904 q 289 993 289 957 z "},"ß":{"ha":964,"x_min":36,"x_max":928,"o":"m 53 708 l 158 708 q 160 811 158 768 q 164 885 161 854 q 172 937 167 915 q 183 976 176 958 q 302 1106 217 1058 q 500 1153 388 1153 q 685 1102 618 1153 q 751 964 751 1051 q 725 858 751 906 q 667 768 699 811 q 608 683 635 725 q 582 594 582 642 q 608 522 582 550 q 672 473 633 494 q 755 432 710 451 q 838 385 800 413 q 902 317 876 358 q 928 211 928 275 q 859 47 928 107 q 672 -14 790 -14 q 574 -6 628 -14 q 481 17 521 3 l 472 242 l 506 242 q 682 28 522 28 q 783 62 746 28 q 821 154 821 96 q 795 234 821 203 q 731 289 769 265 q 647 333 692 313 q 563 379 601 353 q 498 443 524 406 q 472 539 472 481 q 497 646 472 597 q 552 741 522 694 q 607 836 582 788 q 632 942 632 885 q 588 1059 632 1015 q 474 1103 544 1103 q 337 1029 383 1103 q 290 813 290 956 l 290 47 l 410 26 l 410 0 l 54 0 l 54 26 l 158 47 l 158 664 l 36 664 l 53 708 z "},"`":{"ha":236,"x_min":14,"x_max":222,"o":"m 193 876 l 56 1049 q 23 1096 32 1076 q 14 1133 14 1115 q 30 1176 14 1160 q 68 1193 46 1193 q 116 1176 99 1193 q 144 1128 133 1158 l 222 892 l 193 876 z "},">":{"ha":722,"x_min":100,"x_max":668,"o":"m 100 168 l 100 251 l 568 468 l 568 474 l 100 688 l 100 779 l 668 508 l 668 438 l 100 168 z "},"«":{"ha":606,"x_min":81,"x_max":507,"o":"m 274 74 l 81 328 l 81 354 l 271 606 l 288 599 l 196 342 l 290 85 l 274 74 m 490 74 l 297 328 l 297 354 l 488 606 l 504 599 l 413 342 l 507 85 l 490 74 z "},"»":{"ha":606,"x_min":99,"x_max":525,"o":"m 315 85 l 410 342 l 318 599 l 335 606 l 525 354 l 525 328 l 332 74 l 315 85 m 99 85 l 193 342 l 101 599 l 118 606 l 308 354 l 308 328 l 115 74 l 99 85 z "},"‹":{"ha":389,"x_min":81,"x_max":290,"o":"m 274 74 l 81 328 l 81 354 l 271 606 l 288 599 l 196 342 l 290 85 l 274 74 z "},"›":{"ha":389,"x_min":99,"x_max":308,"o":"m 99 85 l 193 342 l 101 599 l 118 606 l 308 354 l 308 328 l 115 74 l 99 85 z "},"h":{"ha":860,"x_min":32,"x_max":831,"o":"m 374 28 l 374 0 l 32 0 l 32 28 l 138 49 l 138 1029 l 35 1067 l 35 1086 l 256 1153 l 269 1153 l 269 635 q 405 720 333 690 q 547 750 476 750 q 646 728 603 750 q 708 667 689 706 q 717 642 714 656 q 723 607 721 629 q 726 552 725 585 q 726 469 726 519 l 726 47 l 831 28 l 831 0 l 490 0 l 490 28 l 594 47 l 594 456 q 591 551 594 515 q 578 610 588 586 q 469 674 551 674 q 269 583 353 674 l 269 49 l 374 28 z "},"ħ":{"ha":860,"x_min":32,"x_max":831,"o":"m 374 28 l 374 0 l 32 0 l 32 28 l 138 49 l 138 846 l 35 846 l 35 936 l 138 936 l 138 1029 l 35 1067 l 35 1086 l 256 1153 l 269 1153 l 269 936 l 461 936 l 461 846 l 269 846 l 269 635 q 405 720 333 690 q 547 750 476 750 q 646 728 603 750 q 708 667 689 706 q 717 642 714 656 q 723 607 721 629 q 726 552 725 585 q 726 469 726 519 l 726 47 l 831 28 l 831 0 l 490 0 l 490 28 l 594 47 l 594 456 q 591 551 594 515 q 578 610 588 586 q 469 674 551 674 q 269 583 353 674 l 269 49 l 374 28 z "},"ĥ":{"ha":860,"x_min":32,"x_max":831,"o":"m 374 28 l 374 0 l 32 0 l 32 28 l 138 49 l 138 1029 l 35 1067 l 35 1086 l 256 1153 l 269 1153 l 269 635 q 405 720 333 690 q 547 750 476 750 q 646 728 603 750 q 708 667 689 706 q 717 642 714 656 q 723 607 721 629 q 726 552 725 585 q 726 469 726 519 l 726 47 l 831 28 l 831 0 l 490 0 l 490 28 l 594 47 l 594 456 q 591 551 594 515 q 578 610 588 586 q 469 674 551 674 q 269 583 353 674 l 269 49 l 374 28 m 553 1190 q 589 1180 576 1190 q 611 1150 601 1169 l 728 889 l 697 872 l 547 1068 l 400 872 l 372 889 l 489 1150 q 512 1180 497 1169 q 553 1190 526 1190 z "},"ḥ":{"ha":860,"x_min":32,"x_max":831,"o":"m 374 28 l 374 0 l 32 0 l 32 28 l 138 49 l 138 1029 l 35 1067 l 35 1086 l 256 1153 l 269 1153 l 269 635 q 405 720 333 690 q 547 750 476 750 q 646 728 603 750 q 708 667 689 706 q 717 642 714 656 q 723 607 721 629 q 726 552 725 585 q 726 469 726 519 l 726 47 l 831 28 l 831 0 l 490 0 l 490 28 l 594 47 l 594 456 q 591 551 594 515 q 578 610 588 586 q 469 674 551 674 q 269 583 353 674 l 269 49 l 374 28 m 346 -267 q 370 -202 346 -228 q 435 -176 394 -176 q 501 -202 476 -176 q 525 -267 525 -228 q 501 -329 525 -303 q 435 -356 476 -356 q 370 -329 394 -356 q 346 -267 346 -303 z "},"˝":{"ha":457,"x_min":14,"x_max":443,"o":"m 235 892 l 313 1128 q 341 1176 324 1158 q 389 1193 358 1193 q 427 1176 411 1193 q 443 1133 443 1160 q 434 1096 443 1115 q 401 1049 425 1076 l 264 876 l 235 892 m 14 892 l 92 1128 q 120 1176 103 1158 q 168 1193 138 1193 q 206 1176 190 1193 q 222 1133 222 1160 q 213 1096 222 1115 q 181 1049 204 1076 l 43 876 l 14 892 z "},"-":{"ha":646,"x_min":101,"x_max":544,"o":"m 101 292 l 101 408 l 544 408 l 544 292 l 101 292 z "},"i":{"ha":417,"x_min":43,"x_max":385,"o":"m 125 993 q 149 1058 125 1032 q 214 1083 174 1083 q 280 1058 256 1083 q 304 993 304 1032 q 280 931 304 957 q 214 904 256 904 q 149 931 174 904 q 125 993 125 957 m 385 28 l 385 0 l 43 0 l 43 28 l 149 49 l 149 626 l 46 664 l 46 683 l 268 750 l 281 750 l 281 49 l 385 28 z "},"í":{"ha":417,"x_min":43,"x_max":385,"o":"m 385 28 l 385 0 l 43 0 l 43 28 l 149 49 l 149 626 l 46 664 l 46 683 l 268 750 l 281 750 l 281 49 l 385 28 m 117 892 l 194 1128 q 223 1176 206 1158 q 271 1193 240 1193 q 309 1176 293 1193 q 325 1133 325 1160 q 316 1096 325 1115 q 283 1049 307 1076 l 146 876 l 117 892 z "},"ĭ":{"ha":417,"x_min":24,"x_max":418,"o":"m 385 28 l 385 0 l 43 0 l 43 28 l 149 49 l 149 626 l 46 664 l 46 683 l 268 750 l 281 750 l 281 49 l 385 28 m 72 1097 q 130 1028 89 1049 q 219 1007 171 1007 q 306 1028 265 1007 q 371 1097 347 1049 l 418 1097 q 376 994 401 1032 q 322 936 350 956 q 265 910 293 917 q 214 904 236 904 q 152 914 183 904 q 94 947 121 924 q 49 1006 68 969 q 24 1097 29 1043 l 72 1097 z "},"î":{"ha":417,"x_min":36,"x_max":392,"o":"m 385 28 l 385 0 l 43 0 l 43 28 l 149 49 l 149 626 l 46 664 l 46 683 l 268 750 l 281 750 l 281 49 l 385 28 m 217 1190 q 253 1180 240 1190 q 275 1150 265 1169 l 392 889 l 361 872 l 211 1068 l 64 872 l 36 889 l 153 1150 q 176 1180 161 1169 q 217 1190 190 1190 z "},"ï":{"ha":417,"x_min":8,"x_max":421,"o":"m 385 28 l 385 0 l 43 0 l 43 28 l 149 49 l 149 626 l 46 664 l 46 683 l 268 750 l 281 750 l 281 49 l 385 28 m 8 1007 q 29 1062 8 1040 q 85 1083 50 1083 q 141 1062 121 1083 q 161 1007 161 1040 q 141 953 161 975 q 85 931 121 931 q 29 953 50 931 q 8 1007 8 975 m 268 1007 q 289 1062 268 1040 q 344 1083 310 1083 q 401 1062 381 1083 q 421 1007 421 1040 q 401 953 421 975 q 344 931 381 931 q 289 953 310 931 q 268 1007 268 975 z "},"ị":{"ha":417,"x_min":43,"x_max":385,"o":"m 125 993 q 149 1058 125 1032 q 214 1083 174 1083 q 280 1058 256 1083 q 304 993 304 1032 q 280 931 304 957 q 214 904 256 904 q 149 931 174 904 q 125 993 125 957 m 385 28 l 385 0 l 43 0 l 43 28 l 149 49 l 149 626 l 46 664 l 46 683 l 268 750 l 281 750 l 281 49 l 385 28 m 125 -267 q 149 -202 125 -228 q 214 -176 174 -176 q 280 -202 256 -176 q 304 -267 304 -228 q 280 -329 304 -303 q 214 -356 256 -356 q 149 -329 174 -356 q 125 -267 125 -303 z "},"ì":{"ha":417,"x_min":43,"x_max":385,"o":"m 385 28 l 385 0 l 43 0 l 43 28 l 149 49 l 149 626 l 46 664 l 46 683 l 268 750 l 281 750 l 281 49 l 385 28 m 244 876 l 107 1049 q 74 1096 83 1076 q 65 1133 65 1115 q 81 1176 65 1160 q 119 1193 97 1193 q 167 1176 150 1193 q 196 1128 185 1158 l 274 892 l 244 876 z "},"ĳ":{"ha":806,"x_min":43,"x_max":710,"o":"m 125 993 q 149 1058 125 1032 q 214 1083 174 1083 q 280 1058 256 1083 q 304 993 304 1032 q 280 931 304 957 q 214 904 256 904 q 149 931 174 904 q 125 993 125 957 m 385 28 l 385 0 l 43 0 l 43 28 l 149 49 l 149 626 l 46 664 l 46 683 l 268 750 l 281 750 l 281 49 l 385 28 m 554 626 l 451 664 l 451 683 l 674 750 l 686 750 l 686 215 q 685 49 686 113 q 678 -58 683 -15 q 665 -127 674 -100 q 640 -182 656 -154 q 523 -315 592 -269 q 371 -361 454 -361 q 259 -331 300 -361 q 218 -247 218 -300 q 238 -186 218 -208 q 293 -164 258 -164 q 340 -180 322 -164 q 369 -228 358 -196 q 399 -282 385 -268 q 439 -296 413 -296 q 554 -67 554 -296 l 554 626 m 531 994 q 555 1058 531 1033 q 619 1083 579 1083 q 685 1058 660 1083 q 710 994 710 1033 q 685 929 710 954 q 619 904 660 904 q 555 929 579 904 q 531 994 531 954 z "},"ī":{"ha":417,"x_min":1,"x_max":400,"o":"m 385 28 l 385 0 l 43 0 l 43 28 l 149 49 l 149 626 l 46 664 l 46 683 l 268 750 l 281 750 l 281 49 l 385 28 m 1 985 l 1 1083 l 400 1083 l 400 985 l 1 985 z "},"į":{"ha":417,"x_min":28,"x_max":385,"o":"m 322 -281 q 169 -356 257 -356 q 66 -323 104 -356 q 28 -233 28 -290 q 69 -118 28 -179 q 186 0 111 -57 l 43 0 l 43 28 l 149 49 l 149 626 l 46 664 l 46 683 l 268 750 l 281 750 l 281 49 l 385 28 l 385 0 l 246 0 q 150 -200 150 -115 q 224 -279 150 -279 q 260 -272 243 -279 q 301 -250 278 -265 l 322 -281 m 125 993 q 149 1058 125 1032 q 214 1083 174 1083 q 280 1058 256 1083 q 304 993 304 1032 q 280 931 304 957 q 214 904 256 904 q 149 931 174 904 q 125 993 125 957 z "},"ĩ":{"ha":417,"x_min":1,"x_max":428,"o":"m 385 28 l 385 0 l 43 0 l 43 28 l 149 49 l 149 626 l 46 664 l 46 683 l 268 750 l 281 750 l 281 49 l 385 28 m 1 949 q 34 1063 1 1019 q 118 1107 67 1107 q 168 1099 142 1107 q 222 1083 194 1092 q 275 1066 249 1074 q 325 1058 301 1058 q 394 1111 383 1058 l 428 1111 q 395 993 428 1039 q 311 947 363 947 q 260 956 286 947 q 208 974 235 964 q 156 993 182 985 q 106 1001 131 1001 q 35 949 42 1001 l 1 949 z "},"j":{"ha":389,"x_min":-199,"x_max":293,"o":"m 138 626 l 35 664 l 35 683 l 257 750 l 269 750 l 269 215 q 268 49 269 113 q 262 -58 267 -15 q 248 -127 257 -100 q 224 -182 239 -154 q 106 -315 175 -269 q -46 -361 38 -361 q -158 -331 -117 -361 q -199 -247 -199 -300 q -178 -186 -199 -208 q -124 -164 -158 -164 q -76 -180 -94 -164 q -47 -228 -58 -196 q -18 -282 -32 -268 q 22 -296 -4 -296 q 138 -67 138 -296 l 138 626 m 114 994 q 138 1058 114 1033 q 203 1083 163 1083 q 268 1058 243 1083 q 293 994 293 1033 q 268 929 293 954 q 203 904 243 904 q 138 929 163 904 q 114 994 114 954 z "},"ĵ":{"ha":389,"x_min":-199,"x_max":383,"o":"m 138 626 l 35 664 l 35 683 l 257 750 l 269 750 l 269 215 q 268 49 269 113 q 262 -58 267 -15 q 248 -127 257 -100 q 224 -182 239 -154 q 106 -315 175 -269 q -46 -361 38 -361 q -158 -331 -117 -361 q -199 -247 -199 -300 q -178 -186 -199 -208 q -124 -164 -158 -164 q -76 -180 -94 -164 q -47 -228 -58 -196 q -18 -282 -32 -268 q 22 -296 -4 -296 q 138 -67 138 -296 l 138 626 m 208 1190 q 244 1180 232 1190 q 267 1150 257 1169 l 383 889 l 353 872 l 203 1068 l 56 872 l 28 889 l 144 1150 q 167 1180 153 1169 q 208 1190 182 1190 z "},"k":{"ha":821,"x_min":32,"x_max":850,"o":"m 424 736 l 735 736 l 735 708 q 666 694 693 700 q 621 679 639 688 q 589 659 603 671 q 560 629 575 647 l 403 446 l 733 49 l 850 28 l 850 0 l 607 0 l 319 350 l 265 286 l 265 49 l 369 28 l 369 0 l 32 0 l 32 28 l 138 49 l 138 1029 l 36 1067 l 36 1085 l 251 1153 l 265 1153 l 265 361 l 497 625 q 526 675 526 658 q 506 694 526 688 q 424 708 485 701 l 424 736 z "},"ķ":{"ha":821,"x_min":32,"x_max":850,"o":"m 424 736 l 735 736 l 735 708 q 666 694 693 700 q 621 679 639 688 q 589 659 603 671 q 560 629 575 647 l 403 446 l 733 49 l 850 28 l 850 0 l 607 0 l 319 350 l 265 286 l 265 49 l 369 28 l 369 0 l 32 0 l 32 28 l 138 49 l 138 1029 l 36 1067 l 36 1085 l 251 1153 l 265 1153 l 265 361 l 497 625 q 526 675 526 658 q 506 694 526 688 q 424 708 485 701 l 424 736 m 383 -308 q 426 -270 410 -290 q 443 -236 443 -250 q 433 -208 443 -218 q 409 -190 422 -199 q 385 -169 396 -181 q 375 -132 375 -157 q 397 -81 375 -101 q 453 -61 419 -61 q 507 -88 486 -61 q 528 -153 528 -115 q 406 -342 528 -269 l 383 -308 z "},"ĸ":{"ha":832,"x_min":43,"x_max":861,"o":"m 435 736 l 746 736 l 746 708 q 677 694 704 700 q 632 679 650 688 q 600 659 614 671 q 571 629 586 647 l 414 446 l 744 49 l 861 28 l 861 0 l 618 0 l 331 350 l 276 286 l 276 49 l 381 28 l 381 0 l 43 0 l 43 28 l 149 49 l 149 626 l 47 664 l 47 682 l 263 750 l 276 750 l 276 361 l 508 625 q 538 675 538 658 q 517 694 538 688 q 435 708 496 701 l 435 736 z "},"l":{"ha":401,"x_min":40,"x_max":361,"o":"m 361 26 l 361 0 l 40 0 l 40 26 l 138 47 l 138 1031 l 40 1067 l 40 1085 l 253 1153 l 265 1153 l 265 47 l 361 26 z "},"ĺ":{"ha":401,"x_min":38,"x_max":361,"o":"m 38 1163 l 238 1311 q 299 1333 268 1333 q 340 1317 322 1333 q 358 1274 358 1300 q 338 1230 358 1250 q 264 1194 318 1210 l 53 1133 l 38 1163 m 361 26 l 361 0 l 40 0 l 40 26 l 138 47 l 138 1031 l 40 1067 l 40 1085 l 253 1153 l 265 1153 l 265 47 l 361 26 z "},"ľ":{"ha":401,"x_min":40,"x_max":475,"o":"m 361 26 l 361 0 l 40 0 l 40 26 l 138 47 l 138 1031 l 40 1067 l 40 1085 l 253 1153 l 265 1153 l 265 47 l 361 26 m 354 892 l 364 1118 q 382 1172 367 1153 q 435 1190 397 1190 q 475 1142 475 1190 q 470 1113 475 1129 q 458 1076 465 1097 l 390 892 l 354 892 z "},"ļ":{"ha":401,"x_min":40,"x_max":361,"o":"m 361 26 l 361 0 l 40 0 l 40 26 l 138 47 l 138 1031 l 40 1067 l 40 1085 l 253 1153 l 265 1153 l 265 47 l 361 26 m 133 -322 q 176 -284 160 -304 q 193 -250 193 -264 q 183 -222 193 -232 q 159 -203 172 -212 q 135 -183 146 -194 q 125 -146 125 -171 q 147 -95 125 -115 q 203 -75 169 -75 q 257 -102 236 -75 q 278 -167 278 -129 q 156 -356 278 -283 l 133 -322 z "},"ŀ":{"ha":519,"x_min":40,"x_max":557,"o":"m 361 26 l 361 0 l 40 0 l 40 26 l 138 47 l 138 1031 l 40 1067 l 40 1085 l 253 1153 l 265 1153 l 265 47 l 361 26 m 365 399 q 391 468 365 440 q 460 496 417 496 q 531 468 504 496 q 557 399 557 440 q 531 332 557 360 q 460 304 504 304 q 391 332 417 304 q 365 399 365 360 z "},"<":{"ha":721,"x_min":53,"x_max":621,"o":"m 53 431 l 53 501 l 621 772 l 621 688 l 153 474 l 153 468 l 621 251 l 621 161 l 53 431 z "},"¬":{"ha":794,"x_min":117,"x_max":686,"o":"m 615 367 l 117 367 l 117 428 l 686 428 l 686 204 l 615 204 l 615 367 z "},"ł":{"ha":414,"x_min":26,"x_max":392,"o":"m 26 515 l 142 576 l 142 1031 l 44 1067 l 44 1085 l 257 1153 l 269 1153 l 269 646 l 392 711 l 392 621 l 269 556 l 269 47 l 365 26 l 365 0 l 44 0 l 44 26 l 142 47 l 142 486 l 26 425 l 26 515 z "},"m":{"ha":1260,"x_min":43,"x_max":1226,"o":"m 385 28 l 385 0 l 43 0 l 43 28 l 149 49 l 149 625 l 46 664 l 46 682 l 261 750 l 275 750 l 275 632 q 402 719 335 689 q 536 750 469 750 q 589 742 563 750 q 637 719 615 735 q 674 682 658 704 q 694 631 689 660 q 822 719 754 689 q 957 750 890 750 q 1046 728 1007 750 q 1104 667 1085 706 q 1113 642 1110 656 q 1119 607 1117 629 q 1122 552 1121 585 q 1122 469 1122 519 l 1122 47 l 1226 28 l 1226 0 l 886 0 l 886 28 l 990 47 l 990 456 q 985 551 990 515 q 974 610 981 586 q 879 674 953 674 q 781 651 828 674 q 699 585 735 628 q 701 536 700 564 q 701 469 701 508 l 701 47 l 806 28 l 806 0 l 465 0 l 465 28 l 569 47 l 569 456 q 565 551 569 515 q 553 610 560 586 q 458 674 531 674 q 363 651 408 674 q 281 588 317 629 l 281 49 l 385 28 z "},"¯":{"ha":426,"x_min":14,"x_max":413,"o":"m 14 985 l 14 1083 l 413 1083 l 413 985 l 14 985 z "},"−":{"ha":786,"x_min":108,"x_max":678,"o":"m 108 438 l 108 506 l 678 506 l 678 438 l 108 438 z "},"µ":{"ha":867,"x_min":126,"x_max":797,"o":"m 579 113 l 574 114 q 363 -14 476 -14 q 261 17 303 -14 q 208 100 219 47 l 204 97 q 213 -6 204 50 q 233 -115 222 -61 q 252 -214 243 -168 q 261 -286 261 -260 q 244 -342 261 -322 q 194 -361 226 -361 q 142 -333 158 -361 q 126 -240 126 -304 q 130 -158 126 -208 q 137 -51 133 -108 q 144 65 140 6 q 147 176 147 124 l 147 736 l 279 736 l 279 268 q 283 167 279 201 q 296 113 286 132 q 388 54 319 54 q 485 82 436 54 q 571 158 533 110 l 571 736 l 703 736 l 703 104 l 797 71 l 797 54 l 589 -14 l 579 -14 l 579 113 z "},"×":{"ha":682,"x_min":94,"x_max":590,"o":"m 290 472 l 96 667 l 147 718 l 342 524 l 536 718 l 590 664 l 396 469 l 589 276 l 538 225 l 344 418 l 149 222 l 94 276 l 290 472 z "},"n":{"ha":849,"x_min":43,"x_max":819,"o":"m 385 28 l 385 0 l 43 0 l 43 28 l 149 49 l 149 625 l 46 664 l 46 682 l 261 750 l 275 750 l 275 632 q 402 719 335 689 q 536 750 469 750 q 635 728 592 750 q 697 667 678 706 q 706 642 703 656 q 712 607 710 629 q 715 552 714 585 q 715 469 715 519 l 715 47 l 819 28 l 819 0 l 479 0 l 479 28 l 583 47 l 583 456 q 580 551 583 515 q 567 610 576 586 q 458 674 540 674 q 363 651 408 674 q 281 588 317 629 l 281 49 l 385 28 z "},"ń":{"ha":849,"x_min":43,"x_max":819,"o":"m 385 28 l 385 0 l 43 0 l 43 28 l 149 49 l 149 625 l 46 664 l 46 682 l 261 750 l 275 750 l 275 632 q 402 719 335 689 q 536 750 469 750 q 635 728 592 750 q 697 667 678 706 q 706 642 703 656 q 712 607 710 629 q 715 552 714 585 q 715 469 715 519 l 715 47 l 819 28 l 819 0 l 479 0 l 479 28 l 583 47 l 583 456 q 580 551 583 515 q 567 610 576 586 q 458 674 540 674 q 363 651 408 674 q 281 588 317 629 l 281 49 l 385 28 m 382 892 l 460 1128 q 488 1176 471 1158 q 536 1193 506 1193 q 574 1176 558 1193 q 590 1133 590 1160 q 581 1096 590 1115 q 549 1049 572 1076 l 411 876 l 382 892 z "},"ŉ":{"ha":890,"x_min":58,"x_max":861,"o":"m 426 28 l 426 0 l 85 0 l 85 28 l 190 49 l 190 625 l 88 664 l 88 682 l 303 750 l 317 750 l 317 632 q 444 719 376 689 q 578 750 511 750 q 676 728 633 750 q 739 667 719 706 q 748 642 744 656 q 753 607 751 629 q 756 552 756 585 q 757 469 757 519 l 757 47 l 861 28 l 861 0 l 521 0 l 521 28 l 625 47 l 625 456 q 622 551 625 515 q 608 610 618 586 q 500 674 582 674 q 404 651 450 674 q 322 588 358 629 l 322 49 l 426 28 m 74 922 q 122 964 103 942 q 140 1001 140 986 q 128 1032 140 1022 q 99 1051 115 1042 q 71 1074 83 1061 q 58 1113 58 1086 q 81 1168 58 1146 q 136 1190 103 1190 q 195 1161 172 1190 q 218 1092 218 1132 q 96 889 218 967 l 74 922 z "},"ň":{"ha":849,"x_min":43,"x_max":819,"o":"m 385 28 l 385 0 l 43 0 l 43 28 l 149 49 l 149 625 l 46 664 l 46 682 l 261 750 l 275 750 l 275 632 q 402 719 335 689 q 536 750 469 750 q 635 728 592 750 q 697 667 678 706 q 706 642 703 656 q 712 607 710 629 q 715 552 714 585 q 715 469 715 519 l 715 47 l 819 28 l 819 0 l 479 0 l 479 28 l 583 47 l 583 456 q 580 551 583 515 q 567 610 576 586 q 458 674 540 674 q 363 651 408 674 q 281 588 317 629 l 281 49 l 385 28 m 450 875 q 410 885 424 875 q 388 915 397 896 l 272 1176 l 301 1193 l 450 997 l 599 1193 l 628 1176 l 510 915 q 487 885 500 896 q 450 875 474 875 z "},"ņ":{"ha":849,"x_min":43,"x_max":819,"o":"m 385 28 l 385 0 l 43 0 l 43 28 l 149 49 l 149 625 l 46 664 l 46 682 l 261 750 l 275 750 l 275 632 q 402 719 335 689 q 536 750 469 750 q 635 728 592 750 q 697 667 678 706 q 706 642 703 656 q 712 607 710 629 q 715 552 714 585 q 715 469 715 519 l 715 47 l 819 28 l 819 0 l 479 0 l 479 28 l 583 47 l 583 456 q 580 551 583 515 q 567 610 576 586 q 458 674 540 674 q 363 651 408 674 q 281 588 317 629 l 281 49 l 385 28 m 363 -308 q 406 -270 389 -290 q 422 -236 422 -250 q 412 -208 422 -218 q 388 -190 401 -199 q 365 -169 375 -181 q 354 -132 354 -157 q 376 -81 354 -101 q 432 -61 399 -61 q 486 -88 465 -61 q 507 -153 507 -115 q 385 -342 507 -269 l 363 -308 z "},"ṅ":{"ha":849,"x_min":43,"x_max":819,"o":"m 385 28 l 385 0 l 43 0 l 43 28 l 149 49 l 149 625 l 46 664 l 46 682 l 261 750 l 275 750 l 275 632 q 402 719 335 689 q 536 750 469 750 q 635 728 592 750 q 697 667 678 706 q 706 642 703 656 q 712 607 710 629 q 715 552 714 585 q 715 469 715 519 l 715 47 l 819 28 l 819 0 l 479 0 l 479 28 l 583 47 l 583 456 q 580 551 583 515 q 567 610 576 586 q 458 674 540 674 q 363 651 408 674 q 281 588 317 629 l 281 49 l 385 28 m 358 993 q 383 1058 358 1032 q 447 1083 407 1083 q 513 1058 489 1083 q 538 993 538 1032 q 513 931 538 957 q 447 904 489 904 q 383 931 407 904 q 358 993 358 957 z "},"₉":{"ha":571,"x_min":43,"x_max":511,"o":"m 279 492 q 449 424 388 492 q 511 236 511 356 q 486 90 511 161 q 415 -41 461 19 q 304 -148 369 -101 q 158 -224 239 -194 l 142 -186 q 218 -131 181 -165 q 285 -55 256 -96 q 336 29 315 -14 q 363 110 357 72 q 313 75 344 88 q 242 63 281 63 q 162 78 199 63 q 99 121 125 93 q 58 186 72 149 q 43 268 43 224 q 60 359 43 318 q 109 430 78 400 q 183 476 140 460 q 279 492 226 492 m 274 438 q 203 396 229 438 q 178 283 178 354 q 205 172 178 213 q 281 132 232 132 q 328 144 306 132 q 364 181 350 157 q 375 268 375 218 q 347 392 375 347 q 274 438 319 438 z "},"⁹":{"ha":571,"x_min":43,"x_max":511,"o":"m 279 1283 q 449 1215 388 1283 q 511 1028 511 1147 q 486 882 511 953 q 415 751 461 811 q 304 644 369 690 q 158 568 239 597 l 142 606 q 218 661 181 626 q 285 737 256 696 q 336 821 315 778 q 363 901 357 864 q 313 867 344 879 q 242 854 281 854 q 162 869 199 854 q 99 913 125 885 q 58 978 72 940 q 43 1060 43 1015 q 60 1151 43 1110 q 109 1222 78 1192 q 183 1267 140 1251 q 279 1283 226 1283 m 274 1229 q 203 1188 229 1229 q 178 1075 178 1146 q 205 964 178 1004 q 281 924 232 924 q 328 936 306 924 q 364 972 350 949 q 375 1060 375 1010 q 347 1184 375 1139 q 274 1229 319 1229 z "},"ñ":{"ha":849,"x_min":43,"x_max":819,"o":"m 385 28 l 385 0 l 43 0 l 43 28 l 149 49 l 149 625 l 46 664 l 46 682 l 261 750 l 275 750 l 275 632 q 402 719 335 689 q 536 750 469 750 q 635 728 592 750 q 697 667 678 706 q 706 642 703 656 q 712 607 710 629 q 715 552 714 585 q 715 469 715 519 l 715 47 l 819 28 l 819 0 l 479 0 l 479 28 l 583 47 l 583 456 q 580 551 583 515 q 567 610 576 586 q 458 674 540 674 q 363 651 408 674 q 281 588 317 629 l 281 49 l 385 28 m 235 949 q 267 1063 235 1019 q 351 1107 300 1107 q 401 1099 375 1107 q 455 1083 428 1092 q 508 1066 482 1074 q 558 1058 535 1058 q 628 1111 617 1058 l 661 1111 q 628 993 661 1039 q 544 947 596 947 q 494 956 519 947 q 442 974 468 964 q 390 993 415 985 q 339 1001 364 1001 q 268 949 275 1001 l 235 949 z "},"#":{"ha":936,"x_min":54,"x_max":879,"o":"m 718 967 l 681 729 l 879 729 l 863 651 l 668 651 l 635 442 l 829 442 l 810 364 l 622 364 l 586 128 l 507 128 l 543 364 l 336 364 l 300 128 l 219 128 l 256 364 l 54 364 l 74 442 l 268 442 l 301 651 l 107 651 l 124 729 l 314 729 l 351 967 l 432 967 l 394 729 l 601 729 l 639 967 l 718 967 m 349 442 l 556 442 l 589 651 l 382 651 l 349 442 z "},"o":{"ha":856,"x_min":63,"x_max":793,"o":"m 428 750 q 574 721 507 750 q 689 641 640 692 q 765 520 738 590 q 793 368 793 450 q 765 216 793 286 q 689 94 738 146 q 574 15 640 43 q 428 -14 507 -14 q 282 15 349 -14 q 167 94 215 43 q 90 216 118 146 q 63 368 63 286 q 90 520 63 450 q 167 641 118 590 q 282 721 215 692 q 428 750 349 750 m 210 368 q 267 133 210 217 q 426 49 325 49 q 588 133 529 49 q 646 369 646 218 q 588 603 646 519 q 428 688 531 688 q 267 603 325 688 q 210 368 210 519 z "},"ó":{"ha":856,"x_min":63,"x_max":793,"o":"m 428 750 q 574 721 507 750 q 689 641 640 692 q 765 520 738 590 q 793 368 793 450 q 765 216 793 286 q 689 94 738 146 q 574 15 640 43 q 428 -14 507 -14 q 282 15 349 -14 q 167 94 215 43 q 90 216 118 146 q 63 368 63 286 q 90 520 63 450 q 167 641 118 590 q 282 721 215 692 q 428 750 349 750 m 210 368 q 267 133 210 217 q 426 49 325 49 q 588 133 529 49 q 646 369 646 218 q 588 603 646 519 q 428 688 531 688 q 267 603 325 688 q 210 368 210 519 m 381 892 l 458 1128 q 487 1176 469 1158 q 535 1193 504 1193 q 573 1176 557 1193 q 589 1133 589 1160 q 580 1096 589 1115 q 547 1049 571 1076 l 410 876 l 381 892 z "},"ŏ":{"ha":856,"x_min":63,"x_max":793,"o":"m 428 750 q 574 721 507 750 q 689 641 640 692 q 765 520 738 590 q 793 368 793 450 q 765 216 793 286 q 689 94 738 146 q 574 15 640 43 q 428 -14 507 -14 q 282 15 349 -14 q 167 94 215 43 q 90 216 118 146 q 63 368 63 286 q 90 520 63 450 q 167 641 118 590 q 282 721 215 692 q 428 750 349 750 m 210 368 q 267 133 210 217 q 426 49 325 49 q 588 133 529 49 q 646 369 646 218 q 588 603 646 519 q 428 688 531 688 q 267 603 325 688 q 210 368 210 519 m 288 1097 q 345 1028 304 1049 q 435 1007 386 1007 q 522 1028 481 1007 q 586 1097 563 1049 l 633 1097 q 591 994 617 1032 q 537 936 565 956 q 480 910 508 917 q 429 904 451 904 q 367 914 399 904 q 310 947 336 924 q 264 1006 283 969 q 239 1097 244 1043 l 288 1097 z "},"ô":{"ha":856,"x_min":63,"x_max":793,"o":"m 428 750 q 574 721 507 750 q 689 641 640 692 q 765 520 738 590 q 793 368 793 450 q 765 216 793 286 q 689 94 738 146 q 574 15 640 43 q 428 -14 507 -14 q 282 15 349 -14 q 167 94 215 43 q 90 216 118 146 q 63 368 63 286 q 90 520 63 450 q 167 641 118 590 q 282 721 215 692 q 428 750 349 750 m 210 368 q 267 133 210 217 q 426 49 325 49 q 588 133 529 49 q 646 369 646 218 q 588 603 646 519 q 428 688 531 688 q 267 603 325 688 q 210 368 210 519 m 446 1190 q 482 1180 469 1190 q 504 1150 494 1169 l 621 889 l 590 872 l 440 1068 l 293 872 l 265 889 l 382 1150 q 405 1180 390 1169 q 446 1190 419 1190 z "},"ö":{"ha":856,"x_min":63,"x_max":793,"o":"m 428 750 q 574 721 507 750 q 689 641 640 692 q 765 520 738 590 q 793 368 793 450 q 765 216 793 286 q 689 94 738 146 q 574 15 640 43 q 428 -14 507 -14 q 282 15 349 -14 q 167 94 215 43 q 90 216 118 146 q 63 368 63 286 q 90 520 63 450 q 167 641 118 590 q 282 721 215 692 q 428 750 349 750 m 210 368 q 267 133 210 217 q 426 49 325 49 q 588 133 529 49 q 646 369 646 218 q 588 603 646 519 q 428 688 531 688 q 267 603 325 688 q 210 368 210 519 m 224 1007 q 244 1062 224 1040 q 300 1083 265 1083 q 356 1062 336 1083 q 376 1007 376 1040 q 356 953 376 975 q 300 931 336 931 q 244 953 265 931 q 224 1007 224 975 m 483 1007 q 504 1062 483 1040 q 560 1083 525 1083 q 616 1062 596 1083 q 636 1007 636 1040 q 616 953 636 975 q 560 931 596 931 q 504 953 525 931 q 483 1007 483 975 z "},"ọ":{"ha":856,"x_min":63,"x_max":793,"o":"m 428 750 q 574 721 507 750 q 689 641 640 692 q 765 520 738 590 q 793 368 793 450 q 765 216 793 286 q 689 94 738 146 q 574 15 640 43 q 428 -14 507 -14 q 282 15 349 -14 q 167 94 215 43 q 90 216 118 146 q 63 368 63 286 q 90 520 63 450 q 167 641 118 590 q 282 721 215 692 q 428 750 349 750 m 210 368 q 267 133 210 217 q 426 49 325 49 q 588 133 529 49 q 646 369 646 218 q 588 603 646 519 q 428 688 531 688 q 267 603 325 688 q 210 368 210 519 m 340 -269 q 365 -205 340 -231 q 429 -179 389 -179 q 495 -205 471 -179 q 519 -269 519 -231 q 495 -332 519 -306 q 429 -358 471 -358 q 365 -332 389 -358 q 340 -269 340 -306 z "},"œ":{"ha":1367,"x_min":63,"x_max":1310,"o":"m 1300 428 l 793 428 l 793 396 q 853 165 793 243 q 1033 88 914 88 q 1160 112 1101 88 q 1254 181 1218 136 l 1271 201 l 1294 188 l 1286 168 q 1170 35 1250 83 q 988 -14 1090 -14 q 830 23 899 -14 q 717 126 761 60 q 594 23 668 60 q 428 -14 519 -14 q 282 15 349 -14 q 167 94 215 43 q 90 216 118 146 q 63 368 63 286 q 90 520 63 450 q 167 641 118 590 q 282 721 215 692 q 428 750 349 750 q 599 710 522 750 q 724 599 675 669 q 849 710 772 669 q 1025 750 926 750 q 1235 671 1163 750 q 1310 436 1307 592 l 1300 428 m 210 368 q 267 133 210 217 q 426 49 325 49 q 588 133 529 49 q 646 369 646 218 q 588 603 646 519 q 428 688 531 688 q 267 603 325 688 q 210 368 210 519 m 1013 707 q 865 645 921 707 q 796 467 810 583 l 1160 479 q 1163 503 1163 488 q 1164 536 1164 519 q 1013 707 1164 707 z "},"˛":{"ha":322,"x_min":14,"x_max":308,"o":"m 308 -281 q 156 -356 243 -356 q 52 -323 90 -356 q 14 -233 14 -290 q 62 -109 14 -175 q 193 15 110 -43 l 246 15 q 136 -200 136 -108 q 210 -279 136 -279 q 247 -272 229 -279 q 288 -250 264 -265 l 308 -281 z "},"ò":{"ha":856,"x_min":63,"x_max":793,"o":"m 428 750 q 574 721 507 750 q 689 641 640 692 q 765 520 738 590 q 793 368 793 450 q 765 216 793 286 q 689 94 738 146 q 574 15 640 43 q 428 -14 507 -14 q 282 15 349 -14 q 167 94 215 43 q 90 216 118 146 q 63 368 63 286 q 90 520 63 450 q 167 641 118 590 q 282 721 215 692 q 428 750 349 750 m 210 368 q 267 133 210 217 q 426 49 325 49 q 588 133 529 49 q 646 369 646 218 q 588 603 646 519 q 428 688 531 688 q 267 603 325 688 q 210 368 210 519 m 461 876 l 324 1049 q 291 1096 300 1076 q 282 1133 282 1115 q 298 1176 282 1160 q 336 1193 314 1193 q 384 1176 367 1193 q 413 1128 401 1158 l 490 892 l 461 876 z "},"ő":{"ha":856,"x_min":63,"x_max":793,"o":"m 428 750 q 574 721 507 750 q 689 641 640 692 q 765 520 738 590 q 793 368 793 450 q 765 216 793 286 q 689 94 738 146 q 574 15 640 43 q 428 -14 507 -14 q 282 15 349 -14 q 167 94 215 43 q 90 216 118 146 q 63 368 63 286 q 90 520 63 450 q 167 641 118 590 q 282 721 215 692 q 428 750 349 750 m 210 368 q 267 133 210 217 q 426 49 325 49 q 588 133 529 49 q 646 369 646 218 q 588 603 646 519 q 428 688 531 688 q 267 603 325 688 q 210 368 210 519 m 503 892 l 581 1128 q 609 1176 592 1158 q 657 1193 626 1193 q 695 1176 679 1193 q 711 1133 711 1160 q 702 1096 711 1115 q 669 1049 693 1076 l 532 876 l 503 892 m 282 892 l 360 1128 q 388 1176 371 1158 q 436 1193 406 1193 q 474 1176 458 1193 q 490 1133 490 1160 q 481 1096 490 1115 q 449 1049 472 1076 l 311 876 l 282 892 z "},"ō":{"ha":856,"x_min":63,"x_max":793,"o":"m 428 750 q 574 721 507 750 q 689 641 640 692 q 765 520 738 590 q 793 368 793 450 q 765 216 793 286 q 689 94 738 146 q 574 15 640 43 q 428 -14 507 -14 q 282 15 349 -14 q 167 94 215 43 q 90 216 118 146 q 63 368 63 286 q 90 520 63 450 q 167 641 118 590 q 282 721 215 692 q 428 750 349 750 m 210 368 q 267 133 210 217 q 426 49 325 49 q 588 133 529 49 q 646 369 646 218 q 588 603 646 519 q 428 688 531 688 q 267 603 325 688 q 210 368 210 519 m 236 985 l 236 1083 l 635 1083 l 635 985 l 236 985 z "},"⅛":{"ha":1164,"x_min":67,"x_max":1101,"o":"m 188 0 l 839 1069 l 936 1069 l 283 0 l 188 0 m 282 1076 l 282 496 l 385 475 l 385 444 l 67 444 l 67 475 l 169 496 l 169 947 l 68 947 l 68 982 q 251 1082 165 1003 l 282 1076 m 967 356 q 1069 274 1038 315 q 1101 178 1101 232 q 1085 101 1101 136 q 1041 40 1069 65 q 973 0 1013 14 q 886 -14 933 -14 q 738 33 792 -14 q 685 154 685 81 q 807 303 685 250 q 731 377 754 338 q 707 465 707 417 q 759 587 707 542 q 894 632 811 632 q 1024 593 974 632 q 1074 490 1074 554 q 967 356 1074 403 m 922 378 q 982 490 982 429 q 957 559 982 535 q 889 583 932 583 q 825 562 849 583 q 801 503 801 540 q 829 438 801 467 q 922 378 857 408 m 847 279 q 786 164 786 246 q 816 69 786 101 q 899 36 846 36 q 974 62 946 36 q 1003 131 1003 88 q 967 210 1003 175 q 847 279 931 246 z "},"½":{"ha":1158,"x_min":67,"x_max":1099,"o":"m 188 0 l 839 1069 l 936 1069 l 283 0 l 188 0 m 282 1076 l 282 496 l 385 475 l 385 444 l 67 444 l 67 475 l 169 496 l 169 947 l 68 947 l 68 982 q 251 1082 165 1003 l 282 1076 m 682 0 l 675 49 q 805 178 751 121 q 892 282 858 235 q 940 369 925 329 q 956 444 956 408 q 928 528 956 497 q 857 560 901 560 q 782 533 818 560 q 722 464 746 507 l 694 482 q 776 597 722 556 q 899 638 831 638 q 970 624 938 638 q 1027 587 1003 611 q 1065 531 1051 563 q 1079 461 1079 499 q 1065 386 1079 424 q 1017 307 1050 349 q 932 217 985 265 q 803 108 879 168 l 1008 108 q 1038 142 1022 121 q 1068 190 1053 163 l 1099 185 l 1033 -26 l 1010 -26 l 994 0 l 682 0 z "},"₁":{"ha":488,"x_min":82,"x_max":436,"o":"m 321 488 l 321 -157 l 436 -181 l 436 -214 l 82 -214 l 82 -181 l 196 -157 l 196 344 l 83 344 l 83 383 q 190 422 140 394 q 288 494 239 449 l 321 488 z "},"¼":{"ha":1122,"x_min":67,"x_max":1054,"o":"m 229 0 l 881 1069 l 978 1069 l 325 0 l 229 0 m 282 1076 l 282 496 l 385 475 l 385 444 l 67 444 l 67 475 l 169 496 l 169 947 l 68 947 l 68 982 q 251 1082 165 1003 l 282 1076 m 867 158 l 629 158 l 617 206 l 929 638 l 979 631 l 979 238 l 1054 238 l 1054 158 l 979 158 l 979 50 l 1051 31 l 1051 0 l 769 0 l 769 31 l 867 50 l 867 158 m 867 465 l 861 465 l 700 243 l 703 238 l 867 238 l 867 465 z "},"¹":{"ha":488,"x_min":81,"x_max":435,"o":"m 319 1279 l 319 635 l 435 611 l 435 578 l 81 578 l 81 611 l 194 635 l 194 1136 l 82 1136 l 82 1175 q 188 1213 139 1186 q 286 1286 238 1240 l 319 1279 z "},"⅓":{"ha":1146,"x_min":67,"x_max":1078,"o":"m 188 0 l 839 1069 l 936 1069 l 283 0 l 188 0 m 282 1076 l 282 496 l 385 475 l 385 444 l 67 444 l 67 475 l 169 496 l 169 947 l 68 947 l 68 982 q 251 1082 165 1003 l 282 1076 m 785 328 q 889 397 851 354 q 926 485 926 439 q 907 536 926 517 q 856 556 888 556 q 788 535 819 556 q 739 478 757 514 l 713 490 q 776 593 726 554 q 896 632 826 632 q 1000 597 960 632 q 1040 504 1040 563 q 1008 421 1040 456 q 929 375 976 386 l 929 369 q 1038 318 997 363 q 1078 203 1078 274 q 1060 119 1078 158 q 1013 50 1043 79 q 940 3 982 21 q 851 -14 899 -14 q 736 19 783 -14 q 689 100 689 51 q 703 143 689 126 q 742 160 718 160 q 781 141 769 160 q 801 99 792 122 q 825 58 811 76 q 871 39 839 39 q 939 70 913 39 q 965 154 965 101 q 931 258 965 221 q 839 296 896 296 q 819 295 831 296 q 796 292 807 294 l 785 328 z "},"ǫ":{"ha":856,"x_min":63,"x_max":793,"o":"m 544 -283 q 392 -358 479 -358 q 288 -326 326 -358 q 250 -236 250 -293 q 288 -126 250 -185 q 396 -12 326 -67 q 261 24 322 -7 q 156 106 200 56 q 88 223 113 156 q 63 368 63 290 q 90 520 63 450 q 167 641 118 590 q 282 721 215 692 q 428 750 349 750 q 574 721 507 750 q 689 641 640 692 q 765 520 738 590 q 793 368 793 450 q 768 223 793 290 q 699 106 743 156 q 593 24 654 56 q 460 -12 532 -7 q 372 -203 372 -121 q 446 -282 372 -282 q 483 -275 465 -282 q 524 -253 500 -268 l 544 -283 m 210 368 q 267 133 210 217 q 426 49 325 49 q 588 133 529 49 q 646 369 646 218 q 588 603 646 519 q 428 688 531 688 q 267 603 325 688 q 210 368 210 519 z "},"ª":{"ha":579,"x_min":81,"x_max":522,"o":"m 199 586 q 113 617 146 586 q 81 697 81 647 q 138 796 81 758 q 329 864 194 833 l 329 944 q 314 1014 329 993 q 263 1035 299 1035 q 203 1019 226 1035 q 181 979 181 1004 q 182 964 181 972 q 183 947 183 956 q 169 910 183 925 q 136 896 156 896 q 106 908 117 896 q 94 939 94 919 q 121 1001 94 969 q 192 1056 147 1033 q 307 1083 243 1083 q 377 1070 347 1083 q 418 1035 407 1057 q 424 1018 422 1026 q 427 997 426 1010 q 428 965 428 985 q 429 917 429 946 l 429 724 q 436 664 429 679 q 463 649 443 649 q 500 668 481 649 l 522 647 q 422 586 482 586 q 336 661 349 586 l 331 663 q 199 586 274 586 m 250 654 q 329 714 297 654 l 329 824 q 215 782 247 806 q 183 715 183 758 q 201 670 183 686 q 250 654 218 654 z "},"º":{"ha":614,"x_min":69,"x_max":544,"o":"m 307 1083 q 401 1065 358 1083 q 476 1013 444 1046 q 526 934 508 979 q 544 835 544 889 q 526 735 544 781 q 476 657 508 690 q 401 605 444 624 q 307 586 358 586 q 213 605 256 586 q 138 657 169 624 q 88 735 106 690 q 69 835 69 781 q 88 934 69 889 q 138 1013 106 979 q 213 1065 169 1046 q 307 1083 256 1083 m 179 835 q 213 686 179 739 q 306 633 246 633 q 401 687 367 633 q 435 836 435 740 q 401 983 435 931 q 307 1035 368 1035 q 213 983 246 1035 q 179 835 179 931 z "},"ø":{"ha":875,"x_min":49,"x_max":843,"o":"m 435 -14 q 306 8 365 -14 q 199 69 246 29 l 132 0 l 49 0 l 157 113 q 92 227 115 163 q 69 368 69 292 q 97 520 69 450 q 174 641 125 590 q 289 721 222 692 q 435 750 356 750 q 570 725 508 750 q 681 656 632 700 l 758 736 l 843 736 l 722 611 q 779 501 758 563 q 800 368 800 439 q 772 216 800 286 q 696 94 744 146 q 581 15 647 43 q 435 -14 514 -14 m 608 581 q 537 660 581 632 q 435 688 493 688 q 274 603 332 688 q 217 368 217 519 q 242 200 217 268 l 608 581 m 433 49 q 594 133 536 49 q 653 369 653 218 q 633 518 653 451 l 268 142 q 433 49 325 49 z "},"ǿ":{"ha":875,"x_min":49,"x_max":843,"o":"m 435 -14 q 306 8 365 -14 q 199 69 246 29 l 132 0 l 49 0 l 157 113 q 92 227 115 163 q 69 368 69 292 q 97 520 69 450 q 174 641 125 590 q 289 721 222 692 q 435 750 356 750 q 570 725 508 750 q 681 656 632 700 l 758 736 l 843 736 l 722 611 q 779 501 758 563 q 800 368 800 439 q 772 216 800 286 q 696 94 744 146 q 581 15 647 43 q 435 -14 514 -14 m 608 581 q 537 660 581 632 q 435 688 493 688 q 274 603 332 688 q 217 368 217 519 q 242 200 217 268 l 608 581 m 433 49 q 594 133 536 49 q 653 369 653 218 q 633 518 653 451 l 268 142 q 433 49 325 49 m 386 892 l 464 1128 q 492 1176 475 1158 q 540 1193 510 1193 q 578 1176 563 1193 q 594 1133 594 1160 q 585 1096 594 1115 q 553 1049 576 1076 l 415 876 l 386 892 z "},"õ":{"ha":856,"x_min":63,"x_max":793,"o":"m 428 750 q 574 721 507 750 q 689 641 640 692 q 765 520 738 590 q 793 368 793 450 q 765 216 793 286 q 689 94 738 146 q 574 15 640 43 q 428 -14 507 -14 q 282 15 349 -14 q 167 94 215 43 q 90 216 118 146 q 63 368 63 286 q 90 520 63 450 q 167 641 118 590 q 282 721 215 692 q 428 750 349 750 m 210 368 q 267 133 210 217 q 426 49 325 49 q 588 133 529 49 q 646 369 646 218 q 588 603 646 519 q 428 688 531 688 q 267 603 325 688 q 210 368 210 519 m 228 949 q 260 1063 228 1019 q 344 1107 293 1107 q 394 1099 368 1107 q 448 1083 421 1092 q 501 1066 475 1074 q 551 1058 528 1058 q 621 1111 610 1058 l 654 1111 q 622 993 654 1039 q 538 947 589 947 q 487 956 513 947 q 435 974 461 964 q 383 993 408 985 q 332 1001 357 1001 q 261 949 268 1001 l 228 949 z "},"p":{"ha":854,"x_min":32,"x_max":789,"o":"m 268 -300 l 406 -321 l 406 -347 l 32 -347 l 32 -321 l 136 -300 l 136 626 l 35 664 l 35 683 l 249 750 l 264 750 l 264 628 l 269 628 q 372 721 311 692 q 496 750 433 750 q 615 722 561 750 q 708 645 669 694 q 767 528 746 596 q 789 379 789 460 q 761 219 789 292 q 682 95 733 147 q 560 15 631 43 q 403 -14 489 -14 q 336 -9 369 -14 q 268 7 303 -4 l 268 -300 m 408 28 q 505 52 461 28 q 580 119 549 76 q 628 223 611 163 q 644 357 644 283 q 586 579 644 499 q 426 660 528 660 q 338 637 383 660 q 275 579 293 614 l 275 164 q 313 65 275 103 q 408 28 351 28 z "},"¶":{"ha":810,"x_min":43,"x_max":728,"o":"m 408 -150 l 408 472 l 331 472 q 211 496 264 472 q 121 560 158 519 q 63 655 83 601 q 43 769 43 708 q 65 893 43 838 q 129 988 88 949 q 231 1048 171 1026 q 365 1069 290 1069 l 728 1069 l 728 1035 l 619 1011 l 619 -150 l 556 -150 l 556 1014 l 472 1014 l 472 -150 l 408 -150 z "},"(":{"ha":424,"x_min":65,"x_max":388,"o":"m 349 -278 q 253 -165 303 -231 q 161 -13 203 -100 q 92 182 119 74 q 65 424 65 290 q 94 656 65 543 q 168 866 124 769 q 267 1037 213 963 q 372 1153 322 1111 l 388 1139 q 327 1024 361 1099 q 263 852 293 949 q 213 645 233 756 q 193 422 193 535 q 212 181 193 289 q 258 -11 231 74 q 315 -158 285 -96 q 371 -260 346 -219 l 349 -278 z "},")":{"ha":424,"x_min":36,"x_max":358,"o":"m 53 -260 q 108 -158 78 -219 q 166 -11 139 -96 q 212 181 193 74 q 231 422 231 289 q 210 645 231 535 q 160 852 190 756 q 97 1024 131 949 q 36 1139 63 1099 l 51 1153 q 156 1037 101 1111 q 256 866 211 963 q 329 656 300 769 q 358 424 358 543 q 331 182 358 290 q 263 -13 304 74 q 171 -165 221 -100 q 75 -278 121 -231 l 53 -260 z "},"%":{"ha":1121,"x_min":50,"x_max":1072,"o":"m 268 1082 q 354 1059 314 1082 q 424 995 394 1036 q 470 900 453 954 q 488 783 488 846 q 471 669 488 722 q 424 577 454 617 q 354 515 394 538 q 268 492 314 492 q 182 514 222 492 q 113 576 142 536 q 67 669 83 615 q 50 783 50 722 q 67 901 50 846 q 113 996 83 956 q 183 1059 143 1036 q 268 1082 222 1082 m 268 1033 q 228 1022 244 1033 q 202 983 213 1011 q 187 906 192 954 q 182 785 182 858 q 187 663 182 710 q 202 588 192 615 q 228 551 213 561 q 268 542 244 542 q 308 552 292 542 q 335 590 325 563 q 351 664 346 617 q 356 785 356 711 q 351 906 356 858 q 335 983 346 954 q 308 1022 325 1011 q 268 1033 292 1033 m 853 576 q 939 553 899 576 q 1008 490 979 531 q 1055 394 1038 449 q 1072 278 1072 340 q 1056 164 1072 217 q 1009 72 1039 111 q 939 9 979 32 q 853 -14 899 -14 q 767 8 807 -14 q 697 70 726 31 q 651 163 668 110 q 635 278 635 217 q 651 395 635 340 q 698 490 668 450 q 767 553 728 531 q 853 576 807 576 m 853 528 q 813 517 829 528 q 787 477 797 506 q 772 401 776 449 q 767 279 767 353 q 772 157 767 204 q 787 83 776 110 q 813 46 797 56 q 853 36 829 36 q 893 47 876 36 q 920 84 910 57 q 935 158 931 111 q 940 279 940 206 q 935 401 940 353 q 920 477 931 449 q 893 517 910 506 q 853 528 876 528 m 189 0 l 840 1069 l 938 1069 l 285 0 l 189 0 z "},".":{"ha":364,"x_min":86,"x_max":278,"o":"m 86 81 q 112 150 86 122 q 181 178 138 178 q 251 150 225 178 q 278 81 278 122 q 251 14 278 42 q 181 -14 225 -14 q 112 14 138 -14 q 86 81 86 42 z "},"·":{"ha":392,"x_min":100,"x_max":292,"o":"m 100 399 q 126 468 100 440 q 194 496 151 496 q 265 468 239 496 q 292 399 292 440 q 265 332 292 360 q 194 304 239 304 q 126 332 151 304 q 100 399 100 360 z "}}}
